<svg xmlns="http://www.w3.org/2000/svg" xmlns:xlink="http://www.w3.org/1999/xlink" viewBox="0 0 85.43 120.1"><defs><style>.cls-1,.cls-10{fill:#f6b707;}.cls-1,.cls-13,.cls-3{stroke:#3e09b2;}.cls-1,.cls-13{stroke-linecap:round;stroke-linejoin:round;stroke-width:1.04px;}.cls-13,.cls-2{fill:none;}.cls-3,.cls-8{fill:#3e09b2;}.cls-3{stroke-miterlimit:10;stroke-width:0.25px;}.cls-4{fill:#4f22f2;}.cls-5{fill:url(#Unnamed_Pattern_8);}.cls-6{fill:#fefefe;}.cls-7{fill:#f98308;}.cls-9{fill:#fff;}.cls-11{clip-path:url(#clip-path);}.cls-12{fill:#ffe2c3;}.cls-14{opacity:0.11;}.cls-15{fill:#54d7cf;}.cls-16{fill:url(#Unnamed_Pattern_3);}.cls-17{fill:#f4f2f9;}.cls-18{fill:#2d04a0;}.cls-19{fill:url(#Unnamed_Pattern_3-5);}</style><pattern id="Unnamed_Pattern_8" data-name="Unnamed Pattern 8" width="54.16" height="92.59" patternTransform="matrix(-0.12, 0.01, 0.01, 0.11, -53.44, 10.07)" patternUnits="userSpaceOnUse" viewBox="0 0 54.16 92.59"><rect class="cls-2" width="54.16" height="92.59"/><polygon class="cls-4" points="33.38 76.69 36.59 73.47 46.11 82.99 42.9 86.2 33.38 76.69"/><polygon class="cls-4" points="12.7 76.69 15.91 79.91 6.4 89.42 3.19 86.21 12.7 76.69"/><polygon class="cls-4" points="26.42 90.11 29.64 93.32 20.12 102.83 16.91 99.62 26.42 90.11"/><polygon class="cls-4" points="23.43 57.21 26.64 54 36.15 63.52 32.94 66.73 23.43 57.21"/><polygon class="cls-4" points="6.3 30.39 9.51 27.18 19.03 36.69 15.81 39.9 6.3 30.39"/><polygon class="cls-4" points="39.78 30.39 42.99 33.61 33.48 43.12 30.27 39.91 39.78 30.39"/><polygon class="cls-4" points="53.5 43.81 56.72 47.02 47.2 56.53 43.99 53.32 53.5 43.81"/><polygon class="cls-4" points="10.22 56.01 13.44 59.22 3.92 68.74 0.71 65.53 10.22 56.01"/><polygon class="cls-4" points="-0.66 43.81 2.56 47.02 -6.96 56.53 -10.17 53.32 -0.66 43.81"/><polygon class="cls-4" points="50.51 10.92 53.72 7.7 63.23 17.22 60.02 20.43 50.51 10.92"/><polygon class="cls-4" points="37.3 9.71 40.52 12.93 31 22.44 27.79 19.23 37.3 9.71"/><polygon class="cls-4" points="-3.65 10.92 -0.44 7.7 9.07 17.22 5.86 20.43 -3.65 10.92"/><polygon class="cls-4" points="26.42 -2.49 29.64 0.72 20.12 10.24 16.91 7.03 26.42 -2.49"/></pattern><clipPath id="clip-path"><path class="cls-1" d="M35.94,25.37c.82-7.37-4.06-14-11-15S11.25,14.73,10.24,22.24h0c-.85,7.41,4.06,14.12,11.08,15S35,32.89,36,25.38Z"/></clipPath><pattern id="Unnamed_Pattern_3" data-name="Unnamed Pattern 3" width="11.42" height="11.5" patternTransform="translate(29.97 19.69) rotate(6.92) scale(0.26)" patternUnits="userSpaceOnUse" viewBox="0 0 11.42 11.5"><rect class="cls-2" width="11.42" height="11.5"/><path class="cls-3" d="M11.44,12.17a.56.56,0,1,1,.56-.56A.56.56,0,0,1,11.44,12.17Z"/><path class="cls-3" d="M5.66,12a.55.55,0,1,1,.56-.55A.55.55,0,0,1,5.66,12Z"/><path class="cls-3" d="M0,12.17a.56.56,0,0,1-.56-.56A.56.56,0,0,1,0,11.06a.55.55,0,0,1,.55.55A.56.56,0,0,1,0,12.17Z"/><path class="cls-3" d="M11.48,12.17a.56.56,0,1,1,.56-.56A.56.56,0,0,1,11.48,12.17Z"/><path class="cls-3" d="M.07,12.17a.56.56,0,0,1-.56-.56.56.56,0,0,1,.56-.55.55.55,0,0,1,.55.55A.56.56,0,0,1,.07,12.17Z"/><path class="cls-3" d="M11.9,5.66a.55.55,0,1,1-.55-.56A.55.55,0,0,1,11.9,5.66Z"/><path class="cls-3" d="M11.44.67a.56.56,0,0,1-.55-.56.55.55,0,0,1,.55-.55A.56.56,0,0,1,12,.11.56.56,0,0,1,11.44.67Z"/><path class="cls-3" d="M11.44,12.13a.56.56,0,0,1-.55-.56.56.56,0,0,1,1.11,0A.56.56,0,0,1,11.44,12.13Z"/><circle class="cls-3" cx="5.66" cy="5.66" r="0.55"/><circle class="cls-3" cx="-0.07" cy="5.66" r="0.55"/><path class="cls-3" d="M11.94,5.66a.55.55,0,1,1-.55-.56A.55.55,0,0,1,11.94,5.66Z"/><circle class="cls-3" cx="5.66" cy="5.66" r="1.34"/><path class="cls-3" d="M5.66.48a.55.55,0,0,1-.55-.55.56.56,0,0,1,.55-.56.56.56,0,0,1,.56.56A.55.55,0,0,1,5.66.48Z"/><circle class="cls-3" cx="5.66" cy="11.39" r="0.55"/><path class="cls-3" d="M0,.67A.56.56,0,0,1-.53.11.56.56,0,0,1,0-.44.55.55,0,0,1,.58.11.56.56,0,0,1,0,.67Z"/><circle class="cls-3" cx="0.03" cy="11.57" r="0.55"/><path class="cls-3" d="M11.48.67a.56.56,0,0,1-.55-.56.55.55,0,0,1,.55-.55A.56.56,0,0,1,12,.11.56.56,0,0,1,11.48.67Z"/><path class="cls-3" d="M11.48,12.13a.56.56,0,0,1-.55-.56.56.56,0,0,1,1.11,0A.56.56,0,0,1,11.48,12.13Z"/><path class="cls-3" d="M.53,5.66A.56.56,0,0,1,0,6.21a.55.55,0,0,1-.55-.55A.56.56,0,0,1,0,5.1.56.56,0,0,1,.53,5.66Z"/><path class="cls-3" d="M.07.67A.56.56,0,0,1-.49.11.56.56,0,0,1,.07-.44.55.55,0,0,1,.62.11.56.56,0,0,1,.07.67Z"/><path class="cls-3" d="M.07,12.13a.56.56,0,0,1-.56-.56A.55.55,0,0,1,.07,11a.55.55,0,0,1,.55.55A.56.56,0,0,1,.07,12.13Z"/><path class="cls-3" d="M11.44.63a.56.56,0,0,1-.55-.56.55.55,0,0,1,.55-.55A.55.55,0,0,1,12,.07.56.56,0,0,1,11.44.63Z"/><path class="cls-3" d="M5.66.44a.55.55,0,0,1-.55-.55.56.56,0,0,1,.55-.56.56.56,0,0,1,.56.56A.56.56,0,0,1,5.66.44Z"/><path class="cls-3" d="M0,.63A.56.56,0,0,1-.53.07.55.55,0,0,1,0-.48.55.55,0,0,1,.58.07.56.56,0,0,1,0,.63Z"/><path class="cls-3" d="M11.48.63a.56.56,0,0,1-.55-.56.55.55,0,0,1,.55-.55A.55.55,0,0,1,12,.07.56.56,0,0,1,11.48.63Z"/><path class="cls-3" d="M.07.63A.56.56,0,0,1-.49.07.55.55,0,0,1,.07-.48.55.55,0,0,1,.62.07.56.56,0,0,1,.07.63Z"/></pattern><pattern id="Unnamed_Pattern_3-5" data-name="Unnamed Pattern 3" width="11.42" height="11.5" patternTransform="translate(20.19 29.97) rotate(21.94) scale(0.26)" patternUnits="userSpaceOnUse" viewBox="0 0 11.42 11.5"><rect class="cls-2" width="11.42" height="11.5"/><path class="cls-3" d="M11.44,12.17a.56.56,0,1,1,.56-.56A.56.56,0,0,1,11.44,12.17Z"/><path class="cls-3" d="M5.66,12a.55.55,0,1,1,.56-.55A.55.55,0,0,1,5.66,12Z"/><path class="cls-3" d="M0,12.17a.56.56,0,0,1-.56-.56A.56.56,0,0,1,0,11.06a.55.55,0,0,1,.55.55A.56.56,0,0,1,0,12.17Z"/><path class="cls-3" d="M11.48,12.17a.56.56,0,1,1,.56-.56A.56.56,0,0,1,11.48,12.17Z"/><path class="cls-3" d="M.07,12.17a.56.56,0,0,1-.56-.56.56.56,0,0,1,.56-.55.55.55,0,0,1,.55.55A.56.56,0,0,1,.07,12.17Z"/><path class="cls-3" d="M11.9,5.66a.55.55,0,1,1-.55-.56A.55.55,0,0,1,11.9,5.66Z"/><path class="cls-3" d="M11.44.67a.56.56,0,0,1-.55-.56.55.55,0,0,1,.55-.55A.56.56,0,0,1,12,.11.56.56,0,0,1,11.44.67Z"/><path class="cls-3" d="M11.44,12.13a.56.56,0,0,1-.55-.56.56.56,0,0,1,1.11,0A.56.56,0,0,1,11.44,12.13Z"/><circle class="cls-3" cx="5.66" cy="5.66" r="0.55"/><circle class="cls-3" cx="-0.07" cy="5.66" r="0.55"/><path class="cls-3" d="M11.94,5.66a.55.55,0,1,1-.55-.56A.55.55,0,0,1,11.94,5.66Z"/><circle class="cls-3" cx="5.66" cy="5.66" r="1.34"/><path class="cls-3" d="M5.66.48a.55.55,0,0,1-.55-.55.56.56,0,0,1,.55-.56.56.56,0,0,1,.56.56A.55.55,0,0,1,5.66.48Z"/><circle class="cls-3" cx="5.66" cy="11.39" r="0.55"/><path class="cls-3" d="M0,.67A.56.56,0,0,1-.53.11.56.56,0,0,1,0-.44.55.55,0,0,1,.58.11.56.56,0,0,1,0,.67Z"/><circle class="cls-3" cx="0.03" cy="11.57" r="0.55"/><path class="cls-3" d="M11.48.67a.56.56,0,0,1-.55-.56.55.55,0,0,1,.55-.55A.56.56,0,0,1,12,.11.56.56,0,0,1,11.48.67Z"/><path class="cls-3" d="M11.48,12.13a.56.56,0,0,1-.55-.56.56.56,0,0,1,1.11,0A.56.56,0,0,1,11.48,12.13Z"/><path class="cls-3" d="M.53,5.66A.56.56,0,0,1,0,6.21a.55.55,0,0,1-.55-.55A.56.56,0,0,1,0,5.1.56.56,0,0,1,.53,5.66Z"/><path class="cls-3" d="M.07.67A.56.56,0,0,1-.49.11.56.56,0,0,1,.07-.44.55.55,0,0,1,.62.11.56.56,0,0,1,.07.67Z"/><path class="cls-3" d="M.07,12.13a.56.56,0,0,1-.56-.56A.55.55,0,0,1,.07,11a.55.55,0,0,1,.55.55A.56.56,0,0,1,.07,12.13Z"/><path class="cls-3" d="M11.44.63a.56.56,0,0,1-.55-.56.55.55,0,0,1,.55-.55A.55.55,0,0,1,12,.07.56.56,0,0,1,11.44.63Z"/><path class="cls-3" d="M5.66.44a.55.55,0,0,1-.55-.55.56.56,0,0,1,.55-.56.56.56,0,0,1,.56.56A.56.56,0,0,1,5.66.44Z"/><path class="cls-3" d="M0,.63A.56.56,0,0,1-.53.07.55.55,0,0,1,0-.48.55.55,0,0,1,.58.07.56.56,0,0,1,0,.63Z"/><path class="cls-3" d="M11.48.63a.56.56,0,0,1-.55-.56.55.55,0,0,1,.55-.55A.55.55,0,0,1,12,.07.56.56,0,0,1,11.48.63Z"/><path class="cls-3" d="M.07.63A.56.56,0,0,1-.49.07.55.55,0,0,1,.07-.48.55.55,0,0,1,.62.07.56.56,0,0,1,.07.63Z"/></pattern></defs><g id="Layer_2" data-name="Layer 2"><g id="OBJECTS"><path class="cls-5" d="M20.94,8.82a17.62,17.62,0,0,1,4.35,0c10,1.34,16.89,10.84,15.72,21.35h0c0,.09,0,.18,0,.27L59.14,34l.15-.44a9.49,9.49,0,0,1,5.87-5.86l12.43-4.31A2.46,2.46,0,0,1,78,23.3,2.12,2.12,0,0,1,79,27.41L66.55,31.73a5.2,5.2,0,0,0-3.19,3.11l8.52,1.65a2.16,2.16,0,0,1,1.68,2.67L53.21,116.41a4.11,4.11,0,0,1-3.51,3,3.83,3.83,0,0,1-1.26,0l-31.25-6.06a4.76,4.76,0,0,1-3.82-5.22l7.07-60.91-.24,0c-10-1.32-17-10.87-15.77-21.43h0c1.23-9.13,8.23-16,16.53-16.94"/><path class="cls-6" d="M23.31,4.66a17,17,0,0,1,2.35.16c10,1.34,16.89,10.85,15.72,21.35h0c0,.09,0,.18,0,.27L59.51,30l.16-.43a9.42,9.42,0,0,1,5.86-5.86L78,19.36a2.09,2.09,0,0,1,.69-.12,2.13,2.13,0,0,1,.7,4.13L66.92,27.68a5.25,5.25,0,0,0-3.19,3.11l8.52,1.65a2.16,2.16,0,0,1,1.68,2.67L53.58,112.37a4.11,4.11,0,0,1-4,3.07,4.22,4.22,0,0,1-.79-.07L17.56,109.3a4.75,4.75,0,0,1-3.82-5.21l7.07-60.92-.24,0c-10-1.31-17-10.87-15.77-21.43h0C6.11,11.86,14.16,4.66,23.31,4.66m0-4.66h0C11.74,0,1.78,9.07.16,21.09a3.64,3.64,0,0,0,0,.57,24.62,24.62,0,0,0,4.61,17,22.55,22.55,0,0,0,11,8.12L9.11,103.55a9.46,9.46,0,0,0,7.56,10.33l31.25,6.06a8.62,8.62,0,0,0,1.68.16,8.79,8.79,0,0,0,8.49-6.55L78.44,36.3a6.78,6.78,0,0,0-2.18-6.93l4.62-1.6A6.78,6.78,0,1,0,76.43,15L64,19.27a14.08,14.08,0,0,0-7.09,5.45L46.14,22.63A24.44,24.44,0,0,0,41.45,9.3,22.43,22.43,0,0,0,26.29.2a23,23,0,0,0-3-.2Z"/><path class="cls-7" d="M41.38,26.17c1.17-10.5-5.77-20-15.72-21.35S6.22,11,4.78,21.72h0C3.59,32.28,10.58,41.84,20.57,43.15S40,36.88,41.4,26.18Z"/><path class="cls-8" d="M22.88,43.82a17.41,17.41,0,0,1-2.38-.16C10.37,42.33,3.11,32.54,4.27,21.8a.76.76,0,0,1,0-.15A20.56,20.56,0,0,1,11.65,8.34a18.32,18.32,0,0,1,14.08-4C35.8,5.66,43,15.42,41.91,26.08a.49.49,0,0,1,0,.17,20.46,20.46,0,0,1-7.34,13.32A18.41,18.41,0,0,1,22.88,43.82ZM5.31,21.65a.29.29,0,0,1,0,.13C4.14,32,11,41.37,20.64,42.64a17.29,17.29,0,0,0,13.28-3.87,19.5,19.5,0,0,0,6.95-12.52.57.57,0,0,1,0-.13C42,16,35.15,6.62,25.6,5.33A17.33,17.33,0,0,0,12.3,9.15,19.54,19.54,0,0,0,5.31,21.65Z"/><path class="cls-9" d="M38.29,25.8c1-8.73-4.8-16.63-13.06-17.74S9.07,13.21,7.87,22.1h0C6.88,30.88,12.7,38.82,21,39.91s16.14-5.21,17.3-14.1Z"/><path class="cls-10" d="M35.94,25.37c.82-7.37-4.06-14-11-15S11.25,14.73,10.24,22.24h0c-.85,7.41,4.06,14.12,11.08,15S35,32.89,36,25.38Z"/><g class="cls-11"><path class="cls-12" d="M21.7,37.54h-.07a.51.51,0,0,1-.44-.59l3.72-26a.52.52,0,1,1,1,.15l-3.72,26A.51.51,0,0,1,21.7,37.54Z"/><path class="cls-12" d="M30.9,34.45a.54.54,0,0,1-.42-.21L15.26,13.81a.51.51,0,0,1,.11-.72.5.5,0,0,1,.72.1L31.31,33.62a.52.52,0,0,1-.1.72A.56.56,0,0,1,30.9,34.45Z"/><path class="cls-12" d="M11.7,30.4a.52.52,0,0,1-.23-1L34.24,17.94a.52.52,0,1,1,.47.92L11.93,30.34A.46.46,0,0,1,11.7,30.4Z"/><path class="cls-12" d="M35.6,26.17h-.08L10.67,22.49a.52.52,0,1,1,.15-1l24.85,3.67a.52.52,0,0,1,.44.58A.52.52,0,0,1,35.6,26.17Z"/></g><path class="cls-13" d="M35.94,25.37c.82-7.37-4.06-14-11-15S11.25,14.73,10.24,22.24h0c-.85,7.41,4.06,14.12,11.08,15S35,32.89,36,25.38Z"/><path class="cls-12" d="M22,18.8a.28.28,0,0,0,.46-.15c.19-.87.45-2.72-1-2.23S21.3,18.22,22,18.8Z"/><path class="cls-12" d="M21.1,27.77a.28.28,0,0,0-.4-.27c-.81.39-2.42,1.33-1.13,2.18S21.06,28.66,21.1,27.77Z"/><path class="cls-12" d="M25.88,20.13a.42.42,0,0,0,.48.55c1.32-.23,4-.93,2.5-2.69S26.31,18.87,25.88,20.13Z"/><path class="cls-12" d="M16.58,25.36a.33.33,0,0,0,0-.58c-.94-.56-3-1.57-3,.32S15.65,25.91,16.58,25.36Z"/><path class="cls-9" d="M48.81,115.37,17.56,109.3a4.75,4.75,0,0,1-3.82-5.21l8.91-76.76a4.11,4.11,0,0,1,4.87-3.56l44.73,8.67a2.16,2.16,0,0,1,1.68,2.67L53.58,112.37A4.12,4.12,0,0,1,48.81,115.37Z"/><path class="cls-8" d="M49.59,116a4.46,4.46,0,0,1-.88-.09h0l-31.25-6.06A5.29,5.29,0,0,1,13.23,104l8.91-76.76a4.63,4.63,0,0,1,5.48-4l44.73,8.67a2.68,2.68,0,0,1,2.08,3.31L54.08,112.5A4.64,4.64,0,0,1,49.59,116Zm-.68-1.1a3.61,3.61,0,0,0,4.17-2.62L73.43,35a1.67,1.67,0,0,0-.2-1.29A1.63,1.63,0,0,0,72.15,33L27.43,24.27a3.6,3.6,0,0,0-4.26,3.12l-8.92,76.75a4.28,4.28,0,0,0,3.41,4.66Z"/><g class="cls-14"><path class="cls-8" d="M52.07,103.07,18.36,96.53a5.11,5.11,0,0,1-3.46-2.46l-1.16,10a4.75,4.75,0,0,0,3.82,5.21l31.25,6.07a4.12,4.12,0,0,0,4.77-3l2.9-11A4.47,4.47,0,0,1,52.07,103.07Z"/><path class="cls-8" d="M49.59,116a4.46,4.46,0,0,1-.88-.09l-31.25-6.06A5.29,5.29,0,0,1,13.23,104l1.34-11.56.78,1.34A4.6,4.6,0,0,0,18.46,96l33.71,6.54a3.9,3.9,0,0,0,3.89-1.49L57.65,99,54.08,112.5A4.64,4.64,0,0,1,49.59,116ZM15.27,95.41l-1,8.73a4.28,4.28,0,0,0,3.41,4.66l31.25,6.06a3.61,3.61,0,0,0,4.17-2.62l2.45-9.31a4.92,4.92,0,0,1-3.55.65L18.26,97A5.63,5.63,0,0,1,15.27,95.41Z"/></g><rect class="cls-8" x="25.27" y="82.99" width="20.2" height="30.97" rx="3.76" transform="matrix(0.19, -0.98, 0.98, 0.19, -68.04, 114.45)"/><path class="cls-8" d="M45.67,111.21a4.54,4.54,0,0,1-.81-.08h0l-23-4.46a4.3,4.3,0,0,1-3.39-5l2.42-12.44a4.28,4.28,0,0,1,5-3.39l23,4.47a4.28,4.28,0,0,1,3.39,5l-2.41,12.44A4.3,4.3,0,0,1,45.67,111.21Zm-.61-1.1a3.25,3.25,0,0,0,3.8-2.56l2.41-12.44A3.23,3.23,0,0,0,48.7,91.3l-23-4.46a3.26,3.26,0,0,0-3.81,2.56l-2.41,12.45a3.25,3.25,0,0,0,2.57,3.8Z"/><path class="cls-7" d="M45.22,107.5l-21.49-4.17A4.88,4.88,0,0,1,19.81,98l6.72-57.89a1.78,1.78,0,0,1,2.12-1.55l35.06,6.8a1.57,1.57,0,0,1,1.22,1.94L49.83,104.6A4,4,0,0,1,45.22,107.5Z"/><path class="cls-8" d="M46,108.09a4.19,4.19,0,0,1-.86-.09l-21.49-4.17a5.42,5.42,0,0,1-4.34-5.92L26,40a2.29,2.29,0,0,1,2.72-2l35.07,6.8a2.11,2.11,0,0,1,1.37.94,2.14,2.14,0,0,1,.25,1.64l-15.1,57.33A4.51,4.51,0,0,1,46,108.09ZM28.3,39a1.24,1.24,0,0,0-.74.25,1.28,1.28,0,0,0-.52.88L20.32,98a4.39,4.39,0,0,0,3.51,4.79L45.32,107h0a3.48,3.48,0,0,0,4-2.52l15.1-57.33a1.09,1.09,0,0,0-.13-.83,1,1,0,0,0-.69-.47L28.55,39Z"/><path class="cls-15" d="M41.16,91a2.22,2.22,0,0,1-.56-.11,2.13,2.13,0,0,1-1.31-2.7L59.67,29.54a9.42,9.42,0,0,1,5.86-5.86L78,19.36a2.12,2.12,0,0,1,1.39,4L66.92,27.68a5.24,5.24,0,0,0-3.25,3.25L43.3,89.56A2.12,2.12,0,0,1,41.16,91Z"/><path class="cls-8" d="M41.3,91.5h-.17a2.82,2.82,0,0,1-.7-.15A2.63,2.63,0,0,1,38.8,88L59.18,29.37a9.93,9.93,0,0,1,6.18-6.18l12.43-4.32a2.64,2.64,0,0,1,1.73,5L67.09,28.17a4.74,4.74,0,0,0-2.93,2.93L43.79,89.73A2.65,2.65,0,0,1,41.3,91.5ZM78.65,19.76a1.58,1.58,0,0,0-.52.09L65.7,24.17a8.91,8.91,0,0,0-5.55,5.54L39.78,88.34a1.6,1.6,0,0,0,1,2,2.07,2.07,0,0,0,.42.08,1.61,1.61,0,0,0,1.62-1.07L63.18,30.76a5.8,5.8,0,0,1,3.57-3.57l12.43-4.31a1.6,1.6,0,0,0-.53-3.12Z"/><polygon class="cls-9" points="42.64 48 38.33 53.43 46.75 56.47 50.94 50.78 42.64 48"/><path class="cls-8" d="M46.75,56.85a.3.3,0,0,1-.13,0l-8.42-3a.43.43,0,0,1-.25-.26.44.44,0,0,1,.07-.35l4.31-5.43a.4.4,0,0,1,.43-.13l8.3,2.78a.39.39,0,0,1,.25.25.43.43,0,0,1-.06.35L47.06,56.7A.37.37,0,0,1,46.75,56.85ZM39,53.25,46.61,56l3.7-5-7.54-2.53Z"/><polygon class="cls-9" points="38.33 53.49 39.76 60.56 48.08 63.14 46.75 56.47 38.33 53.49"/><path class="cls-8" d="M48.08,63.53l-.12,0-8.31-2.58a.4.4,0,0,1-.27-.29l-1.44-7.07a.39.39,0,0,1,.13-.37.38.38,0,0,1,.38-.07l8.43,3a.41.41,0,0,1,.25.29l1.33,6.68a.4.4,0,0,1-.12.36A.39.39,0,0,1,48.08,63.53Zm-8-3.27,7.47,2.32-1.16-5.82-7.57-2.67Z"/><polygon class="cls-16" points="38.33 53.49 39.76 60.56 48.08 63.14 46.75 56.47 38.33 53.49"/><path class="cls-8" d="M48.08,63.4H48l-8.31-2.58a.28.28,0,0,1-.18-.2l-1.44-7.06a.24.24,0,0,1,.09-.25.25.25,0,0,1,.25,0l8.43,3a.25.25,0,0,1,.16.2l1.33,6.67a.24.24,0,0,1-.08.24A.23.23,0,0,1,48.08,63.4Zm-8.09-3,7.75,2.41-1.22-6.11-7.85-2.77Z"/><polygon class="cls-17" points="50.94 50.78 52.36 57.76 48.08 63.14 46.75 56.47 50.94 50.78"/><path class="cls-8" d="M48.08,63.53H48a.4.4,0,0,1-.29-.3l-1.32-6.68a.35.35,0,0,1,.07-.3l4.18-5.69a.41.41,0,0,1,.4-.15.39.39,0,0,1,.3.3l1.42,7a.4.4,0,0,1-.08.32l-4.28,5.38A.38.38,0,0,1,48.08,63.53Zm-.92-7,1.13,5.68,3.65-4.58-1.21-5.95Z"/><path class="cls-18" d="M44.42,53.26a.8.8,0,0,1-.3-.06.83.83,0,0,1-.47-1.08A.26.26,0,0,1,44,52a.27.27,0,0,1,.15.34.32.32,0,1,0,.59.23.26.26,0,0,1,.33-.15.27.27,0,0,1,.15.34.83.83,0,0,1-.44.46A.8.8,0,0,1,44.42,53.26Z"/><path class="cls-18" d="M43.19,51.24a.4.4,0,0,1-.51.23.39.39,0,1,1,.29-.73A.38.38,0,0,1,43.19,51.24Z"/><path class="cls-18" d="M46.79,52.66a.38.38,0,0,1-.5.22.39.39,0,0,1-.22-.51.38.38,0,0,1,.5-.22A.39.39,0,0,1,46.79,52.66Z"/><polygon class="cls-9" points="40.49 74.21 39.52 66.82 30.89 71.05 32.14 78.53 40.49 74.21"/><path class="cls-8" d="M32.14,78.91a.33.33,0,0,1-.17,0,.38.38,0,0,1-.21-.28l-1.25-7.48a.37.37,0,0,1,.21-.41l8.63-4.22a.38.38,0,0,1,.36,0,.4.4,0,0,1,.2.29l1,7.39a.37.37,0,0,1-.2.39l-8.35,4.32A.39.39,0,0,1,32.14,78.91Zm-.82-7.64,1.12,6.67,7.63-4-.86-6.58Z"/><polygon class="cls-17" points="39.48 66.78 32.95 62.6 24.75 67.08 30.89 71.05 39.48 66.78"/><path class="cls-8" d="M30.89,71.44a.33.33,0,0,1-.21-.07l-6.14-4a.43.43,0,0,1-.18-.34.42.42,0,0,1,.21-.33l8.2-4.48a.39.39,0,0,1,.39,0l6.53,4.17a.39.39,0,0,1,.17.35.37.37,0,0,1-.21.32L31.06,71.4A.47.47,0,0,1,30.89,71.44Zm-5.38-4.33,5.4,3.49,7.78-3.87-5.75-3.67Z"/><polygon class="cls-9" points="32.14 78.53 25.7 74.41 24.75 67.08 30.89 71.05 32.14 78.53"/><path class="cls-8" d="M32.14,78.91a.42.42,0,0,1-.21-.06l-6.44-4.12a.39.39,0,0,1-.18-.28l-.94-7.32a.38.38,0,0,1,.59-.38l6.14,4a.41.41,0,0,1,.17.26l1.26,7.48a.4.4,0,0,1-.17.39A.43.43,0,0,1,32.14,78.91Zm-6.08-4.73,5.56,3.55-1.09-6.45-5.29-3.42Z"/><polygon class="cls-16" points="32.14 78.53 25.7 74.41 24.75 67.08 30.89 71.05 32.14 78.53"/><path class="cls-8" d="M32.14,78.79a.27.27,0,0,1-.14-.05l-6.44-4.12a.25.25,0,0,1-.12-.18l-1-7.33a.26.26,0,0,1,.4-.25l6.14,4a.25.25,0,0,1,.11.18l1.26,7.47a.28.28,0,0,1-.11.26A.3.3,0,0,1,32.14,78.79Zm-6.2-4.54L31.79,78,30.65,71.2l-5.57-3.6Z"/><path class="cls-18" d="M36,73.56a.84.84,0,0,1-.77-.51.27.27,0,0,1,.14-.34.25.25,0,0,1,.34.14.35.35,0,0,0,.17.17.33.33,0,0,0,.41-.18.33.33,0,0,0,0-.24.26.26,0,0,1,.14-.34.25.25,0,0,1,.34.14.84.84,0,0,1-.45,1.09A.88.88,0,0,1,36,73.56Z"/><path class="cls-18" d="M34.28,72.74a.4.4,0,0,1-.21.52.39.39,0,1,1-.3-.72A.39.39,0,0,1,34.28,72.74Z"/><path class="cls-18" d="M37.85,71.23a.39.39,0,0,1-.72.3.38.38,0,0,1,.2-.51A.4.4,0,0,1,37.85,71.23Z"/><rect class="cls-9" x="32.35" y="87.97" width="10.3" height="10.3" transform="translate(55.24 -5.69) rotate(32.11)"/><path class="cls-8" d="M39.13,100.61a.41.41,0,0,1-.21,0l-8.73-5.48a.4.4,0,0,1-.12-.54l5.48-8.72a.38.38,0,0,1,.53-.12l8.73,5.47a.39.39,0,0,1,.12.54l-5.47,8.72A.39.39,0,0,1,39.13,100.61Zm-8.19-6L39,99.69l5.06-8.07L36,86.56Z"/><polygon class="cls-17" points="35.88 86.02 40.45 85.27 49.23 91.18 44.6 91.5 35.88 86.02"/><path class="cls-8" d="M44.6,91.89a.36.36,0,0,1-.2-.06l-8.73-5.48a.36.36,0,0,1-.17-.4.38.38,0,0,1,.31-.31l4.57-.75a.35.35,0,0,1,.28.06l8.78,5.9a.41.41,0,0,1,.16.43.37.37,0,0,1-.35.28l-4.62.33ZM37,86.24,44.7,91.1l3.37-.23-7.71-5.19Z"/><polygon class="cls-9" points="49.23 91.18 43.72 99.85 39.1 100.35 44.6 91.5 49.23 91.18"/><path class="cls-8" d="M39.1,100.74a.41.41,0,0,1-.33-.18.38.38,0,0,1,0-.41l5.5-8.85a.4.4,0,0,1,.31-.19l4.62-.32a.38.38,0,0,1,.35.59l-5.5,8.68a.41.41,0,0,1-.29.18l-4.62.5Zm5.73-8.87-5,8,3.64-.4,5-7.86Z"/><rect class="cls-9" x="32.35" y="87.97" width="10.3" height="10.3" transform="translate(55.24 -5.69) rotate(32.11)"/><path class="cls-8" d="M39.13,100.61a.41.41,0,0,1-.21,0l-8.73-5.48a.4.4,0,0,1-.12-.54l5.48-8.72a.38.38,0,0,1,.53-.12l8.73,5.47a.39.39,0,0,1,.12.54l-5.47,8.72A.39.39,0,0,1,39.13,100.61Zm-8.19-6L39,99.69l5.06-8.07L36,86.56Z"/><path class="cls-18" d="M37.58,94.07a1,1,0,0,1-.48-.14.92.92,0,0,1-.31-1.27.26.26,0,1,1,.44.27.41.41,0,0,0,.14.56.42.42,0,0,0,.31.05.41.41,0,0,0,.25-.19.26.26,0,1,1,.45.27A1,1,0,0,1,37.58,94.07Z"/><path class="cls-18" d="M36.4,91.54a.46.46,0,0,1-.63.16.46.46,0,0,1,.48-.78A.45.45,0,0,1,36.4,91.54Z"/><path class="cls-18" d="M40.25,93.87a.45.45,0,0,1-.62.16.46.46,0,0,1-.16-.63.46.46,0,0,1,.63-.15A.45.45,0,0,1,40.25,93.87Z"/><polygon class="cls-9" points="49.23 91.18 43.72 99.85 39.1 100.35 44.6 91.5 49.23 91.18"/><path class="cls-8" d="M39.1,100.74a.41.41,0,0,1-.33-.18.38.38,0,0,1,0-.41l5.5-8.85a.4.4,0,0,1,.31-.19l4.62-.32a.38.38,0,0,1,.35.59l-5.5,8.68a.41.41,0,0,1-.29.18l-4.62.5Zm5.73-8.87-5,8,3.64-.4,5-7.86Z"/><polygon class="cls-19" points="49.23 91.18 43.72 99.85 39.1 100.35 44.6 91.5 49.23 91.18"/><path class="cls-8" d="M39.1,100.61a.27.27,0,0,1-.22-.12.28.28,0,0,1,0-.28l5.5-8.85a.28.28,0,0,1,.21-.12l4.62-.32a.26.26,0,0,1,.24.12.26.26,0,0,1,0,.28L43.94,100a.25.25,0,0,1-.19.12l-4.62.5Zm5.65-8.86L39.6,100l4-.43,5.16-8.14Z"/><path class="cls-6" d="M29,57.49a.61.61,0,0,0,.67.53.6.6,0,0,0-.14-1.19A.6.6,0,0,0,29,57.49Z"/><path class="cls-6" d="M48.41,45.91a.6.6,0,0,0,.66.53.61.61,0,0,0,.53-.67.6.6,0,0,0-.66-.53A.61.61,0,0,0,48.41,45.91Z"/><path class="cls-6" d="M27.36,85.62a.6.6,0,0,0,1.2-.14.6.6,0,0,0-.67-.52A.59.59,0,0,0,27.36,85.62Z"/><path class="cls-6" d="M51.34,79.53a.6.6,0,0,0,.67.52.58.58,0,0,0,.52-.66.59.59,0,0,0-.66-.53A.61.61,0,0,0,51.34,79.53Z"/></g></g></svg>