<svg xmlns="http://www.w3.org/2000/svg" xmlns:xlink="http://www.w3.org/1999/xlink" viewBox="0 0 93.19 92.82"><defs><style>.cls-1{fill:none;}.cls-2{fill:#ff7b77;}.cls-3{fill:#4f22f2;}.cls-4{fill:url(#Unnamed_Pattern_8);}.cls-5{fill:#fefefe;}.cls-6{fill:#f98308;}.cls-7{fill:#3e09b2;}.cls-8{fill:#f6b707;}.cls-9{fill:#f85c09;}.cls-10{fill:#fff;}.cls-11{fill:url(#Unnamed_Pattern_6);}</style><pattern id="Unnamed_Pattern_8" data-name="Unnamed Pattern 8" width="54.16" height="92.59" patternTransform="matrix(-0.14, 0, 0, 0.13, -74.19, -35.13)" patternUnits="userSpaceOnUse" viewBox="0 0 54.16 92.59"><rect class="cls-1" width="54.16" height="92.59"/><polygon class="cls-3" points="33.38 76.69 36.59 73.47 46.11 82.99 42.9 86.2 33.38 76.69"/><polygon class="cls-3" points="12.7 76.69 15.91 79.91 6.4 89.42 3.19 86.21 12.7 76.69"/><polygon class="cls-3" points="26.42 90.11 29.64 93.32 20.12 102.83 16.91 99.62 26.42 90.11"/><polygon class="cls-3" points="23.43 57.21 26.64 54 36.15 63.52 32.94 66.73 23.43 57.21"/><polygon class="cls-3" points="6.3 30.39 9.51 27.18 19.03 36.69 15.81 39.9 6.3 30.39"/><polygon class="cls-3" points="39.78 30.39 42.99 33.61 33.48 43.12 30.27 39.91 39.78 30.39"/><polygon class="cls-3" points="53.5 43.81 56.72 47.02 47.2 56.53 43.99 53.32 53.5 43.81"/><polygon class="cls-3" points="10.22 56.01 13.44 59.22 3.92 68.74 0.71 65.53 10.22 56.01"/><polygon class="cls-3" points="-0.66 43.81 2.56 47.02 -6.96 56.53 -10.17 53.32 -0.66 43.81"/><polygon class="cls-3" points="50.51 10.92 53.72 7.7 63.23 17.22 60.02 20.43 50.51 10.92"/><polygon class="cls-3" points="37.3 9.71 40.52 12.93 31 22.44 27.79 19.23 37.3 9.71"/><polygon class="cls-3" points="-3.65 10.92 -0.44 7.7 9.07 17.22 5.86 20.43 -3.65 10.92"/><polygon class="cls-3" points="26.42 -2.49 29.64 0.72 20.12 10.24 16.91 7.03 26.42 -2.49"/></pattern><pattern id="Unnamed_Pattern_6" data-name="Unnamed Pattern 6" width="61.87" height="60.53" patternTransform="matrix(0.38, 0.06, -0.06, 0.34, 161.84, -412.3)" patternUnits="userSpaceOnUse" viewBox="0 0 61.87 60.53"><rect class="cls-1" width="61.87" height="60.53"/><path class="cls-2" d="M78.47,63.36l-1-3.67a.55.55,0,0,0-.7-.39l-9.76,3a.55.55,0,0,0-.39.52l-.1,7.86a.56.56,0,0,1-.38.51l-6.25,2.16a.56.56,0,0,0-.36.67l1.08,4.2a.55.55,0,0,0,.72.38l10.07-3.39a.54.54,0,0,0,.38-.55l-.38-7.41a.54.54,0,0,1,.33-.54L78.15,64A.55.55,0,0,0,78.47,63.36Z"/><path class="cls-2" d="M16.6,63.36l-1-3.67a.55.55,0,0,0-.7-.39l-9.76,3a.55.55,0,0,0-.39.52l-.1,7.86a.56.56,0,0,1-.38.51L-2,73.37a.56.56,0,0,0-.36.67l1.08,4.2a.55.55,0,0,0,.72.38L9.51,75.23a.54.54,0,0,0,.37-.55L9.5,67.27a.53.53,0,0,1,.34-.54L16.28,64A.54.54,0,0,0,16.6,63.36Z"/><path class="cls-2" d="M78.47,2.83l-1-3.67a.55.55,0,0,0-.7-.38L67,1.79a.55.55,0,0,0-.39.52l-.1,7.86a.56.56,0,0,1-.38.51l-6.25,2.16a.56.56,0,0,0-.36.67l1.08,4.2a.55.55,0,0,0,.72.38L71.37,14.7a.54.54,0,0,0,.38-.55l-.38-7.41a.55.55,0,0,1,.33-.54l6.45-2.7A.57.57,0,0,0,78.47,2.83Z"/><path class="cls-2" d="M45.85,17.3l1.5-3.51a.57.57,0,0,0-.31-.74L37.53,9.31a.56.56,0,0,0-.63.17l-5,6.07a.58.58,0,0,1-.62.17L25.06,13.5a.55.55,0,0,0-.69.29l-1.77,4a.55.55,0,0,0,.31.75l10,3.64a.55.55,0,0,0,.64-.19l4.33-6a.54.54,0,0,1,.6-.21l6.72,1.91A.55.55,0,0,0,45.85,17.3Z"/><path class="cls-2" d="M42.92,54.53l3.2-2.08a.55.55,0,0,0,.16-.78L40.5,43.25a.56.56,0,0,0-.62-.22l-7.53,2.24a.57.57,0,0,1-.6-.2l-3.93-5.33a.54.54,0,0,0-.73-.15L23.4,41.87a.55.55,0,0,0-.16.8l6.23,8.62a.56.56,0,0,0,.65.19l7-2.57a.54.54,0,0,1,.61.16l4.5,5.35A.57.57,0,0,0,42.92,54.53Z"/><path class="cls-2" d="M60.2,47.08l3.7,1a.56.56,0,0,0,.68-.41l2.29-10a.54.54,0,0,0-.25-.6l-6.74-4a.57.57,0,0,1-.26-.59L60.9,26a.56.56,0,0,0-.4-.64l-4.17-1.18a.57.57,0,0,0-.7.43L53.5,35a.56.56,0,0,0,.29.61L60.39,39a.54.54,0,0,1,.3.56l-.9,6.93A.55.55,0,0,0,60.2,47.08Z"/><path class="cls-2" d="M16.6,2.83l-1-3.67a.55.55,0,0,0-.7-.38l-9.76,3a.55.55,0,0,0-.39.52l-.1,7.86a.56.56,0,0,1-.38.51L-2,12.84a.56.56,0,0,0-.36.67l1.08,4.2a.55.55,0,0,0,.72.38L9.51,14.7a.54.54,0,0,0,.37-.55L9.5,6.74a.54.54,0,0,1,.34-.54l6.44-2.7A.56.56,0,0,0,16.6,2.83Z"/><path class="cls-2" d="M-1.67,47.08,2,48a.56.56,0,0,0,.68-.41l2.3-10a.56.56,0,0,0-.26-.6L-2,33a.57.57,0,0,1-.26-.59L-1,26a.56.56,0,0,0-.4-.64l-4.17-1.18a.56.56,0,0,0-.69.43L-8.37,35a.56.56,0,0,0,.29.61L-1.48,39a.54.54,0,0,1,.3.56l-.9,6.93A.55.55,0,0,0-1.67,47.08Z"/></pattern></defs><g id="Layer_2" data-name="Layer 2"><g id="OBJECTS"><path class="cls-4" d="M51.4,48.92h0a2.85,2.85,0,0,1,1.86,1.58l-4.34-1.12a2.91,2.91,0,0,1,2.46-.47m.92-3.42a6.41,6.41,0,0,0-5.49,1A3.54,3.54,0,0,0,48,52.81h0l4.35,1.12A3.53,3.53,0,0,0,56.5,49a6.37,6.37,0,0,0-4.15-3.53Z"/><path class="cls-5" d="M25.66,3.33A5.45,5.45,0,0,1,28,4.2,5.21,5.21,0,0,1,30.23,9a.94.94,0,0,1,0,.29c-.84,5.81-1.69,11.67-1.36,17.6a46.58,46.58,0,0,0,2.6,12.76l.23,0a2.91,2.91,0,0,1,.63.16A2.87,2.87,0,0,1,34,41.63l-2.13-.78a47.18,47.18,0,0,0,2.39,5.28,18.63,18.63,0,0,1,1.5,1.3,12.18,12.18,0,0,0,2.3,2.13,8.72,8.72,0,0,0,2.94,1l.26,0A16.16,16.16,0,0,0,45.08,50a23,23,0,0,1,6.31,0c.7.09,1.39.21,2.08.35,4.13.84,8,2.49,12,3.92a3.09,3.09,0,0,1,.8.38c.71.52.44,1.46.22,2.17a2.9,2.9,0,0,1-.53,1.07c-.49.52-1.25.6-1.81,1a5.6,5.6,0,0,0-1.81,2.75,16.89,16.89,0,0,1-1.85,3.45c2.29.48,4.59.89,6.86,1.31q9.8,1.86,19.46,4.59a5.33,5.33,0,0,1,2.08,1,3.56,3.56,0,0,1,.68,4.08c-.07.15-.15.3-.23.44h0a9.35,9.35,0,0,1-2.71,2.64,55.77,55.77,0,0,1-21.68,9.32h0a56.59,56.59,0,0,1-7.68,1h0l-1.51.07h-.06l-1.46,0h-.1l-1.42,0h-.15l-1.37,0H51l-1.31-.08-.25,0-1.25-.12-.32,0-1.19-.14-.34,0h0l-1.15-.17-.41-.06-1.09-.2-.45-.08L42,88.27l-.41-.09c-.51-.11-1-.24-1.53-.37l-1.16-.31-.24-.07-.93-.27-.2-.06-1-.31-.14-.05c-.34-.12-.68-.23-1-.36l-.08,0L34.28,86h0c-1.15-.43-2.27-.91-3.39-1.43h0C22.34,80.52,14.78,74.22,10.1,66a48.5,48.5,0,0,1-3.61-8.06A57.26,57.26,0,0,1,3.57,45.07h0c-.15-1.4-.24-2.81-.27-4.21v-.11c0-.45,0-.9,0-1.35v0c0-.93,0-1.85.09-2.77a.71.71,0,0,0,0-.14c0-.4.06-.79.1-1.19a1.64,1.64,0,0,1,0-.22c0-.41.08-.82.13-1.23a.28.28,0,0,1,0-.09c.06-.46.12-.91.19-1.36v-.05c.06-.41.13-.81.2-1.21l.06-.31c.07-.33.13-.65.2-1,0-.11,0-.22.08-.33.08-.37.17-.74.26-1.11,0-.05,0-.1,0-.14.1-.42.22-.83.34-1.24l.09-.3c.09-.31.19-.61.29-.92,0-.13.08-.26.13-.39.09-.29.19-.57.3-.86,0-.12.08-.24.13-.36.15-.4.3-.79.46-1.18s.27-.68.41-1L7,21.67l.33-.73.15-.31c.15-.31.3-.61.46-.91a34.16,34.16,0,0,1,6-8.13c1.7-1.82,3.54-3.52,5.32-5.27a19.94,19.94,0,0,1,1.87-1.69A6.32,6.32,0,0,1,24.47,3.3a5.9,5.9,0,0,1,1.19,0M40.74,55.38a2.85,2.85,0,0,0-.65-1.71,2.56,2.56,0,0,0-1.54-.89c.69.9,1.42,1.77,2.19,2.6M26.09.08h0a9,9,0,0,0-1.87,0,9.53,9.53,0,0,0-5.09,2,23,23,0,0,0-2.19,2L15.35,5.52C14.1,6.73,12.79,8,11.55,9.32A37.29,37.29,0,0,0,5,18.2c-.16.32-.33.64-.5,1l-.14.29,0,.06c-.12.27-.25.54-.36.81l0,.08-.11.27c-.17.4-.32.75-.44,1.09s-.31.78-.48,1.23c0,.09-.07.19-.11.29l0,.1c-.11.31-.22.62-.32.93,0,.14-.1.28-.14.42-.11.33-.21.66-.31,1l0,.11a1.87,1.87,0,0,0-.07.22c-.13.46-.26.91-.37,1.34l0,.12v0c-.1.39-.19.79-.28,1.2a2.86,2.86,0,0,0-.07.28v.08c-.08.34-.15.69-.22,1v.08c0,.09,0,.18-.05.26-.09.46-.16.88-.22,1.3v.06c-.08.47-.15,1-.21,1.45v.09c0,.43-.1.87-.14,1.32l0,.2V35c0,.42-.07.85-.1,1.26v.16c-.06,1-.09,2-.1,3v0c0,.45,0,.93,0,1.42v.12c0,1.48.13,3,.29,4.48A60.43,60.43,0,0,0,3.39,59a52.18,52.18,0,0,0,3.86,8.6A49.74,49.74,0,0,0,29.48,87.48c1.18.55,2.39,1.06,3.6,1.53h0l1.15.42.09,0,1.08.38h0l.11,0,1,.33.06,0,.15,0,1,.29.07,0,.18,0,1.23.33c.54.14,1.08.27,1.63.39l.29.06.14,0,1.2.26.31,0,.16,0h0l1.13.2.3,0,.14,0,1.21.18h0l.22,0,.13,0c.4.05.83.11,1.26.15l.23,0h.11l1.32.12h.27l1.38.09H51l1.44,0h.16l1.5,0h.1l1.56,0h.07c.52,0,1.06,0,1.58-.07h0a59.82,59.82,0,0,0,8.1-1,59.12,59.12,0,0,0,23-9.88A12.51,12.51,0,0,0,92,78.38l.14-.22a7.59,7.59,0,0,0,.39-.74A6.77,6.77,0,0,0,91,69.48a8.23,8.23,0,0,0-3.33-1.61c-6.5-1.85-13.14-3.41-19.74-4.66l-1.84-.34-.68-.13a4.87,4.87,0,0,1,.55-1.1l.17-.07a5.29,5.29,0,0,0,3.45-3.72c1-3.2-.19-4.92-1.4-5.81a6.22,6.22,0,0,0-1.63-.83c-.81-.29-1.65-.6-2.45-.91a66.51,66.51,0,0,0-10-3.14c-.77-.16-1.54-.29-2.3-.39a26.72,26.72,0,0,0-7.2,0,14.4,14.4,0,0,0-1.62.33,5.06,5.06,0,0,1-1.41.22h-.13a5.65,5.65,0,0,1-1.81-.62,6.74,6.74,0,0,1-.82-.81c-.24-.25-.48-.51-.75-.78s-.75-.7-1.19-1.07c-.08-.14-.15-.29-.22-.43a3.26,3.26,0,0,0,.46-3A6.13,6.13,0,0,0,34,37a42.35,42.35,0,0,1-1.89-10.29c-.32-5.63.52-11.38,1.33-16.95a3.7,3.7,0,0,0,0-.75,8.54,8.54,0,0,0-3.71-7.57A8.72,8.72,0,0,0,26.09.08Z"/><path class="cls-5" d="M52.73,46.1a2.7,2.7,0,0,1,.39.08A2.85,2.85,0,0,1,55,47.76l-4.34-1.12a2.9,2.9,0,0,1,2.09-.54m.44-3.25A6.12,6.12,0,0,0,48.69,44a3.28,3.28,0,0,0,1.13,5.81l4.34,1.12.39.08a3.31,3.31,0,0,0,3-1.15A3.27,3.27,0,0,0,58,46.4,6.16,6.16,0,0,0,54,43a5.8,5.8,0,0,0-.81-.16Z"/><path class="cls-6" d="M6.42,23C2,33.78,2.48,46.51,6.49,57.94A48.5,48.5,0,0,0,10.1,66C16.42,77.09,28,84.7,40.1,87.81a56.45,56.45,0,0,0,46.5-8.68,8.39,8.39,0,0,0,2.94-3.07A3.55,3.55,0,0,0,88.87,72,5.29,5.29,0,0,0,86.78,71C80.91,69.39,74.94,68,68.93,66.78c-5.64-1.11-11.4-2-16.78-3.86A29.15,29.15,0,0,1,44,58.69a32.56,32.56,0,0,1-6.35-6.75A47.21,47.21,0,0,1,28.78,27c-.32-6,.56-11.83,1.43-17.66.19-1.29-1.79-1.95-2.42-3.22-.8-1.6-.77-2-2.14-1.58-3.16,1-4.58,1.28-7.25,3.21A34.28,34.28,0,0,0,6.42,23Z"/><path class="cls-7" d="M46.42,89.46A56.4,56.4,0,0,1,40,88.21c-13-3.33-24.3-11.55-30.26-22A49.73,49.73,0,0,1,6.1,58.08C1.84,45.93,1.82,33.09,6,22.85A34.87,34.87,0,0,1,18.16,7.42a17.56,17.56,0,0,1,6.07-2.85l1.29-.41c1.48-.48,1.78,0,2.37,1.25l.27.54a4.4,4.4,0,0,0,1.12,1.22c.73.62,1.48,1.26,1.33,2.25-.85,5.72-1.74,11.64-1.42,17.57A46.87,46.87,0,0,0,38,51.7a32.1,32.1,0,0,0,6.27,6.66,28.5,28.5,0,0,0,8,4.17,87.35,87.35,0,0,0,13.28,3.19c1.15.22,2.3.43,3.44.66,6,1.18,12,2.61,17.88,4.25a5.68,5.68,0,0,1,2.25,1,4,4,0,0,1,.77,4.57,8.84,8.84,0,0,1-3.07,3.23A56.94,56.94,0,0,1,46.42,89.46Zm-20-84.67a1.9,1.9,0,0,0-.68.15l-1.3.41a16.68,16.68,0,0,0-5.84,2.74A33.88,33.88,0,0,0,6.81,23.15h0c-4.15,10.05-4.12,22.68.08,34.65a47.67,47.67,0,0,0,3.58,8c5.85,10.26,17,18.34,29.74,21.62A56.12,56.12,0,0,0,86.37,78.8a8,8,0,0,0,2.79-2.91,3.14,3.14,0,0,0-.56-3.61,5,5,0,0,0-1.93-.86c-5.84-1.63-11.84-3.06-17.82-4.24l-3.43-.65A89,89,0,0,1,52,63.3,29.29,29.29,0,0,1,43.79,59a32.7,32.7,0,0,1-6.43-6.83,47.63,47.63,0,0,1-9-25.15c-.32-6,.57-12,1.43-17.74.07-.49-.35-.89-1.05-1.49a5.12,5.12,0,0,1-1.33-1.49l-.27-.55C26.83,5.08,26.71,4.82,26.46,4.79ZM6.42,23h0Z"/><path class="cls-7" d="M59.24,82.63a9.25,9.25,0,0,0-7.91.77,13.22,13.22,0,0,0-20.46,1.11,52.67,52.67,0,0,0,9.23,3.3,56.28,56.28,0,0,0,24.82.64A9.29,9.29,0,0,0,59.24,82.63Z"/><path class="cls-7" d="M46.38,89.45A54.46,54.46,0,0,1,40,88.21a52.91,52.91,0,0,1-9.3-3.33l-.45-.21.29-.41a13.66,13.66,0,0,1,20.87-1.38A9.69,9.69,0,0,1,65.3,88.32l.15.44-.45.09A57.41,57.41,0,0,1,46.38,89.45Zm-14.87-5.1a52.51,52.51,0,0,0,8.69,3.07,56.08,56.08,0,0,0,24.17.72A8.83,8.83,0,0,0,59.1,83h0a8.82,8.82,0,0,0-7.56.73l-.29.17L51,83.67a12.74,12.74,0,0,0-5.14-3.42A12.91,12.91,0,0,0,31.51,84.35Z"/><path class="cls-7" d="M8,38.54a4.88,4.88,0,0,0-.13-.78,9.76,9.76,0,0,0,1.71-.86,5,5,0,0,0,2.06-3.48,11.55,11.55,0,0,0-.23-3.66A46.59,46.59,0,0,0,10,24,15.59,15.59,0,0,0,9,21.2c-.14-.25-1.21-1.32-1.08-1.56A28.12,28.12,0,0,0,6.42,23,45.38,45.38,0,0,0,3.57,45.07,6.19,6.19,0,0,0,8,38.54Z"/><path class="cls-7" d="M3.52,45.48a.45.45,0,0,1-.18-.07.41.41,0,0,1-.18-.29A46,46,0,0,1,6,22.84a29.88,29.88,0,0,1,1.54-3.39.4.4,0,0,1,.55-.17.42.42,0,0,1,.22.39,6.7,6.7,0,0,0,.63.82,3.27,3.27,0,0,1,.4.52,11.26,11.26,0,0,1,.84,2.23c.06.23.13.45.2.66a47.82,47.82,0,0,1,1.43,5.78,12.09,12.09,0,0,1,.24,3.8,5.53,5.53,0,0,1-2.23,3.75,11.1,11.1,0,0,1-1.47.8,4,4,0,0,1,.06.47h0a6.63,6.63,0,0,1-4.77,7A.43.43,0,0,1,3.52,45.48ZM7.94,20.53a28.35,28.35,0,0,0-1.13,2.62A45,45,0,0,0,3.93,44.52a5.79,5.79,0,0,0,3.7-6h0a4.31,4.31,0,0,0-.12-.72h0a.4.4,0,0,1,.32-.48h.08c.28-.12,1.31-.68,1.47-.78a4.59,4.59,0,0,0,1.89-3.2,11.22,11.22,0,0,0-.22-3.54,45.79,45.79,0,0,0-1.42-5.68c-.07-.22-.13-.44-.2-.68a10.79,10.79,0,0,0-.76-2.07L8.35,21Zm.36-.7Z"/><path class="cls-8" d="M23.88,10C19.22,21.43,15.74,33.9,20,46a52.73,52.73,0,0,0,3.84,8.54C30.58,66.28,42.8,74.38,55.63,77.71a59.44,59.44,0,0,0,33.69-1.22c.08-.14.16-.29.23-.44A3.56,3.56,0,0,0,88.87,72a5.33,5.33,0,0,0-2.08-1q-9.65-2.73-19.46-4.59c-8-1.51-16.52-2.76-23.14-7.86a32.88,32.88,0,0,1-6.36-6.75,47.45,47.45,0,0,1-9-24.89c-.33-5.93.52-11.79,1.36-17.6.19-1.29-1.78-1.95-2.41-3.22-.8-1.6-.78-2-2.14-1.58l-2,.64C23.94,6.82,24.44,8.56,23.88,10Z"/><path class="cls-7" d="M62.58,79.39a60.21,60.21,0,0,1-7-1.38C41.86,74.45,29.91,65.73,23.6,54.69a51.77,51.77,0,0,1-3.87-8.59c-4.47-12.64-.55-25.37,3.87-36.17A7.58,7.58,0,0,0,23.48,6c-.05-.26-.1-.51-.14-.77a.31.31,0,0,1,.21-.35l.75-.23,1.29-.41c1.44-.46,1.69.06,2.24,1.2.07.16.16.34.26.54a4.67,4.67,0,0,0,1.15,1.26c.71.6,1.43,1.22,1.3,2.15-.83,5.7-1.69,11.61-1.36,17.53a47.14,47.14,0,0,0,8.9,24.73,32,32,0,0,0,6.29,6.68c6,4.66,13.7,6.08,21.1,7.45l1.92.36c6.51,1.23,13.07,2.78,19.48,4.6a5.63,5.63,0,0,1,2.2,1,3.85,3.85,0,0,1,.76,4.45c-.07.15-.15.3-.25.47a.31.31,0,0,1-.17.13A59.87,59.87,0,0,1,62.58,79.39ZM24,5.38c0,.16.07.33.1.49a8,8,0,0,1,.08,4.28h0c-4.38,10.69-8.26,23.29-3.86,35.74a50.93,50.93,0,0,0,3.82,8.49c6.24,10.9,18,19.51,31.58,23a59,59,0,0,0,33.4-1.18c.06-.11.11-.21.16-.32a3.28,3.28,0,0,0-.6-3.72,5.11,5.11,0,0,0-2-.88C80.31,69.51,73.77,68,67.27,66.74l-1.91-.36C57.88,65,50.15,63.56,44,58.81A32.25,32.25,0,0,1,37.59,52a47.77,47.77,0,0,1-9-25c-.34-6,.52-11.92,1.36-17.66.08-.59-.46-1.06-1.09-1.59a5.12,5.12,0,0,1-1.3-1.45l-.27-.55c-.54-1.14-.56-1.18-1.5-.88l-1.29.41ZM23.88,10h0Z"/><path class="cls-7" d="M29.7,12.14c.13-.81.28-1.63.44-2.45A5.27,5.27,0,0,0,28,4.2a5.51,5.51,0,0,0-3.51-.9,6.32,6.32,0,0,0-3.36,1.33,19.94,19.94,0,0,0-1.87,1.69c-1.81,1.78-3.69,3.51-5.42,5.38l8.58,2.53Z"/><path class="cls-7" d="M22.34,14.64h-.06L13.7,12.09a.41.41,0,0,1-.28-.29.39.39,0,0,1,.1-.38c1.22-1.32,2.54-2.59,3.81-3.82L19,6A20,20,0,0,1,20.87,4.3a6.66,6.66,0,0,1,3.57-1.41,6,6,0,0,1,3.77,1,5.74,5.74,0,0,1,2.34,5.91c-.16.79-.31,1.61-.45,2.44a.4.4,0,0,1-.29.32l-7.3,2.1A.49.49,0,0,1,22.34,14.64Zm-7.77-3.15,7.83,2.32,6.94-2c.12-.75.26-1.49.4-2.21a4.84,4.84,0,0,0-2-5.07,5.1,5.1,0,0,0-3.25-.83A5.92,5.92,0,0,0,21.36,5a20.6,20.6,0,0,0-1.83,1.66L17.9,8.19C16.79,9.26,15.65,10.36,14.57,11.49Zm15.13.65Z"/><path class="cls-7" d="M63.08,70.63a7.77,7.77,0,0,0,5.27,2,18.93,18.93,0,0,1,3.61,0c1.76.36,3.2,1.68,4.8,2.55a9.93,9.93,0,0,0,7.14,1,6.92,6.92,0,0,0,4.71-3.68,3.63,3.63,0,0,0,.21-.58,5.36,5.36,0,0,0-2-.9q-9.68-2.72-19.52-4.54c-2-.36-4-.72-6-1.11C60.62,67.06,61.84,69.44,63.08,70.63Z"/><path class="cls-7" d="M80.22,76.8a10.58,10.58,0,0,1-3.66-1.2c-.53-.29-1-.62-1.53-.95a9.56,9.56,0,0,0-3.15-1.56,8.58,8.58,0,0,0-2.27,0c-.41,0-.84,0-1.26,0a8.1,8.1,0,0,1-5.55-2.16h0c-1.25-1.19-2.67-3.74-1.93-5.69a.42.42,0,0,1,.46-.25c1.37.27,2.76.52,4.1.76l1.9.35c6.54,1.21,13.12,2.74,19.56,4.54a6,6,0,0,1,2.19,1,.41.41,0,0,1,.13.44,5.93,5.93,0,0,1-.22.63,7.29,7.29,0,0,1-5,3.91A10,10,0,0,1,80.22,76.8Zm-8.54-4.57a2.25,2.25,0,0,1,.36.06A10.2,10.2,0,0,1,75.48,74c.48.31,1,.64,1.47.91a9.58,9.58,0,0,0,6.85.92,6.58,6.58,0,0,0,4.44-3.45c0-.09.07-.17.1-.26a6,6,0,0,0-1.67-.67c-6.41-1.79-13-3.32-19.49-4.52l-1.9-.35c-1.22-.22-2.49-.45-3.74-.7-.29,1.42.67,3.37,1.82,4.48h0a7.39,7.39,0,0,0,5,1.93c.39,0,.8,0,1.2,0A10,10,0,0,1,71.68,72.23Z"/><path class="cls-7" d="M54.93,48.17a.4.4,0,0,1-.32-.24,2.48,2.48,0,0,0-3.73-1,.4.4,0,0,1-.57-.08.41.41,0,0,1,.08-.58,3.3,3.3,0,0,1,5,1.28.41.41,0,0,1-.2.55A.42.42,0,0,1,54.93,48.17Z"/><path class="cls-7" d="M34,42a.43.43,0,0,1-.34-.27A2.47,2.47,0,0,0,30,40.44a.41.41,0,0,1-.56-.14.4.4,0,0,1,.14-.56,3.27,3.27,0,0,1,2.87-.26,3.32,3.32,0,0,1,1.94,2,.41.41,0,0,1-.25.52A.32.32,0,0,1,34,42Z"/><path class="cls-7" d="M36.11,64.23a2.83,2.83,0,0,1-.47-.1,2.78,2.78,0,0,1-1.81-3.47.41.41,0,0,1,.78.24,1.95,1.95,0,0,0,2.77,2.31,1.89,1.89,0,0,0,.95-1.14.42.42,0,0,1,.52-.27.41.41,0,0,1,.27.52,2.76,2.76,0,0,1-1.36,1.62A2.7,2.7,0,0,1,36.11,64.23Z"/><path class="cls-7" d="M32.47,61.55l-.13,0a.42.42,0,0,1-.33-.48.41.41,0,0,1,.48-.33c.15,0,1.49.23,1.75-.91A.41.41,0,0,1,35,60,2.18,2.18,0,0,1,32.47,61.55Z"/><path class="cls-7" d="M40,64l-.12,0a2.21,2.21,0,0,1-1.33-2.8A.4.4,0,0,1,39,60.9a.41.41,0,0,1,.23.53c-.45,1.12.86,1.72.91,1.75a.41.41,0,0,1,.21.54A.42.42,0,0,1,40,64Z"/><path class="cls-9" d="M39.33,57.48a1.71,1.71,0,0,1-2.1,1.21,1.72,1.72,0,1,1,2.1-1.21Z"/><path class="cls-7" d="M37.4,59.14a1.4,1.4,0,0,1-.28-.06,2.13,2.13,0,1,1,2.61-1.49h0A2.12,2.12,0,0,1,37.4,59.14Zm.45-3.4a1.3,1.3,0,0,0-.52,2.55A1.31,1.31,0,1,0,38,55.77Zm1.48,1.74h0Z"/><path class="cls-9" d="M8.89,60.84c-.52,1.71,1.54,3.87,4.62,4.82s6,.32,6.52-1.4-1.54-3.87-4.61-4.81S9.42,59.13,8.89,60.84Z"/><path class="cls-7" d="M15.12,66.43a10.37,10.37,0,0,1-1.73-.38,9,9,0,0,1-3.84-2.23,3.2,3.2,0,0,1-1.05-3.1c.61-2,3.7-2.69,7-1.66a9,9,0,0,1,3.83,2.22,3.19,3.19,0,0,1,1.05,3.1C19.92,66,17.74,66.78,15.12,66.43ZM13.73,59.5c-2.19-.3-4.08.27-4.44,1.46h0a2.4,2.4,0,0,0,.86,2.29,8.11,8.11,0,0,0,3.48,2c2.8.87,5.55.35,6-1.12a2.43,2.43,0,0,0-.86-2.29,8.27,8.27,0,0,0-3.48-2A9.21,9.21,0,0,0,13.73,59.5ZM8.89,60.84h0Z"/><path class="cls-10" d="M38.75,56.81a.63.63,0,0,1-1.22-.33.63.63,0,0,1,1.22.33Z"/><path class="cls-10" d="M11.18,60.42c-.15.49.43,1.11,1.31,1.38s1.71.09,1.86-.4S13.92,60.3,13,60,11.33,59.93,11.18,60.42Z"/><path class="cls-9" d="M48.45,72.67c-.52,1.71,1.54,3.87,4.62,4.82s6,.32,6.52-1.4S58.05,72.22,55,71.28,49,71,48.45,72.67Z"/><path class="cls-7" d="M54.66,78.26A12,12,0,0,1,53,77.88a9,9,0,0,1-3.84-2.23,3.17,3.17,0,0,1-1-3.1c.61-2,3.7-2.69,7-1.66s5.48,3.36,4.88,5.32a3.19,3.19,0,0,1-2.61,2A8.39,8.39,0,0,1,54.66,78.26Zm-1.37-6.93c-2.19-.3-4.08.27-4.44,1.46a2.4,2.4,0,0,0,.86,2.29,8.11,8.11,0,0,0,3.48,2,8.27,8.27,0,0,0,4,.3,2.43,2.43,0,0,0,2-1.42c.45-1.47-1.54-3.44-4.34-4.3A9.21,9.21,0,0,0,53.29,71.33Z"/><path class="cls-10" d="M54.47,73.11c-.18.48.36,1.14,1.22,1.47s1.7.21,1.88-.27-.36-1.13-1.21-1.46S54.65,72.64,54.47,73.11Z"/><path class="cls-10" d="M56.27,68.68c-.26.11-.54.21-.82.3A12.38,12.38,0,0,1,43.2,65.86a9.11,9.11,0,0,1-2.32-5.75c-.11-1.48-.11-3-.13-4.45a3,3,0,0,0-.66-2,2.54,2.54,0,0,0-4.07.2c-.7.92-1.32,1.9-2,2.84a12.78,12.78,0,0,1-3.52,3.47,7.45,7.45,0,0,1-3.64,1.19,13,13,0,0,1-8.91-2.61,10.19,10.19,0,0,1-3.76-7.56,16,16,0,0,1,.44-4.42,5.17,5.17,0,0,0-.14-3.45c-.23-.5-.72-.9-.82-1.46a2.13,2.13,0,0,1,.2-1.13,9.27,9.27,0,0,1,.49-1.12c.27-.53.62-.56,1.16-.48A56.3,56.3,0,0,1,26.66,42a25.63,25.63,0,0,1,9.13,5.45,12.18,12.18,0,0,0,2.3,2.13,8.68,8.68,0,0,0,3.2,1A16.16,16.16,0,0,0,45.08,50a24.65,24.65,0,0,1,8.39.38c4.13.84,8,2.49,12,3.92a3.09,3.09,0,0,1,.8.38c.71.52.44,1.46.22,2.17a2.9,2.9,0,0,1-.53,1.07c-.49.52-1.25.6-1.81,1a5.6,5.6,0,0,0-1.81,2.75C61.15,64.58,59.21,67.43,56.27,68.68ZM44.53,62.79c.09.14.22.38.38.59a8.71,8.71,0,0,0,8.25,3.37,6.23,6.23,0,0,0,3.25-1.36,9.73,9.73,0,0,0,3.64-6,4.16,4.16,0,0,0-.71-3.25A6,6,0,0,0,56.47,54,20.14,20.14,0,0,0,50.1,52.8a18.09,18.09,0,0,0-3.37.16,3,3,0,0,0-2.6,2.26,11.6,11.6,0,0,0-.45,2.26A9.34,9.34,0,0,0,44.53,62.79ZM19.87,44.16a4,4,0,0,0-2.12,2.27,16.17,16.17,0,0,0-.75,3.2,7.73,7.73,0,0,0,1.57,5.79,8.67,8.67,0,0,0,6.9,3.17A6.43,6.43,0,0,0,30,57a10.59,10.59,0,0,0,3.32-5.18,4.34,4.34,0,0,0,.06-1.76,3.83,3.83,0,0,0-1.64-2.25,22.53,22.53,0,0,0-5.12-3,12.88,12.88,0,0,0-3.7-1.12A5.16,5.16,0,0,0,19.87,44.16Z"/><path class="cls-7" d="M50.24,69.79a12.39,12.39,0,0,1-7.34-3.65,9.37,9.37,0,0,1-2.42-6c-.1-1.21-.12-2.45-.13-3.64v-.83a2.57,2.57,0,0,0-.56-1.73,2.11,2.11,0,0,0-1.68-.78,2.27,2.27,0,0,0-1.75,1c-.38.5-.75,1-1.1,1.54s-.6.87-.91,1.29a13.13,13.13,0,0,1-3.63,3.58,7.86,7.86,0,0,1-3.84,1.25,13.37,13.37,0,0,1-9.19-2.71,10.6,10.6,0,0,1-3.91-7.85,16.43,16.43,0,0,1,.45-4.54,4.84,4.84,0,0,0-.11-3.18,4.07,4.07,0,0,0-.32-.49A2.58,2.58,0,0,1,13.26,42a2.47,2.47,0,0,1,.22-1.36,11.44,11.44,0,0,1,.5-1.16,1.32,1.32,0,0,1,1.59-.69A57.11,57.11,0,0,1,26.8,41.59a26,26,0,0,1,9.28,5.55l.64.67a6.77,6.77,0,0,0,1.57,1.39,8.15,8.15,0,0,0,3,1,6.9,6.9,0,0,0,2.34-.29c.43-.1.88-.21,1.35-.28a25,25,0,0,1,8.53.39,64.25,64.25,0,0,1,9.55,3l2.49.92a3.55,3.55,0,0,1,.9.44c1,.72.58,2,.37,2.62a3.25,3.25,0,0,1-.62,1.23,3.11,3.11,0,0,1-1.18.71,3.81,3.81,0,0,0-.7.35,5.21,5.21,0,0,0-1.66,2.56c-1,2.51-2.91,5.81-6.26,7.24-.29.12-.58.22-.87.31A12.67,12.67,0,0,1,50.24,69.79ZM38.54,52.36a3,3,0,0,1,1.87,1,3.4,3.4,0,0,1,.75,2.24v.84c0,1.18,0,2.4.12,3.59a8.67,8.67,0,0,0,2.21,5.5,12,12,0,0,0,11.83,3,7.31,7.31,0,0,0,.78-.29h0c3.1-1.32,4.88-4.42,5.83-6.79a6,6,0,0,1,2-2.92,3.46,3.46,0,0,1,.86-.43,2.57,2.57,0,0,0,.89-.51,2.49,2.49,0,0,0,.43-.93c.27-.83.35-1.4-.07-1.71a2.94,2.94,0,0,0-.69-.33l-2.5-.92a64,64,0,0,0-9.42-3,24.36,24.36,0,0,0-8.25-.38c-.43.06-.86.17-1.28.27a7.93,7.93,0,0,1-2.61.31,9.07,9.07,0,0,1-3.35-1.06,7.16,7.16,0,0,1-1.79-1.56c-.2-.22-.4-.44-.6-.63a25.24,25.24,0,0,0-9-5.37,55.58,55.58,0,0,0-11.06-2.81c-.52-.08-.61,0-.75.26s-.3.63-.47,1.07a1.84,1.84,0,0,0-.18.92,2.17,2.17,0,0,0,.39.73,3.07,3.07,0,0,1,.4.63A5.62,5.62,0,0,1,15,46.87a15.17,15.17,0,0,0-.43,4.31,9.77,9.77,0,0,0,3.61,7.26A12.57,12.57,0,0,0,26.83,61a7,7,0,0,0,3.44-1.12,12.32,12.32,0,0,0,3.41-3.38c.31-.41.6-.84.89-1.26s.73-1.06,1.12-1.58a3.12,3.12,0,0,1,2.38-1.28A2.47,2.47,0,0,1,38.54,52.36Zm12,14.76a8.8,8.8,0,0,1-6-3.49,4.51,4.51,0,0,1-.32-.5.62.62,0,0,0-.08-.12.05.05,0,0,0,0,0,9.7,9.7,0,0,1-.89-5.53,13.23,13.23,0,0,1,.46-2.34,3.41,3.41,0,0,1,2.94-2.55,18.63,18.63,0,0,1,3.45-.16,20.07,20.07,0,0,1,6.49,1.24,6.17,6.17,0,0,1,3.06,2.24,4.51,4.51,0,0,1,.78,3.56,10.15,10.15,0,0,1-3.79,6.29,6.65,6.65,0,0,1-3.46,1.43A11.58,11.58,0,0,1,50.56,67.12Zm-5.67-4.53.08.13c.07.12.16.27.26.41a8.28,8.28,0,0,0,7.89,3.21,5.93,5.93,0,0,0,3-1.27,9.38,9.38,0,0,0,3.49-5.8A3.75,3.75,0,0,0,59,56.33a5.42,5.42,0,0,0-2.68-1.93,19.18,19.18,0,0,0-6.24-1.19,17.86,17.86,0,0,0-3.3.15,2.61,2.61,0,0,0-2.26,2,12.49,12.49,0,0,0-.44,2.19A9,9,0,0,0,44.89,62.59ZM24.16,58.9a8.76,8.76,0,0,1-5.91-3.22,8.09,8.09,0,0,1-1.65-6.09,15.92,15.92,0,0,1,.76-3.28,4.37,4.37,0,0,1,2.32-2.51A5.36,5.36,0,0,1,23,43.33a13.18,13.18,0,0,1,3.82,1.14,23.45,23.45,0,0,1,5.21,3A4.2,4.2,0,0,1,33.76,50a4.57,4.57,0,0,1-.07,1.93,10.92,10.92,0,0,1-3.44,5.38A6.76,6.76,0,0,1,25.45,59,10.87,10.87,0,0,1,24.16,58.9ZM22.93,44.15h-.08a4.71,4.71,0,0,0-2.78.38h0a3.57,3.57,0,0,0-1.92,2,15.55,15.55,0,0,0-.73,3.11,7.3,7.3,0,0,0,1.48,5.5,8.22,8.22,0,0,0,6.59,3,6,6,0,0,0,4.23-1.49,10.12,10.12,0,0,0,3.19-5A3.76,3.76,0,0,0,33,50.13a3.51,3.51,0,0,0-1.48-2,22.94,22.94,0,0,0-5-2.9A12.67,12.67,0,0,0,22.93,44.15Zm-3.06,0h0Z"/><path class="cls-10" d="M16.94,41.92a.62.62,0,1,1-.41-.77A.61.61,0,0,1,16.94,41.92Z"/><path class="cls-7" d="M16.21,42.76l-.16,0A1,1,0,1,1,17.34,42h0A1,1,0,0,1,16.21,42.76Zm.17-1.23a.19.19,0,0,0-.13,0,.19.19,0,0,0-.1.13.21.21,0,0,0,.4.12h0a.22.22,0,0,0,0-.16.19.19,0,0,0-.13-.1Zm.56.39h0Z"/><path class="cls-10" d="M64.5,56.51a.62.62,0,1,1-.41-.78A.62.62,0,0,1,64.5,56.51Z"/><path class="cls-7" d="M63.77,57.35l-.16,0a1,1,0,1,1,1.29-.68h0A1,1,0,0,1,63.77,57.35Zm.17-1.24a.22.22,0,0,0-.22.31.24.24,0,0,0,.13.11.23.23,0,0,0,.16,0,.19.19,0,0,0,.1-.12h0a.21.21,0,0,0-.14-.27Z"/><path class="cls-7" d="M44.53,62.79a9.34,9.34,0,0,1-.85-5.31,11.6,11.6,0,0,1,.45-2.26A3,3,0,0,1,46.73,53a18.09,18.09,0,0,1,3.37-.16A20.14,20.14,0,0,1,56.47,54a6,6,0,0,1,2.87,2.09,4.16,4.16,0,0,1,.71,3.25,9.73,9.73,0,0,1-3.64,6,6.23,6.23,0,0,1-3.25,1.36,8.71,8.71,0,0,1-8.25-3.37C44.75,63.17,44.62,62.93,44.53,62.79Z"/><path class="cls-7" d="M19.87,44.16a5.16,5.16,0,0,1,3-.43,12.88,12.88,0,0,1,3.7,1.12,22.53,22.53,0,0,1,5.12,3,3.83,3.83,0,0,1,1.64,2.25,4.34,4.34,0,0,1-.06,1.76A10.59,10.59,0,0,1,30,57a6.43,6.43,0,0,1-4.51,1.59,8.67,8.67,0,0,1-6.9-3.17A7.73,7.73,0,0,1,17,49.63a16.17,16.17,0,0,1,.75-3.2A4,4,0,0,1,19.87,44.16Z"/><path class="cls-11" d="M44.53,62.79a9.34,9.34,0,0,1-.85-5.31,11.6,11.6,0,0,1,.45-2.26A3,3,0,0,1,46.73,53a18.09,18.09,0,0,1,3.37-.16A20.14,20.14,0,0,1,56.47,54a6,6,0,0,1,2.87,2.09,4.16,4.16,0,0,1,.71,3.25,9.73,9.73,0,0,1-3.64,6,6.23,6.23,0,0,1-3.25,1.36,8.71,8.71,0,0,1-8.25-3.37C44.75,63.17,44.62,62.93,44.53,62.79Z"/><path class="cls-11" d="M19.87,44.16a5.16,5.16,0,0,1,3-.43,12.88,12.88,0,0,1,3.7,1.12,22.53,22.53,0,0,1,5.12,3,3.83,3.83,0,0,1,1.64,2.25,4.34,4.34,0,0,1-.06,1.76A10.59,10.59,0,0,1,30,57a6.43,6.43,0,0,1-4.51,1.59,8.67,8.67,0,0,1-6.9-3.17A7.73,7.73,0,0,1,17,49.63a16.17,16.17,0,0,1,.75-3.2A4,4,0,0,1,19.87,44.16Z"/></g></g></svg>