<svg xmlns="http://www.w3.org/2000/svg" xmlns:xlink="http://www.w3.org/1999/xlink" viewBox="0 0 67.69 102.98"><defs><style>.cls-1{fill:none;}.cls-2{fill:#3e09b2;}.cls-3{fill:#4f22f2;}.cls-4{fill:url(#Unnamed_Pattern_8);}.cls-5{fill:#fefefe;}.cls-6{fill:#f6b707;}.cls-7{fill:#ffcf60;}.cls-8{fill:#54d7cf;}.cls-9{fill:#4602b7;opacity:0.18;}.cls-10{fill:#fff;}.cls-11{fill:#f85c09;}.cls-12{fill:url(#Unnamed_Pattern_4);}</style><pattern id="Unnamed_Pattern_8" data-name="Unnamed Pattern 8" width="54.16" height="92.59" patternTransform="matrix(-0.15, 0, 0, 0.15, -147.53, 78.43)" patternUnits="userSpaceOnUse" viewBox="0 0 54.16 92.59"><rect class="cls-1" width="54.16" height="92.59"/><polygon class="cls-3" points="33.38 76.69 36.59 73.47 46.11 82.99 42.9 86.2 33.38 76.69"/><polygon class="cls-3" points="12.7 76.69 15.91 79.91 6.4 89.42 3.19 86.21 12.7 76.69"/><polygon class="cls-3" points="26.42 90.11 29.64 93.32 20.12 102.83 16.91 99.62 26.42 90.11"/><polygon class="cls-3" points="23.43 57.21 26.64 54 36.15 63.52 32.94 66.73 23.43 57.21"/><polygon class="cls-3" points="6.3 30.39 9.51 27.18 19.03 36.69 15.81 39.9 6.3 30.39"/><polygon class="cls-3" points="39.78 30.39 42.99 33.61 33.48 43.12 30.27 39.91 39.78 30.39"/><polygon class="cls-3" points="53.5 43.81 56.72 47.02 47.2 56.53 43.99 53.32 53.5 43.81"/><polygon class="cls-3" points="10.22 56.01 13.44 59.22 3.92 68.74 0.71 65.53 10.22 56.01"/><polygon class="cls-3" points="-0.66 43.81 2.56 47.02 -6.96 56.53 -10.17 53.32 -0.66 43.81"/><polygon class="cls-3" points="50.51 10.92 53.72 7.7 63.23 17.22 60.02 20.43 50.51 10.92"/><polygon class="cls-3" points="37.3 9.71 40.52 12.93 31 22.44 27.79 19.23 37.3 9.71"/><polygon class="cls-3" points="-3.65 10.92 -0.44 7.7 9.07 17.22 5.86 20.43 -3.65 10.92"/><polygon class="cls-3" points="26.42 -2.49 29.64 0.72 20.12 10.24 16.91 7.03 26.42 -2.49"/></pattern><pattern id="Unnamed_Pattern_4" data-name="Unnamed Pattern 4" width="54.16" height="92.59" patternTransform="translate(158.08 113.55) rotate(-32.15) scale(0.29)" patternUnits="userSpaceOnUse" viewBox="0 0 54.16 92.59"><rect class="cls-1" width="54.16" height="92.59"/><polygon class="cls-2" points="33.38 76.69 36.59 73.47 46.11 82.99 42.9 86.2 33.38 76.69"/><polygon class="cls-2" points="12.7 76.69 15.91 79.91 6.4 89.42 3.19 86.21 12.7 76.69"/><polygon class="cls-2" points="26.42 90.11 29.64 93.32 20.12 102.83 16.91 99.62 26.42 90.11"/><polygon class="cls-2" points="23.43 57.21 26.64 54 36.15 63.52 32.94 66.73 23.43 57.21"/><polygon class="cls-2" points="6.3 30.39 9.51 27.18 19.03 36.69 15.81 39.9 6.3 30.39"/><polygon class="cls-2" points="39.78 30.39 42.99 33.61 33.48 43.12 30.27 39.91 39.78 30.39"/><polygon class="cls-2" points="53.5 43.81 56.72 47.02 47.2 56.53 43.99 53.32 53.5 43.81"/><polygon class="cls-2" points="10.22 56.01 13.44 59.22 3.92 68.74 0.71 65.53 10.22 56.01"/><polygon class="cls-2" points="-0.66 43.81 2.56 47.02 -6.96 56.53 -10.17 53.32 -0.66 43.81"/><polygon class="cls-2" points="50.51 10.92 53.72 7.7 63.23 17.22 60.02 20.43 50.51 10.92"/><polygon class="cls-2" points="37.3 9.71 40.52 12.93 31 22.44 27.79 19.23 37.3 9.71"/><polygon class="cls-2" points="-3.65 10.92 -0.44 7.7 9.07 17.22 5.86 20.43 -3.65 10.92"/><polygon class="cls-2" points="26.42 -2.49 29.64 0.72 20.12 10.24 16.91 7.03 26.42 -2.49"/></pattern></defs><g id="Layer_2" data-name="Layer 2"><g id="OBJECTS"><path class="cls-4" d="M10.54,67a4.93,4.93,0,0,0-.6-2.21c.37,0,.75.1,1.12.12h.34L12,66.25c0,.25,0,.5,0,.75a6.57,6.57,0,0,0,1,3.28,7.93,7.93,0,0,0-1.62-.11,7.71,7.71,0,0,0-2.22.39l0,0A4.89,4.89,0,0,0,10.54,67ZM5.65,69a1.88,1.88,0,0,1-.79-.14,1.86,1.86,0,0,1-1.15-1.68,1.88,1.88,0,0,1,1.82-1.94,1.86,1.86,0,0,1,.78.14,1.9,1.9,0,0,1,1.16,1.68A1.88,1.88,0,0,1,5.65,69Zm6.16,14a5,5,0,0,1-2.05-.38,4.91,4.91,0,0,1,1.73-9.43A4.9,4.9,0,0,1,16.55,78,4.91,4.91,0,0,1,11.81,83.05Zm50-24h0a6.55,6.55,0,0,1-.39.53l0,0c-.13.16-.26.32-.4.47l-.06,0c-.13.15-.27.28-.41.42l-.09.08L60,61l-.14.1-.4.29-.19.11-.38.23-.25.13-.35.17-.31.13c-.11,0-.21.09-.32.12a2.64,2.64,0,0,1-.4.12l-.26.08a5.12,5.12,0,0,1-.68.14,8.12,8.12,0,0,1-3.52-.17L38.6,99.71a4.39,4.39,0,0,1-5.82,2.49,4.3,4.3,0,0,1-2.28-2.26L17,69.88a3.43,3.43,0,0,1-1.94-3,3.71,3.71,0,0,1,.13-1.06l-1.88-4.2a8.13,8.13,0,0,1-2.1.16,7.88,7.88,0,0,1-2.7-.61A8.18,8.18,0,0,1,5.31,48.4c-1.89-2.56-3-6-3.19-10.61h0c0-.49,0-1,0-1.47,0-.17,0-.33,0-.49,0-.33,0-.66,0-1s0-.38.05-.57,0-.59.08-.89,0-.39.07-.59.07-.57.12-.85.06-.39.1-.59.1-.57.16-.85.07-.37.12-.56.14-.59.22-.89l.12-.49c.11-.39.23-.79.35-1.17l.06-.18c.14-.44.3-.88.46-1.31l.18-.47c.12-.28.23-.56.35-.83s.15-.35.23-.53.23-.5.35-.74l.27-.54c.12-.24.25-.47.37-.7l.3-.54.4-.68.32-.51c.15-.24.3-.47.46-.7l.3-.46.62-.84.2-.27h0a30.56,30.56,0,0,1,54.8,17.5c.2,5.46-1.13,9.39-3.58,12.23a8.15,8.15,0,0,1,3.49,7.26,1.49,1.49,0,0,1,0,.21h0A8,8,0,0,1,61.77,59.06Z"/><path class="cls-5" d="M48.59,7.07a30.53,30.53,0,0,1,15.8,25.68c.2,5.46-1.13,9.39-3.58,12.23a8.17,8.17,0,0,1,3.5,7.26,1.49,1.49,0,0,0,0,.21h0A8,8,0,0,1,63,56.22h0c-.12.18-.25.35-.38.53l0,0c-.13.16-.26.32-.4.47s0,0,0,.05-.27.28-.42.41l-.09.08-.41.35-.14.11-.4.28-.18.12-.39.23-.24.12c-.12.06-.24.13-.36.18a2.85,2.85,0,0,1-.31.12l-.32.13c-.13.05-.26.08-.39.12l-.26.08a5.47,5.47,0,0,1-.68.14A8.17,8.17,0,0,1,54,59.61L39.78,96.87a4.39,4.39,0,0,1-6.24,2.28,4.3,4.3,0,0,1-1.86-2.05L18.2,67,18,67a3.41,3.41,0,0,1-1.78-2.89A3.67,3.67,0,0,1,16.38,63L14.5,58.79A8.09,8.09,0,0,1,8.89,58,8.18,8.18,0,0,1,6.5,45.56c-1.9-2.56-3-6-3.2-10.61h0c0-.49,0-1,0-1.47,0-.17,0-.33,0-.49,0-.33,0-.66,0-1,0-.18,0-.37,0-.56s.05-.6.08-.89,0-.39.07-.59l.12-.85c0-.2.06-.39.1-.59s.1-.57.16-.85L4,27.1c.07-.3.14-.6.22-.89l.12-.49c.11-.39.23-.79.36-1.18a.84.84,0,0,1,0-.17c.14-.45.3-.88.46-1.32.06-.15.13-.3.19-.46s.22-.56.34-.83L6,21.23c.11-.25.22-.5.34-.74L6.62,20,7,19.24l.29-.53c.13-.23.27-.46.41-.68s.2-.35.31-.51.3-.47.46-.7.2-.31.31-.46l.61-.84.2-.28h0a30.58,30.58,0,0,1,39-8.17M50.18,4.2A33.85,33.85,0,0,0,7,13.24H7c-.06.07-.11.15-.17.23l-.05.07c-.19.25-.44.58-.68.93-.09.12-.17.25-.25.37L5.75,15c-.18.25-.35.51-.51.77l-.3.48-.05.08-.45.76-.33.59-.41.78-.3.6c-.13.27-.26.55-.38.82L3,20c-.07.15-.15.31-.21.47-.14.32-.27.63-.38.92l-.06.15-.15.36c-.19.51-.36,1-.51,1.46l-.06.19v0c-.14.44-.26.87-.38,1.29,0,.13-.07.26-.1.38l0,.16q-.12.46-.24,1c0,.17-.07.33-.11.5L.7,27c-.08.36-.13.66-.18.94s-.08.43-.11.65-.09.63-.13.95-.06.43-.08.65-.06.59-.09,1v.14c0,.16,0,.32,0,.49,0,.38,0,.75,0,1.09V33c0,.13,0,.26,0,.39C0,34,0,34.52,0,35v0H0A23.17,23.17,0,0,0,2.6,45.54a11.51,11.51,0,0,0,9.64,16.7h.21L13,63.44c0,.24,0,.48,0,.72a6.75,6.75,0,0,0,2.63,5.11L28.69,98.44A7.57,7.57,0,0,0,32,102a7.71,7.71,0,0,0,6.4.48A7.53,7.53,0,0,0,42.85,98L56.12,63.18A11.28,11.28,0,0,0,58,63c.32-.05.64-.12,1-.2l.34-.1h0l.07,0,.49-.15.38-.15.07,0,.06,0,.37-.16a4.39,4.39,0,0,0,.44-.21l.06,0,.05,0,.3-.16c.19-.1.36-.21.49-.29l0,0h0l.25-.15.55-.39.2-.16a6,6,0,0,0,.55-.47.64.64,0,0,0,.15-.13c.18-.16.36-.34.55-.54l.1-.11c.18-.19.36-.4.53-.62l.07-.08c.17-.22.35-.46.51-.7l0,0a11.39,11.39,0,0,0,1.87-5.26h0a1.91,1.91,0,0,0,0-.32,11.4,11.4,0,0,0-2.47-7.9,21.93,21.93,0,0,0,2.56-11.92A33.82,33.82,0,0,0,50.18,4.2Z"/><path class="cls-5" d="M15.2,71a4.9,4.9,0,1,1-2.53-.61A4.89,4.89,0,0,1,15.2,71m1.58-2.88A8.19,8.19,0,1,0,21,75a8.22,8.22,0,0,0-4.23-6.91Z"/><path class="cls-5" d="M7.68,62.64a1.89,1.89,0,1,1-1-.23,1.88,1.88,0,0,1,1,.23m1.58-2.87a5.16,5.16,0,1,0,2.67,4.35,5.14,5.14,0,0,0-2.67-4.35Z"/><path class="cls-6" d="M14.45,58.69,31.68,97.1a4.38,4.38,0,0,0,8.1-.23L55.35,56A4.39,4.39,0,0,0,51.11,50l-33.4,1.09a4.38,4.38,0,0,0-3.88,6.13Z"/><path class="cls-2" d="M33.35,99.52a4.77,4.77,0,0,1-2-2.25L14.08,58.85h0l-.62-1.44a4.8,4.8,0,0,1,4.25-6.7l33.39-1.09a4.8,4.8,0,0,1,4.64,6.51L40.17,97a4.74,4.74,0,0,1-4.35,3.09A4.8,4.8,0,0,1,33.35,99.52Zm-18.52-41L32.05,96.93a4,4,0,0,0,7.35-.21L55,55.83a4,4,0,0,0-3.85-5.39l-33.4,1.09a4,4,0,0,0-3.52,5.56Z"/><path class="cls-7" d="M41.2,88.18,43,86.07l1.15-3-3.75,4.47L32.6,81.35l6.26-7.44,6.68,5.43.39-1-6.39-5.2,6.39-7.59,3.69,3.09.4-1L46.61,64.7l6.88-8.17L54,57a3.82,3.82,0,0,0,.24-1.18l-.1-.08.11-.14a3.85,3.85,0,0,0-.24-1.36l-.69.83-4.31-3.53-1.61,0,5.23,4.29L45.8,64l-8.16-6.84L42,51.75l-1.39,0L36.83,56.5l-5.27-4.41-1.59,0,6.19,5.19-6.32,7.9-7.53-6.12L28,52.2l-1.41,0-5.1,6.19L15.91,53.9a4.09,4.09,0,0,0-.6.89l5.51,4.47-3.34,4L18,64.38l3.67-4.46,7.54,6.13L23,73.74l-1.35-1.07L23,75.52l.24-.3,7.89,6.28-3.55,4.22L28,86.79l3.9-4.63,7.77,6.18L33,96.26l-1.21-1,.09.2a4,4,0,0,0,3,2.36l-1.09-.89L40.52,89l1,.82.39-1ZM37,58l8.14,6.82-6.4,7.61-8-6.55ZM31.77,80.69,23.86,74.4,30,66.72l8,6.53Z"/><path class="cls-8" d="M3.3,35a30.56,30.56,0,1,1,61.09-2.2c.2,5.46-1.13,9.39-3.58,12.23a8.2,8.2,0,1,1-12.38,9.56,8.19,8.19,0,0,1-14.83-.66,8.19,8.19,0,0,1-13.9,1.35A8.2,8.2,0,1,1,6.5,45.56C4.6,43,3.47,39.56,3.3,35Z"/><path class="cls-2" d="M8.71,58.32a8.67,8.67,0,0,1-4.43-6.45A8.56,8.56,0,0,1,6,45.55C4.06,42.83,3.05,39.36,2.89,35h0A31,31,0,1,1,64.8,32.73c.19,5.14-.92,9.12-3.4,12.18a8.55,8.55,0,0,1,3.32,7.36,8.61,8.61,0,0,1-16.34,3.18,8.6,8.6,0,0,1-14.81-.67,8.6,8.6,0,0,1-13.85,1.13,8.53,8.53,0,0,1-7.34,3.46A8.43,8.43,0,0,1,8.71,58.32Zm-5-23.39c.16,4.37,1.18,7.77,3.12,10.39a.41.41,0,0,1,0,.5,7.76,7.76,0,0,0-1.72,6,7.86,7.86,0,0,0,7.33,6.78A7.73,7.73,0,0,0,19.35,55a.45.45,0,0,1,.33-.19A.43.43,0,0,1,20,55,7.78,7.78,0,0,0,33.23,53.7a.41.41,0,0,1,.75,0,7.78,7.78,0,0,0,14.09.62.41.41,0,0,1,.39-.22.41.41,0,0,1,.36.26,7.79,7.79,0,1,0,11.76-9.08.39.39,0,0,1-.08-.6c2.53-2.93,3.67-6.84,3.48-12A30.15,30.15,0,0,0,3.71,34.93Z"/><path class="cls-9" d="M61.13,53.7a8.2,8.2,0,0,1-9.06-5.24,8.2,8.2,0,0,1-14.84-.66,8.19,8.19,0,0,1-13.9,1.35,8.2,8.2,0,1,1-13.2-9.67c-1.9-2.56-3-6-3.2-10.61A30.62,30.62,0,0,1,9.59,15.24,30.44,30.44,0,0,0,3.3,35c.17,4.61,1.3,8,3.2,10.61a8.2,8.2,0,1,0,13.2,9.67,8.19,8.19,0,0,0,13.9-1.35,8.19,8.19,0,0,0,14.83.66,8.2,8.2,0,0,0,15.86-2.09A8,8,0,0,1,61.13,53.7Z"/><circle class="cls-8" cx="19.68" cy="63.94" r="3.43" transform="matrix(1, -0.01, 0.01, 1, -0.35, 0.11)"/><path class="cls-2" d="M17.83,67.31a3.84,3.84,0,0,1,1.73-7.21h0a3.85,3.85,0,0,1,.25,7.69A3.8,3.8,0,0,1,17.83,67.31Zm1.76-6.39h0a3,3,0,1,0,3.12,2.93A3,3,0,0,0,19.59,60.92Z"/><path class="cls-8" d="M12.67,70.4a4.9,4.9,0,1,0,5.06,4.74A4.9,4.9,0,0,0,12.67,70.4Z"/><path class="cls-2" d="M10.27,80a5.31,5.31,0,0,1-2.75-4.49A5.31,5.31,0,0,1,12.66,70h0a5.31,5.31,0,0,1,5.48,5.14A5.31,5.31,0,0,1,13,80.61,5.26,5.26,0,0,1,10.27,80ZM15,71.36a4.52,4.52,0,0,0-2.32-.55h0a4.49,4.49,0,0,0-4.34,4.64A4.49,4.49,0,1,0,15.9,72,4.73,4.73,0,0,0,15,71.36Zm-2.33-1Z"/><path class="cls-8" d="M6.71,62.41a1.88,1.88,0,1,0,1.94,1.82A1.87,1.87,0,0,0,6.71,62.41Z"/><path class="cls-2" d="M5.67,66.3a2.29,2.29,0,0,1,1-4.3h0a2.29,2.29,0,0,1,.14,4.58A2.21,2.21,0,0,1,5.67,66.3Zm1-3.48h0a1.47,1.47,0,1,0,1.52,1.42A1.47,1.47,0,0,0,6.72,62.82Z"/><path class="cls-9" d="M29.08,12.74a3.44,3.44,0,1,0,3.55,3.32A3.44,3.44,0,0,0,29.08,12.74Z"/><path class="cls-9" d="M8.6,28.42A2.62,2.62,0,1,0,11.3,31,2.63,2.63,0,0,0,8.6,28.42Z"/><path class="cls-9" d="M16.92,13.21A1.88,1.88,0,1,0,18.87,15,1.88,1.88,0,0,0,16.92,13.21Z"/><path class="cls-2" d="M40.06,21.67l0,0a.4.4,0,0,1-.11-.57,2.84,2.84,0,0,1,4.41-.44.41.41,0,0,1-.58.58,2,2,0,0,0-3.15.31A.41.41,0,0,1,40.06,21.67Z"/><path class="cls-2" d="M22.18,22.42l-.05,0a.4.4,0,0,1-.08-.57,2.82,2.82,0,0,1,2.22-1.13,2.86,2.86,0,0,1,2.22,1,.41.41,0,0,1,0,.58.4.4,0,0,1-.57,0,2,2,0,0,0-1.58-.7,2,2,0,0,0-1.59.8A.41.41,0,0,1,22.18,22.42Z"/><path class="cls-10" d="M38.52,35.17a1.29,1.29,0,0,0-1.84-.12,4.06,4.06,0,0,1-3.4,1.13l-.37-.08a5.31,5.31,0,0,1-1.41-.67,1.31,1.31,0,0,0-1.44,2.18l.07,0a5.16,5.16,0,0,0,.76.45,6.39,6.39,0,0,0,1.2.47,6.28,6.28,0,0,0,2.93.19,6.7,6.7,0,0,0,.91-.23A7.09,7.09,0,0,0,37.09,38a7,7,0,0,0,.81-.52l.39-.33a3.5,3.5,0,0,0,.24-.3A1.29,1.29,0,0,0,38.52,35.17Z"/><path class="cls-2" d="M30.47,38.36c-.33-.19-.54-.34-.59-.37l-.05,0a1.67,1.67,0,0,1-.73-1.08,1.64,1.64,0,0,1,.25-1.29,1.71,1.71,0,0,1,2.37-.49,4.61,4.61,0,0,0,1.3.61l.32.07a3.7,3.7,0,0,0,3.07-1,1.72,1.72,0,0,1,2.42.15h0a1.73,1.73,0,0,1,0,2.25.39.39,0,0,0-.08.1,2.2,2.2,0,0,1-.2.23c-.15.14-.3.26-.42.36a8.39,8.39,0,0,1-.86.55,7.07,7.07,0,0,1-1.23.54,6.58,6.58,0,0,1-1,.25A6.7,6.7,0,0,1,32,39a8.28,8.28,0,0,1-1.28-.5Zm.74-2.62a.89.89,0,0,0-.92,1.53l.07,0a5.72,5.72,0,0,0,.71.43,6.55,6.55,0,0,0,1.14.44,5.93,5.93,0,0,0,2.74.17,6.21,6.21,0,0,0,.85-.21,7.07,7.07,0,0,0,1.09-.48,6.65,6.65,0,0,0,.76-.5,3.8,3.8,0,0,0,.35-.29l.12-.14a1.47,1.47,0,0,1,.1-.13.9.9,0,0,0,0-1.17h0A.89.89,0,0,0,37,35.35a4.45,4.45,0,0,1-3.74,1.23,2.71,2.71,0,0,1-.41-.09,5.17,5.17,0,0,1-1.53-.72Z"/><path class="cls-2" d="M30.71,38.49a.41.41,0,0,1-.17-.55l1.21-2.34a.41.41,0,0,1,.55-.18.42.42,0,0,1,.18.55l-1.21,2.34a.4.4,0,0,1-.55.18Z"/><path class="cls-2" d="M34,39.16a.41.41,0,0,1-.21-.35l0-2.48a.41.41,0,0,1,.82,0l0,2.48a.42.42,0,0,1-.4.42A.46.46,0,0,1,34,39.16Z"/><path class="cls-2" d="M37.54,38a.47.47,0,0,1-.12-.09l-1.7-2.08a.41.41,0,1,1,.63-.52l1.71,2.08a.41.41,0,0,1-.52.61Z"/><path class="cls-11" d="M35.69,32.39A1.61,1.61,0,1,1,33.92,31,1.61,1.61,0,0,1,35.69,32.39Z"/><path class="cls-2" d="M33.11,34.34l-.3-.2a2,2,0,0,1-.74-1.37,2,2,0,1,1,3.59,1.07,2,2,0,0,1-2.55.5Zm1.56-2.84a1.33,1.33,0,0,0-.71-.14,1.22,1.22,0,0,0-.81.44,1.19,1.19,0,0,0-.26.89,1.21,1.21,0,0,0,2.4-.25,1.22,1.22,0,0,0-.44-.81Z"/><path class="cls-11" d="M7.24,43.41c.1,1.32,2.1,2.26,4.48,2.08s4.23-1.38,4.13-2.71-2.1-2.26-4.48-2.09S7.15,42.08,7.24,43.41Z"/><path class="cls-2" d="M8.19,45.25a2.33,2.33,0,0,1-1.36-1.81h0a2.44,2.44,0,0,1,1.32-2.16,6.71,6.71,0,0,1,3.19-1,6.83,6.83,0,0,1,3.3.51,2.48,2.48,0,0,1,1.62,2,2.44,2.44,0,0,1-1.32,2.16,6.71,6.71,0,0,1-3.19,1,6.71,6.71,0,0,1-3.3-.52Zm6.32-3.59-.22-.11a5.88,5.88,0,0,0-2.89-.45A6.08,6.08,0,0,0,8.6,42a1.71,1.71,0,0,0-.95,1.42h0c0,.48.45.93,1.15,1.26a6,6,0,0,0,2.89.45,6,6,0,0,0,2.8-.86c.65-.43,1-.93.95-1.42A1.54,1.54,0,0,0,14.51,41.66Z"/><path class="cls-10" d="M35,32a.59.59,0,1,1-1.18.13.59.59,0,0,1,.53-.65A.58.58,0,0,1,35,32Z"/><path class="cls-10" d="M8.71,42.51c0,.38.6.64,1.27.59s1.21-.39,1.18-.77-.6-.65-1.28-.6S8.68,42.13,8.71,42.51Z"/><path class="cls-11" d="M53.63,41c.07,1.33,2.06,2.3,4.44,2.17s4.25-1.31,4.18-2.64-2.06-2.3-4.44-2.17S53.56,39.67,53.63,41Z"/><path class="cls-2" d="M54.62,42.9A2.38,2.38,0,0,1,53.22,41c-.09-1.58,1.92-2.92,4.57-3.07s4.78,1,4.87,2.56a2.46,2.46,0,0,1-1.36,2.14,6.92,6.92,0,0,1-3.21.93A6.58,6.58,0,0,1,54.62,42.9Zm6.27-3.55a6,6,0,0,0-3.06-.58C55.72,38.89,54,39.9,54,41s1.89,1.89,4,1.78A6,6,0,0,0,60.86,42c.66-.41,1-.91,1-1.39A1.61,1.61,0,0,0,60.89,39.35Z"/><path class="cls-10" d="M57.93,39.77c0,.38.54.69,1.22.7s1.24-.28,1.24-.66-.54-.7-1.22-.71S57.93,39.39,57.93,39.77Z"/><path class="cls-11" d="M13.83,32.37a5.91,5.91,0,0,1,1.9-4.72A7,7,0,0,1,19.16,26a12.7,12.7,0,0,1,5.1-.09,5.77,5.77,0,0,1,5,5.16,7.7,7.7,0,0,1-4.77,8.58C19.51,41.68,14.11,38.23,13.83,32.37Z"/><path class="cls-2" d="M17.77,39.68l-.46-.27a8.67,8.67,0,0,1-3.89-7h0a6.36,6.36,0,0,1,2-5,7.49,7.49,0,0,1,3.63-1.7,12.88,12.88,0,0,1,5.27-.09A6.15,6.15,0,0,1,29.67,31a8.13,8.13,0,0,1-5,9A8,8,0,0,1,17.77,39.68Zm-3.53-7.33a7.86,7.86,0,0,0,3.51,6.37,7.18,7.18,0,0,0,6.59.59,7.33,7.33,0,0,0,4.52-8.13,5.36,5.36,0,0,0-4.68-4.83,12.11,12.11,0,0,0-4.93.09A6.65,6.65,0,0,0,16,28,5.53,5.53,0,0,0,14.24,32.35Z"/><path class="cls-12" d="M13.83,32.37a5.91,5.91,0,0,1,1.9-4.72A7,7,0,0,1,19.16,26a12.7,12.7,0,0,1,5.1-.09,5.77,5.77,0,0,1,5,5.16,7.7,7.7,0,0,1-4.77,8.58C19.51,41.68,14.11,38.23,13.83,32.37Z"/><path class="cls-11" d="M54.34,30.45a7.77,7.77,0,1,1-14.83-2.61,5.68,5.68,0,0,1,3.83-3,12.42,12.42,0,0,1,6.26-.24,5.75,5.75,0,0,1,4.67,5.18C54.3,30,54.33,30.31,54.34,30.45Z"/><path class="cls-2" d="M42.55,38.16A7.91,7.91,0,0,1,39,34.25a8.37,8.37,0,0,1,.1-6.59,6,6,0,0,1,4.09-3.24,12.91,12.91,0,0,1,6.46-.24,6.13,6.13,0,0,1,5,5.53c0,.2,0,.4.07.55v.17a8.28,8.28,0,0,1-3.27,7.18,8.17,8.17,0,0,1-7.74,1.09A8.5,8.5,0,0,1,42.55,38.16Zm8.59-12.58a6,6,0,0,0-1.63-.6,12.09,12.09,0,0,0-6,.23A5.25,5.25,0,0,0,39.88,28a7.49,7.49,0,0,0-.08,5.93,7.09,7.09,0,0,0,4.22,4,7.34,7.34,0,0,0,9.91-7.44v-.14c0-.15,0-.34-.06-.54A5.37,5.37,0,0,0,51.14,25.58Z"/><path class="cls-12" d="M54.34,30.45a7.77,7.77,0,1,1-14.83-2.61,5.68,5.68,0,0,1,3.83-3,12.42,12.42,0,0,1,6.26-.24,5.75,5.75,0,0,1,4.67,5.18C54.3,30,54.33,30.31,54.34,30.45Z"/><path class="cls-10" d="M60.35,25.39c-.24,0-.48,0-.71,0a12.18,12.18,0,0,1-6.1-1.53,18.46,18.46,0,0,0-2.32-1.14,13.46,13.46,0,0,0-7.12-.4,8.89,8.89,0,0,0-5.63,3,.79.79,0,0,1-1.11.29,7.86,7.86,0,0,0-4.26-.58,8.39,8.39,0,0,0-3.16,1.1.56.56,0,0,1-.72-.1,15.83,15.83,0,0,0-2.37-1.63,10.61,10.61,0,0,0-5.15-.94c-4.15.1-6.84,2.14-10.33,4.08a9.22,9.22,0,0,1-4.35.8A1.33,1.33,0,1,0,7.17,31c1.18-.07,3.36-.7,4,.58a4.6,4.6,0,0,1,.35,1.65A10.18,10.18,0,0,0,26.88,41,9.85,9.85,0,0,0,31.44,30.6c-.21-1-.55-2-.84-3a6.4,6.4,0,0,1,6.61-.32c0,.11-.05.22-.09.34a10.22,10.22,0,0,0-.22,6,9.91,9.91,0,0,0,11,7.33,9.73,9.73,0,0,0,8-6.17c.78-1.87.33-3.74.86-5.62a2,2,0,0,1,.39-.78.73.73,0,0,1,.26-.2.75.75,0,0,1,.33-.06L60.5,28a1.34,1.34,0,0,0,1.26-1.4C61.71,25.65,61.06,25.44,60.35,25.39ZM24.49,39.69c-5,2-10.38-1.46-10.66-7.32a5.91,5.91,0,0,1,1.9-4.72A7,7,0,0,1,19.16,26a12.7,12.7,0,0,1,5.1-.09,5.77,5.77,0,0,1,5,5.16A7.7,7.7,0,0,1,24.49,39.69Zm19.39-1.37a7.73,7.73,0,0,1-4.37-10.48,5.68,5.68,0,0,1,3.83-3,12.42,12.42,0,0,1,6.26-.24,5.75,5.75,0,0,1,4.67,5.18c0,.27.06.55.07.69A7.76,7.76,0,0,1,43.88,38.32Z"/><path class="cls-2" d="M16.64,41.59a10.75,10.75,0,0,1-5.51-8.3V33.1a3.81,3.81,0,0,0-.29-1.31c-.4-.77-1.72-.59-2.79-.45-.3,0-.59.08-.85.09a1.74,1.74,0,0,1-1.84-1.64A1.74,1.74,0,0,1,7,28l.67,0a7.31,7.31,0,0,0,3.51-.72l1.71-1c2.7-1.58,5.25-3.07,8.81-3.15a11,11,0,0,1,5.34,1,14.46,14.46,0,0,1,2.24,1.52l.2.16c.16.12.16.12.27.06a8.87,8.87,0,0,1,3.31-1.15,8.35,8.35,0,0,1,4.48.61c.29.13.38.13.63-.17A9.27,9.27,0,0,1,44,21.91a14,14,0,0,1,7.33.42,14.65,14.65,0,0,1,1.87.9l.5.27A11.68,11.68,0,0,0,59.63,25h.74c1.15.07,1.75.61,1.8,1.59a1.75,1.75,0,0,1-1.64,1.83l-2.7.15-.19,0a.37.37,0,0,0-.11.1,1.79,1.79,0,0,0-.3.62,10.2,10.2,0,0,0-.31,2.41A9.28,9.28,0,0,1,56.34,35,10.12,10.12,0,0,1,48,41.38a10.33,10.33,0,0,1-11.5-7.64,10.66,10.66,0,0,1,.23-6.2,6.09,6.09,0,0,0-5.66.28c.07.21.14.43.2.65.21.66.42,1.35.57,2a10.3,10.3,0,0,1-4.75,10.86,10.19,10.19,0,0,1-10,.46ZM10.86,30.7a1.63,1.63,0,0,1,.7.72A4.29,4.29,0,0,1,11.93,33l0,.19a9.94,9.94,0,0,0,5.5,7.89A9.54,9.54,0,0,0,31,30.68a19.36,19.36,0,0,0-.54-2c-.1-.31-.2-.63-.29-.95a.42.42,0,0,1,.15-.44A6.83,6.83,0,0,1,37.42,27a.4.4,0,0,1,.19.46l0,.1a2.5,2.5,0,0,1-.07.26,9.94,9.94,0,0,0-.22,5.74,9.5,9.5,0,0,0,10.59,7,9.35,9.35,0,0,0,7.71-5.91,8.51,8.51,0,0,0,.51-3,11.24,11.24,0,0,1,.34-2.59,2.33,2.33,0,0,1,.47-.93,1,1,0,0,1,.41-.32,1.44,1.44,0,0,1,.47-.09l2.69-.15a.93.93,0,0,0,.87-1c0-.55-.3-.76-1-.81h-.69a12.43,12.43,0,0,1-6.29-1.58L52.84,24a13.55,13.55,0,0,0-1.76-.85,13.1,13.1,0,0,0-6.9-.38,8.41,8.41,0,0,0-5.39,2.88,1.19,1.19,0,0,1-1.6.4,7.44,7.44,0,0,0-4-.54,8,8,0,0,0-3,1.05A1,1,0,0,1,29,26.38l-.2-.16a14.58,14.58,0,0,0-2.11-1.44,10,10,0,0,0-4.95-.89c-3.35.08-5.7,1.45-8.42,3l-1.72,1a8.08,8.08,0,0,1-3.87.83l-.66,0a1,1,0,0,0-.64.31,1,1,0,0,0-.23.67.91.91,0,0,0,.31.63.89.89,0,0,0,.66.23c.23,0,.5-.05.8-.09A5.06,5.06,0,0,1,10.86,30.7Zm6.91,9-.46-.27a8.67,8.67,0,0,1-3.89-7,6.36,6.36,0,0,1,2-5.05,7.49,7.49,0,0,1,3.63-1.7,12.88,12.88,0,0,1,5.27-.09A6.15,6.15,0,0,1,29.67,31a8.13,8.13,0,0,1-5,9h0A8,8,0,0,1,17.77,39.68Zm8.45-12.61a7.09,7.09,0,0,0-2-.72,12.11,12.11,0,0,0-4.93.09A6.65,6.65,0,0,0,16,28a5.53,5.53,0,0,0-1.76,4.4,7.86,7.86,0,0,0,3.51,6.37,7.18,7.18,0,0,0,6.59.59h0a7.33,7.33,0,0,0,4.52-8.13A5.36,5.36,0,0,0,26.22,27.07ZM24.49,39.69Zm18.06-1.53A7.91,7.91,0,0,1,39,34.25a8.37,8.37,0,0,1,.1-6.59,6,6,0,0,1,4.09-3.24,12.91,12.91,0,0,1,6.46-.24,6.13,6.13,0,0,1,5,5.53c0,.2,0,.4.07.55v.15a8.29,8.29,0,0,1-3.27,7.2,8.17,8.17,0,0,1-7.74,1.09h0A8.5,8.5,0,0,1,42.55,38.16Zm8.59-12.58a6,6,0,0,0-1.63-.6,12.09,12.09,0,0,0-6,.23A5.25,5.25,0,0,0,39.88,28a7.49,7.49,0,0,0-.08,5.93,7.09,7.09,0,0,0,4.22,4h0a7.34,7.34,0,0,0,9.91-7.45v-.13c0-.15,0-.34-.06-.54A5.37,5.37,0,0,0,51.14,25.58Z"/></g></g></svg>