<svg xmlns="http://www.w3.org/2000/svg" xmlns:xlink="http://www.w3.org/1999/xlink" viewBox="0 0 93.31 92.99"><defs><style>.cls-1{fill:#f6b707;}.cls-2{fill:none;}.cls-3{fill:#4f22f2;}.cls-4{isolation:isolate;}.cls-5{fill:url(#Unnamed_Pattern_8);}.cls-6{fill:#fefefe;}.cls-7{fill:#3e09b2;}.cls-8{fill:#2ce2d4;}.cls-9{fill:#79b598;}.cls-10{fill:#f85c09;}.cls-11{fill:#fff;}.cls-12{fill:#f98308;}.cls-13{opacity:0.69;mix-blend-mode:soft-light;}.cls-14{opacity:0.76;mix-blend-mode:screen;}.cls-15{fill:#ffe2c3;}</style><pattern id="Unnamed_Pattern_8" data-name="Unnamed Pattern 8" width="54.16" height="92.59" patternTransform="matrix(-0.14, 0.02, 0.02, 0.14, -134.91, 149.37)" patternUnits="userSpaceOnUse" viewBox="0 0 54.16 92.59"><rect class="cls-2" width="54.16" height="92.59"/><polygon class="cls-3" points="33.38 76.69 36.59 73.47 46.11 82.99 42.9 86.2 33.38 76.69"/><polygon class="cls-3" points="12.7 76.69 15.91 79.91 6.4 89.42 3.19 86.21 12.7 76.69"/><polygon class="cls-3" points="26.42 90.11 29.64 93.32 20.12 102.83 16.91 99.62 26.42 90.11"/><polygon class="cls-3" points="23.43 57.21 26.64 54 36.15 63.52 32.94 66.73 23.43 57.21"/><polygon class="cls-3" points="6.3 30.39 9.51 27.18 19.03 36.69 15.81 39.9 6.3 30.39"/><polygon class="cls-3" points="39.78 30.39 42.99 33.61 33.48 43.12 30.27 39.91 39.78 30.39"/><polygon class="cls-3" points="53.5 43.81 56.72 47.02 47.2 56.53 43.99 53.32 53.5 43.81"/><polygon class="cls-3" points="10.22 56.01 13.44 59.22 3.92 68.74 0.71 65.53 10.22 56.01"/><polygon class="cls-3" points="-0.66 43.81 2.56 47.02 -6.96 56.53 -10.17 53.32 -0.66 43.81"/><polygon class="cls-3" points="50.51 10.92 53.72 7.7 63.23 17.22 60.02 20.43 50.51 10.92"/><polygon class="cls-3" points="37.3 9.71 40.52 12.93 31 22.44 27.79 19.23 37.3 9.71"/><polygon class="cls-3" points="-3.65 10.92 -0.44 7.7 9.07 17.22 5.86 20.43 -3.65 10.92"/><polygon class="cls-3" points="26.42 -2.49 29.64 0.72 20.12 10.24 16.91 7.03 26.42 -2.49"/></pattern></defs><g class="cls-4"><g id="Layer_2" data-name="Layer 2"><g id="OBJECTS"><path class="cls-5" d="M37.52,8.47a.4.4,0,0,1,.15,0l1.6,0A10.81,10.81,0,0,1,49.74,16a11.29,11.29,0,0,1,4.1-6.32,13.58,13.58,0,0,1,3-1.82,16.06,16.06,0,0,1,7-1.39.38.38,0,0,1,.14.72.41.41,0,0,1-.16,0,15.34,15.34,0,0,0-6.71,1.32,13.58,13.58,0,0,0-2.83,1.73A10.22,10.22,0,0,0,50.24,18l0,.82v.23l0,1.11a29.33,29.33,0,0,1,5.6.74,10.15,10.15,0,0,1,6.22,4.37,15.59,15.59,0,0,1,1.66,2.92,2.94,2.94,0,0,0,1.58,1.47,59.19,59.19,0,0,1,15,10.24A34.79,34.79,0,0,1,90.4,56.57a53.81,53.81,0,0,1,1.16,13.49v.36a51.7,51.7,0,0,1-.7,9.2v0c0,2.69-2.59,5.13-7,7.12-7.54,3.42-20.5,5.51-35.48,5.28-23.69-.38-42.15-6.42-42-13.75,0-.07,0-.13,0-.2a.31.31,0,0,1-.09-.18,67.2,67.2,0,0,1-.54-13.65,34.32,34.32,0,0,1,7.73-20.8c3.71-4.55,8.73-8.52,15.35-12.15,1.09-.59,2.24-1.13,3.38-1.65l.81-.36.77-.35.73-.33a2.28,2.28,0,0,0,1.06-.95,24.77,24.77,0,0,1,3.75-4.94,7.94,7.94,0,0,1,2.38-1.69A7.25,7.25,0,0,1,44,20.44c.49-.06,1-.1,1.45-.14A12.42,12.42,0,0,1,37.3,8.82a.4.4,0,0,1,.11-.27l.11-.08"/><path class="cls-6" d="M35.61,5.68h.11l1.59,0a10.82,10.82,0,0,1,10.47,7.57,11.32,11.32,0,0,1,4.11-6.31,14.4,14.4,0,0,1,4.8-2.51,16.15,16.15,0,0,1,5.22-.7.37.37,0,0,1,.37.38.38.38,0,0,1-.27.35.25.25,0,0,1-.12,0,15.78,15.78,0,0,0-5,.67A13.65,13.65,0,0,0,52.36,7.5a10.2,10.2,0,0,0-4.08,7.75l0,.81c0,.08,0,.16,0,.24v1.11a29.44,29.44,0,0,1,5.61.74,10.18,10.18,0,0,1,6.21,4.36,15.44,15.44,0,0,1,1.66,2.93,3,3,0,0,0,1.58,1.47,59.19,59.19,0,0,1,15,10.24,34.72,34.72,0,0,1,10,16.65A53.73,53.73,0,0,1,89.6,67.29v.36a50.79,50.79,0,0,1-.7,9.2v0c0,2.7-2.59,5.14-7,7.13a41.09,41.09,0,0,1-4.73,1.76c-7.69,2.36-18.55,3.71-30.75,3.51-23.69-.37-42.15-6.41-42-13.74a1.27,1.27,0,0,1,0-.2.38.38,0,0,1-.09-.18,68,68,0,0,1-.54-13.65,34.36,34.36,0,0,1,7.73-20.8c3.71-4.55,8.74-8.53,15.36-12.15,1.34-.74,2.78-1.39,4.18-2l1.5-.69a2.18,2.18,0,0,0,1.06-.95A24.7,24.7,0,0,1,37.37,20a7.59,7.59,0,0,1,3.25-2,8.33,8.33,0,0,1,1.42-.3c.49-.05,1-.1,1.45-.13a12.59,12.59,0,0,1-4.39-2.76,12.37,12.37,0,0,1-3.76-8.72.39.39,0,0,1,.11-.27.54.54,0,0,1,.16-.1M34.53,2.16A4.05,4.05,0,0,0,31.65,6.1a16,16,0,0,0,4,10.43c-.32.26-.63.55-.94.85a28.52,28.52,0,0,0-4.08,5.3l-1.11.5,0,0c-1.45.65-3,1.32-4.41,2.12-7,3.86-12.42,8.13-16.44,13.06a37.93,37.93,0,0,0-8.56,23A70.59,70.59,0,0,0,.69,75.78l0,.17c.16,3.71,2.92,8.75,14.63,12.58,8.2,2.68,19.22,4.26,31,4.44,12.21.2,23.53-1.11,31.89-3.67a42,42,0,0,0,5.17-1.93c7.21-3.27,9-7.24,9.13-10.11a56.4,56.4,0,0,0,.71-9.55v-.36A57.21,57.21,0,0,0,92,52.93,38.5,38.5,0,0,0,81,34.48,62.88,62.88,0,0,0,65,23.6a18.86,18.86,0,0,0-1.89-3.25,13.82,13.82,0,0,0-8.36-5.8c-.84-.19-1.7-.36-2.58-.49a7,7,0,0,1,2.51-3.68A10.05,10.05,0,0,1,58,8.65a12.06,12.06,0,0,1,3.81-.51,4.07,4.07,0,0,0,3-6.87A4,4,0,0,0,62,0a19.78,19.78,0,0,0-6.39.86,18.19,18.19,0,0,0-6,3.15A17.71,17.71,0,0,0,47.5,6,14.36,14.36,0,0,0,37.26,2L35.67,2a3.67,3.67,0,0,0-1.14.18Z"/><path class="cls-1" d="M4.7,75.1a67.09,67.09,0,0,1-.53-13.58A34.13,34.13,0,0,1,11.81,41,50.65,50.65,0,0,1,27.06,28.89c1.8-1,3.76-1.81,5.66-2.68A2.71,2.71,0,0,0,34,25.11a24.33,24.33,0,0,1,3.69-4.87A7.2,7.2,0,0,1,42.09,18a34.13,34.13,0,0,1,11.71.47,10,10,0,0,1,6,4.22,14.84,14.84,0,0,1,1.62,2.86,3.39,3.39,0,0,0,1.77,1.66A59.29,59.29,0,0,1,78.13,37.42a34.36,34.36,0,0,1,10,16.46,53.63,53.63,0,0,1,1.14,13.41,50.76,50.76,0,0,1-.79,10"/><path class="cls-7" d="M88.55,77.67a.38.38,0,0,1-.21,0,.41.41,0,0,1-.31-.49,49.29,49.29,0,0,0,.78-9.56v-.35A53,53,0,0,0,87.68,54a34.05,34.05,0,0,0-9.84-16.27A58.12,58.12,0,0,0,63,27.62a3.81,3.81,0,0,1-2-1.87A14.74,14.74,0,0,0,59.46,23a9.44,9.44,0,0,0-5.75-4.06,33.94,33.94,0,0,0-11.58-.46,6.78,6.78,0,0,0-4.2,2.08,24.52,24.52,0,0,0-3.63,4.78,3.05,3.05,0,0,1-1.41,1.27l-1.51.69c-1.38.62-2.81,1.26-4.12,2-6.54,3.58-11.48,7.49-15.13,12A33.55,33.55,0,0,0,4.58,61.53,67.12,67.12,0,0,0,5.1,75a.41.41,0,0,1-.33.47.4.4,0,0,1-.47-.34,66.49,66.49,0,0,1-.54-13.65,34.35,34.35,0,0,1,7.73-20.82c3.72-4.56,8.75-8.53,15.37-12.16,1.35-.73,2.79-1.38,4.18-2l1.51-.69a2.2,2.2,0,0,0,1-.93A24.52,24.52,0,0,1,37.35,20,7.53,7.53,0,0,1,42,17.63a34.74,34.74,0,0,1,11.85.48,10.25,10.25,0,0,1,6.24,4.38,15.51,15.51,0,0,1,1.66,2.94,2.93,2.93,0,0,0,1.57,1.45,59.19,59.19,0,0,1,15,10.24A34.84,34.84,0,0,1,88.47,53.79a53.38,53.38,0,0,1,1.16,13.5v.35a49.74,49.74,0,0,1-.8,9.73A.42.42,0,0,1,88.55,77.67Z"/><path class="cls-7" d="M47.81,24.2a.3.3,0,0,1-.13,0,.4.4,0,0,1-.4-.42l.21-8.57c.17-6.57,6.64-11.76,14.42-11.57a.42.42,0,0,1,.4.42.41.41,0,0,1-.42.4C54.56,4.3,48.47,9.13,48.31,15.25l-.21,8.57A.42.42,0,0,1,47.81,24.2Z"/><path class="cls-7" d="M50.46,24.23A7.4,7.4,0,0,1,44,23.16l-.7-.5a.41.41,0,0,1-.1-.57.41.41,0,0,1,.57-.1l.71.51a6.59,6.59,0,0,0,7.9-.18.41.41,0,1,1,.5.65A7.58,7.58,0,0,1,50.46,24.23Z"/><path class="cls-8" d="M47.91,17.9h0l0-1.6A10.43,10.43,0,0,0,37.32,6l-1.6,0h0A12,12,0,0,0,47.91,17.9Z"/><path class="cls-7" d="M48,18.29l-.11,0A12.45,12.45,0,0,1,35.31,6.05a.41.41,0,0,1,.41-.41l1.59,0a10.86,10.86,0,0,1,11,10.69l0,1.59A.4.4,0,0,1,48,18.29ZM36.15,6.45a11.6,11.6,0,0,0,11.35,11l0-1.17A10,10,0,0,0,37.32,6.43Z"/><line class="cls-9" x1="37.18" y1="7.25" x2="47.91" y2="17.9"/><path class="cls-7" d="M48,18.29a.42.42,0,0,1-.41-.1L36.89,7.54A.41.41,0,1,1,37.46,7L48.2,17.6a.41.41,0,0,1,0,.58A.39.39,0,0,1,48,18.29Z"/><path class="cls-10" d="M49.83,47a2.39,2.39,0,1,1-2.44-2.33A2.38,2.38,0,0,1,49.83,47Z"/><path class="cls-7" d="M48.24,49.65a3,3,0,0,1-.73.12,2.7,2.7,0,0,1-2.75-2.63,2.69,2.69,0,1,1,3.48,2.51Zm-1.4-4.55a1.94,1.94,0,0,0-.89.55,2.07,2.07,0,0,0,1.54,3.5,2.06,2.06,0,0,0,2-2.12h0a2,2,0,0,0-.64-1.45A2.09,2.09,0,0,0,47.4,45,2.13,2.13,0,0,0,46.84,45.1Z"/><path class="cls-10" d="M13.66,59.29c0,2,2.81,3.58,6.33,3.61s6.37-1.53,6.39-3.49-2.81-3.57-6.33-3.61S13.67,57.33,13.66,59.29Z"/><path class="cls-7" d="M23.22,62.76a10.85,10.85,0,0,1-3.24.45,9.85,9.85,0,0,1-4.64-1.12,3.36,3.36,0,0,1-2-2.8h0c0-2.16,3-3.83,6.71-3.79s6.65,1.75,6.63,3.91a3.34,3.34,0,0,1-2.05,2.76A7.55,7.55,0,0,1,23.22,62.76ZM14,59.29h0a2.77,2.77,0,0,0,1.69,2.26,9,9,0,0,0,4.34,1,9,9,0,0,0,4.36-1,2.75,2.75,0,0,0,1.72-2.22c0-1.76-2.74-3.27-6-3.3S14,57.54,14,59.29Z"/><path class="cls-11" d="M48.79,46.36a.88.88,0,1,1-.9-.85A.88.88,0,0,1,48.79,46.36Z"/><path class="cls-11" d="M15.92,58.15c0,.55.8,1,1.8,1s1.82-.44,1.83-1-.81-1-1.81-1S15.92,57.59,15.92,58.15Z"/><path class="cls-10" d="M68.17,61.09c-.06,2,2.75,3.63,6.26,3.73s6.4-1.41,6.46-3.37-2.75-3.63-6.26-3.73S68.22,59.13,68.17,61.09Z"/><path class="cls-7" d="M77.85,64.69a10.58,10.58,0,0,1-3.43.43c-3.74-.1-6.62-1.88-6.56-4A3.34,3.34,0,0,1,70,58.36a9.82,9.82,0,0,1,4.68-1c3.74.11,6.62,1.88,6.56,4.05C81.16,62.89,79.83,64.08,77.85,64.69Zm-6.43-6.26a6.93,6.93,0,0,0-1.18.48,2.8,2.8,0,0,0-1.77,2.19c0,1.75,2.69,3.32,6,3.41s6.09-1.32,6.14-3.07-2.68-3.32-6-3.41A10.22,10.22,0,0,0,71.42,58.43Z"/><path class="cls-11" d="M74.63,59.8c0,.56.71,1.09,1.71,1.19s1.85-.28,1.91-.84-.71-1.08-1.71-1.18S74.69,59.24,74.63,59.8Z"/><ellipse class="cls-11" cx="60.59" cy="48.71" rx="10.68" ry="8.19" transform="translate(8.21 106.15) rotate(-86.43)"/><path class="cls-7" d="M62.33,59.38a6.85,6.85,0,0,1-2.42.29,7.62,7.62,0,0,1-5.82-3.62,12.7,12.7,0,0,1-2-7.87h0c.38-6,4.49-10.73,9.17-10.43s8.17,5.44,7.8,11.49a12.77,12.77,0,0,1-2.94,7.56A8.35,8.35,0,0,1,62.33,59.38Zm-9.6-11.16a12.06,12.06,0,0,0,1.87,7.49,6.63,6.63,0,0,0,11.07.69,12.07,12.07,0,0,0,2.79-7.2c.36-5.71-2.88-10.57-7.22-10.84s-8.16,4.15-8.51,9.86Z"/><ellipse class="cls-11" cx="34.16" cy="47.73" rx="10.68" ry="8.19" transform="translate(-15.61 78.85) rotate(-86.43)"/><path class="cls-7" d="M35.89,58.41a6.85,6.85,0,0,1-2.42.29c-4.68-.3-8.17-5.45-7.8-11.49a12.78,12.78,0,0,1,2.94-7.57,7.65,7.65,0,0,1,6.23-2.87,7.64,7.64,0,0,1,5.82,3.62,13.37,13.37,0,0,1-1,15.44A8.35,8.35,0,0,1,35.89,58.41ZM32.61,37.65A7.71,7.71,0,0,0,29.08,40a12.09,12.09,0,0,0-2.79,7.2c-.36,5.71,2.88,10.57,7.22,10.84a7,7,0,0,0,5.72-2.65,12.78,12.78,0,0,0,.92-14.7,7,7,0,0,0-5.35-3.34A6,6,0,0,0,32.61,37.65Z"/><path class="cls-7" d="M47.65,55.07a6.35,6.35,0,0,1-1.93.25.41.41,0,0,1-.4-.42.41.41,0,0,1,.42-.4A4.74,4.74,0,0,0,48.13,54a1.48,1.48,0,0,0,.9-1.16c0-1-1.44-1.79-3.2-1.84a.4.4,0,0,1-.4-.42.41.41,0,0,1,.42-.4c2.28.06,4,1.24,4,2.68a2.25,2.25,0,0,1-1.32,1.85A5,5,0,0,1,47.65,55.07Z"/><path class="cls-7" d="M47.54,59.47a5.9,5.9,0,0,1-1.93.25.4.4,0,0,1-.4-.42.42.42,0,0,1,.42-.4c1.76.05,3.26-.72,3.29-1.67s-1.45-1.8-3.2-1.84a.41.41,0,0,1-.4-.42.4.4,0,0,1,.42-.4c2.28.06,4,1.23,4,2.68C49.71,58.25,48.83,59.08,47.54,59.47Z"/><path class="cls-7" d="M40.3,37.26a.84.84,0,0,1-.67-.09L34.41,34a.82.82,0,0,1-.27-1.13.82.82,0,0,1,1.13-.27l5.22,3.2a.83.83,0,0,1-.19,1.49Z"/><path class="cls-7" d="M55.37,37.63a.81.81,0,0,1-1-.39.82.82,0,0,1,.32-1.11l5.38-2.93a.82.82,0,1,1,.79,1.44l-5.38,2.93Z"/><path class="cls-7" d="M32.12,54.32a.62.62,0,0,1-.54-1.09l6.48-4.62-6.62-5.24a.61.61,0,1,1,.76-1l7.27,5.75a.6.6,0,0,1,.23.5.61.61,0,0,1-.25.48l-7.16,5.1A.53.53,0,0,1,32.12,54.32Z"/><path class="cls-7" d="M38.5,49.13l-.2,0L31.89,49a.62.62,0,0,1,0-1.23l6.41.16a.61.61,0,0,1,.6.63A.63.63,0,0,1,38.5,49.13Z"/><path class="cls-7" d="M62.48,55.09a.63.63,0,0,1-.56-.11L55,49.53A.59.59,0,0,1,54.8,49a.61.61,0,0,1,.25-.49l7.55-5.38a.62.62,0,0,1,.86.15.61.61,0,0,1-.15.86l-6.88,4.9L62.68,54a.61.61,0,0,1,.1.86A.69.69,0,0,1,62.48,55.09Z"/><path class="cls-7" d="M62.78,49.74a.44.44,0,0,1-.2,0l-6.41-.16a.62.62,0,0,1,0-1.23l6.41.16a.62.62,0,0,1,.17,1.21Z"/><path class="cls-11" d="M11.68,46.62a.58.58,0,0,1-.43,0,.61.61,0,0,1-.31-.81c.19-.43,4.83-10.56,19.61-16.55a.63.63,0,0,1,.8.34.62.62,0,0,1-.34.8c-14.29,5.79-18.9,15.81-19,15.91A.61.61,0,0,1,11.68,46.62Z"/><ellipse class="cls-11" cx="46.65" cy="76.21" rx="12.7" ry="41.87" transform="translate(-30.29 121.64) rotate(-89.09)"/><path class="cls-7" d="M77.22,85.76l-1,.29c-8,2.29-18.56,3.45-29.78,3.27s-21.76-1.68-29.66-4.21c-8.06-2.59-12.46-6-12.41-9.57S9,68.69,17.08,66.37s18.56-3.44,29.78-3.26c23.7.37,42.18,6.42,42.07,13.77C88.87,80.32,84.73,83.46,77.22,85.76ZM16.34,67.44c-7,2.17-11.1,5.1-11.15,8.11S9.46,81.9,17,84.33c7.83,2.51,18.28,4,29.42,4.17s21.64-1,29.55-3.24c7.64-2.19,12.06-5.24,12.11-8.39s-4.27-6.35-11.84-8.77c-7.83-2.52-18.28-4-29.42-4.17s-21.64,1-29.55,3.23Z"/><path class="cls-12" d="M45.83,78.36A22.8,22.8,0,0,1,42.74,78l-20.1,5.19a101.31,101.31,0,0,0,23.08,2.9.13.13,0,0,1,0-.06Z"/><path class="cls-7" d="M45.79,86.41h-.08a102.63,102.63,0,0,1-23.15-2.91.3.3,0,0,1,0-.59l20.1-5.19a.29.29,0,0,1,.13,0,21.89,21.89,0,0,0,3.06.33.32.32,0,0,1,.29.32L46,86.06a.33.33,0,0,1-.08.25A.4.4,0,0,1,45.79,86.41Zm-21.91-3.2A104.91,104.91,0,0,0,45.41,85.8l.11-7.15a23.21,23.21,0,0,1-2.77-.31Z"/><path class="cls-12" d="M40.25,77.13a3.28,3.28,0,0,1-.66-.41l-28.32-.45h-.13c.53,2.37,4.1,4.56,9.65,6.26C20.84,82.29,40.25,77.13,40.25,77.13Z"/><path class="cls-7" d="M40.34,77.42h0c-7.4,2-18.59,5-19.36,5.33l0,0a.29.29,0,0,1-.24,0c-4.12-1.26-9.17-3.41-9.86-6.48a.31.31,0,0,1,.07-.28.33.33,0,0,1,.28-.1h.08l28.32.45a.33.33,0,0,1,.19.08,3.16,3.16,0,0,0,.6.36.32.32,0,0,1,.18.31A.3.3,0,0,1,40.34,77.42ZM21.8,81.85c1.26-.39,3.74-1.07,8.66-2.41,3.72-1,7.44-2,9-2.41l-27.87-.45c.78,2,4,4,9.23,5.62A10,10,0,0,1,21.8,81.85Z"/><path class="cls-12" d="M45.91,73.64l.12-7.7a.11.11,0,0,1,0,0,101.76,101.76,0,0,0-23.16,2.16L42.8,73.88A22.35,22.35,0,0,1,45.91,73.64Z"/><path class="cls-7" d="M46,73.93l-.09,0a22.53,22.53,0,0,0-3.06.23.28.28,0,0,1-.13,0L22.79,68.34a.31.31,0,0,1-.22-.3.32.32,0,0,1,.24-.29A103.22,103.22,0,0,1,46,65.58a.3.3,0,0,1,.23.11.29.29,0,0,1,.07.24v0l-.13,7.67A.3.3,0,0,1,46,73.93Zm-3.18-.37a22.21,22.21,0,0,1,2.78-.22l.12-7.15a104.11,104.11,0,0,0-21.6,1.9Z"/><path class="cls-12" d="M53.12,75.05a3,3,0,0,1,.67.4l28.32.45h.13c-.54-2.36-4.1-4.55-9.65-6.25C72.53,69.89,53.12,75.05,53.12,75.05Z"/><path class="cls-7" d="M82.33,76.21a.33.33,0,0,1-.14,0H82.1l-28.32-.45a.34.34,0,0,1-.19-.07,2.71,2.71,0,0,0-.6-.37.3.3,0,0,1-.17-.3.29.29,0,0,1,.23-.27c7.4-2,18.59-5,19.35-5.34l0,0a.33.33,0,0,1,.24,0c4.11,1.26,9.16,3.41,9.86,6.49a.3.3,0,0,1-.08.27A.3.3,0,0,1,82.33,76.21ZM53.94,75.15l27.88.44c-.78-2-4-4-9.23-5.61-.63.27-2.7.86-9.67,2.75Z"/><path class="cls-12" d="M39.54,75.22a3.23,3.23,0,0,1,.68-.38s-19.24-5.77-19.29-6c-5.6,1.53-9.23,3.6-9.84,6h.13Z"/><path class="cls-7" d="M39.63,75.52h-.1l-28.32-.45h-.08a.34.34,0,0,1-.27-.1.33.33,0,0,1-.07-.28c.79-3.06,5.91-5,10.06-6.17a.33.33,0,0,1,.24,0l0,0c.75.36,11.84,3.74,19.17,6a.28.28,0,0,1,.22.27.3.3,0,0,1-.18.3,2.81,2.81,0,0,0-.61.35Zm-28.11-1,27.88.44c-1.53-.45-5.21-1.56-8.9-2.69-6.91-2.11-8.95-2.77-9.58-3.06C15.67,70.6,12.36,72.47,11.52,74.47Z"/><path class="cls-12" d="M53.77,76.8a3.29,3.29,0,0,1-.68.38s19.23,5.78,19.29,6c5.59-1.52,9.23-3.6,9.84-6h-.13Z"/><path class="cls-7" d="M73.84,83.09l-1.38.4a.29.29,0,0,1-.24,0,.05.05,0,0,1,0,0c-.75-.37-11.84-3.75-19.18-6a.32.32,0,0,1-.22-.28.32.32,0,0,1,.19-.3,3.32,3.32,0,0,0,.61-.34.26.26,0,0,1,.19-.07l28.32.45h.09a.28.28,0,0,1,.27.1.31.31,0,0,1,.07.28C81.81,80,77.67,81.91,73.84,83.09Zm-1.45-.22c5.25-1.44,8.56-3.32,9.4-5.32l-27.88-.44c1.52.46,5.21,1.57,8.89,2.7C69.72,81.92,71.76,82.58,72.39,82.87Z"/><path class="cls-12" d="M47.4,78.39l-.12,7.69a.43.43,0,0,1,0,0A101.19,101.19,0,0,0,70.43,84L50.5,78.15A23.69,23.69,0,0,1,47.4,78.39Z"/><path class="cls-7" d="M70.52,84.27h0a102.07,102.07,0,0,1-23.23,2.17.33.33,0,0,1-.23-.1A.32.32,0,0,1,47,86.1v0l.12-7.67a.31.31,0,0,1,.31-.3,21,21,0,0,0,3.06-.24h.13l19.92,5.83a.29.29,0,0,1,.22.3A.3.3,0,0,1,70.52,84.27ZM47.59,85.83a104.18,104.18,0,0,0,21.6-1.9L50.48,78.46a21.86,21.86,0,0,1-2.78.23Z"/><path class="cls-12" d="M47.47,73.66a22.78,22.78,0,0,1,3.1.34l20.1-5.19a101.87,101.87,0,0,0-23.08-2.9s0,0,0,.06Z"/><path class="cls-7" d="M70.76,69.1h0L50.65,74.3a.33.33,0,0,1-.14,0,23.35,23.35,0,0,0-3-.33.3.3,0,0,1-.29-.31l.12-7.7a.31.31,0,0,1,.08-.24.27.27,0,0,1,.23-.11,102.67,102.67,0,0,1,23.15,2.9.32.32,0,0,1,.23.3A.3.3,0,0,1,70.76,69.1Zm-20.2,4.58,18.87-4.87A104.26,104.26,0,0,0,47.9,66.23l-.11,7.14A23.44,23.44,0,0,1,50.56,73.68Z"/><g class="cls-13"><path class="cls-11" d="M74.14,42.07a1.4,1.4,0,1,1-1.83-.74A1.4,1.4,0,0,1,74.14,42.07Z"/><path class="cls-11" d="M73.38,44.34a1.83,1.83,0,0,1-1.2-.05,1.82,1.82,0,0,1-1-2.35,1.82,1.82,0,0,1,1-1,1.78,1.78,0,0,1,1.38,0,1.76,1.76,0,0,1,1,1,1.78,1.78,0,0,1,0,1.38,1.76,1.76,0,0,1-1,1Zm-.81-2.66-.1,0a1,1,0,0,0-.53.54A1,1,0,0,0,72,43a1,1,0,0,0,.54.53,1,1,0,1,0,.08-1.85Z"/></g><g class="cls-13"><path class="cls-11" d="M72.66,53.37a.69.69,0,0,1-.36.91A.7.7,0,1,1,71.75,53,.69.69,0,0,1,72.66,53.37Z"/><path class="cls-11" d="M72.35,54.7a1.17,1.17,0,0,1-.74,0,1.07,1.07,0,0,1-.6-.6,1.1,1.1,0,1,1,2-.86,1.07,1.07,0,0,1,0,.84,1.1,1.1,0,0,1-.59.61Zm-.41-1.33h0a.29.29,0,0,0-.15.37.31.31,0,0,0,.16.16.34.34,0,0,0,.22,0,.28.28,0,0,0,.15-.15.28.28,0,0,0-.35-.38Z"/></g><g class="cls-13"><path class="cls-11" d="M82,50.82a1.6,1.6,0,1,1-2.1-.84A1.59,1.59,0,0,1,82,50.82Z"/><path class="cls-11" d="M81.14,53.37a2,2,0,1,1,1.26-2.71h0a2,2,0,0,1-1.06,2.64Zm-.94-3.06-.12,0a1.21,1.21,0,0,0-.63,1.57,1.2,1.2,0,1,0,.75-1.61Z"/></g><g class="cls-14"><path class="cls-15" d="M44.27,72a.47.47,0,0,1-.72.37c-1.27-.79-3.76-2.64-1.45-3.82S44.36,70.47,44.27,72Z"/></g><g class="cls-14"><path class="cls-15" d="M42.28,79.7a.48.48,0,0,1,.68.44c-.06,1.5-.43,4.59-2.6,3.17S40.94,80.36,42.28,79.7Z"/></g><g class="cls-14"><path class="cls-15" d="M50.34,72.14a.67.67,0,0,1-.46-1.06C51.13,69.34,54,66,55.47,69.36S52.45,72.41,50.34,72.14Z"/></g></g></g></g></svg>