<svg xmlns="http://www.w3.org/2000/svg" xmlns:xlink="http://www.w3.org/1999/xlink" viewBox="0 0 87.7 100.79"><defs><style>.cls-1{fill:#54d7cf;}.cls-2,.cls-7{fill:#3e09b2;}.cls-2{clip-path:url(#clip-path);}.cls-3{fill:none;}.cls-4{fill:#4f22f2;}.cls-5{fill:url(#Unnamed_Pattern_8);}.cls-6{fill:#fefefe;}.cls-8{clip-path:url(#clip-path-2);}.cls-9{opacity:0.11;}.cls-10{fill:#f6b707;}.cls-11{fill:#fbf2e9;}.cls-12{fill:#f85c09;}.cls-13{fill:#fff;}.cls-14{fill:#fefcff;}</style><clipPath id="clip-path"><path class="cls-1" d="M79,39.51a36.13,36.13,0,0,0-4.31-5.67c-3.08-3.33-7-6.15-11.9-5.91-6.09.31-11.66,3.26-18,2.8a49,49,0,0,1-12.58-2.61c-2.65-.93-5.12-1.88-8-1.41C15,28.23,9,37.21,6,45.05c-4,10.5-2.51,21.87,2.07,32C12.21,86.24,21.73,98.57,33.81,96c3.17-.68,6.17-2.41,9.42-2.2,2.94.18,5.51,1.92,8.33,2.76a16,16,0,0,0,11.26-1.14C82.7,86.22,89.73,57.11,79,39.51Z"/></clipPath><pattern id="Unnamed_Pattern_8" data-name="Unnamed Pattern 8" width="54.16" height="92.59" patternTransform="matrix(-0.13, 0.02, 0.02, 0.13, -134.68, -45.35)" patternUnits="userSpaceOnUse" viewBox="0 0 54.16 92.59"><rect class="cls-3" width="54.16" height="92.59"/><polygon class="cls-4" points="33.38 76.69 36.59 73.47 46.11 82.99 42.9 86.2 33.38 76.69"/><polygon class="cls-4" points="12.7 76.69 15.91 79.91 6.4 89.42 3.19 86.21 12.7 76.69"/><polygon class="cls-4" points="26.42 90.11 29.64 93.32 20.12 102.83 16.91 99.62 26.42 90.11"/><polygon class="cls-4" points="23.43 57.21 26.64 54 36.15 63.52 32.94 66.73 23.43 57.21"/><polygon class="cls-4" points="6.3 30.39 9.51 27.18 19.03 36.69 15.81 39.9 6.3 30.39"/><polygon class="cls-4" points="39.78 30.39 42.99 33.61 33.48 43.12 30.27 39.91 39.78 30.39"/><polygon class="cls-4" points="53.5 43.81 56.72 47.02 47.2 56.53 43.99 53.32 53.5 43.81"/><polygon class="cls-4" points="10.22 56.01 13.44 59.22 3.92 68.74 0.71 65.53 10.22 56.01"/><polygon class="cls-4" points="-0.66 43.81 2.56 47.02 -6.96 56.53 -10.17 53.32 -0.66 43.81"/><polygon class="cls-4" points="50.51 10.92 53.72 7.7 63.23 17.22 60.02 20.43 50.51 10.92"/><polygon class="cls-4" points="37.3 9.71 40.52 12.93 31 22.44 27.79 19.23 37.3 9.71"/><polygon class="cls-4" points="-3.65 10.92 -0.44 7.7 9.07 17.22 5.86 20.43 -3.65 10.92"/><polygon class="cls-4" points="26.42 -2.49 29.64 0.72 20.12 10.24 16.91 7.03 26.42 -2.49"/></pattern><clipPath id="clip-path-2"><path class="cls-2" d="M27.26,96.39C18.5,94.56,11.48,85.62,7.69,77.23,4.14,69.37.9,57.38,5.61,44.9c1.89-5,7.47-16.77,18.56-18.59,2.82-.47,5.23.38,7.78,1.28l.41.15a48.45,48.45,0,0,0,12.47,2.58c3.49.25,6.84-.58,10.07-1.38a41.53,41.53,0,0,1,7.84-1.42c4.21-.21,8.32,1.82,12.22,6a35.54,35.54,0,0,1,4.36,5.73c5.45,8.92,6.61,21.14,3.09,32.7C79.09,82.94,72,91.6,63,95.76a16.48,16.48,0,0,1-11.56,1.17,29.45,29.45,0,0,1-3.09-1.19,15.44,15.44,0,0,0-5.15-1.56,15.42,15.42,0,0,0-6,1.2,33.42,33.42,0,0,1-3.36,1A15.77,15.77,0,0,1,27.26,96.39ZM28,27.24a9.75,9.75,0,0,0-3.7-.12C13.63,28.87,8.22,40.34,6.38,45.19,1.77,57.4,5,69.17,8.44,76.89,13,87,22.39,98,33.72,95.57a31.4,31.4,0,0,0,3.27-1,16.37,16.37,0,0,1,6.26-1.24A16.48,16.48,0,0,1,48.68,95a27.16,27.16,0,0,0,3,1.16,15.65,15.65,0,0,0,11-1.12c8.81-4.06,15.72-12.55,19-23.27,3.44-11.34,2.32-23.31-3-32h0a36.07,36.07,0,0,0-4.26-5.61c-3.79-4.08-7.57-6-11.57-5.77a40.38,40.38,0,0,0-7.69,1.39c-3.3.82-6.71,1.67-10.33,1.4a48.82,48.82,0,0,1-12.68-2.62l-.42-.15A30.76,30.76,0,0,0,28,27.24Z"/></clipPath></defs><g id="Layer_2" data-name="Layer 2"><g id="OBJECTS"><path class="cls-5" d="M26.37,6.14h.11L41,7.29a6.57,6.57,0,0,1,6,5.9L47.27,16A14.8,14.8,0,0,1,53,15.09a21.4,21.4,0,0,1,6.84,1.43l.52-1.22a.82.82,0,0,1,.77-.48.8.8,0,0,1,.3.06.81.81,0,0,1,.42,1.06l-.51,1.19c10.15,4.43,11,11.4,11,11.4l-5.25-2.05v0l-2.49-1-3.1-1.21-2.83-1.11L56,29.54c3.47.21,7.09.49,10.78.86a5.65,5.65,0,0,1,1.61.35,18.08,18.08,0,0,1,8.36,5.53,35.92,35.92,0,0,1,3.57,4.54c.25.38.5.75.73,1.13s.35.58.51.87a.75.75,0,0,1,.07.12c.14.26.29.52.43.79l0,0c.31.6.6,1.2.87,1.81h0c7.87,17.73.52,43.69-18,52.26a17.46,17.46,0,0,1-7.81,1.69A13.22,13.22,0,0,1,53.6,99c-2.82-.84-5.39-2.58-8.33-2.77H45c-3.15-.1-6.07,1.55-9.16,2.22a15.63,15.63,0,0,1-3.75.34c-10.29-.32-18.29-11.05-22-19.25C5.53,69.37,4.07,58,8,47.5c.16-.43.33-.85.51-1.28h0c.09-.22.18-.44.28-.66l0-.06c.05-.13.1-.25.16-.37a5.32,5.32,0,0,1,2.37-6.52A3.3,3.3,0,0,1,13,38.24l.24-.34h0l.35-.46c-1.2-.49-2.39-1-2.52-1.08a5.49,5.49,0,0,1-.89-7.67,6.22,6.22,0,0,1,2.53-2.07,4.22,4.22,0,0,1-.41-2.86l1-4.82,4.83,1a4.19,4.19,0,0,1,3.31,3.76,5.71,5.71,0,0,1,4.08-1.47,6.67,6.67,0,0,1,1.17.14,5.5,5.5,0,0,1,4.51,6.27c0,.08-.05.16-.07.25,2.89,0,7.37-.05,12.84.09L42.45,13.64a2,2,0,0,0-1.83-1.79L26.12,10.7A2.29,2.29,0,0,1,24,8.24h0a2.29,2.29,0,0,1,2.35-2.1m27.87,23.3,3-6.85-9.66-3.78,1,10.35c1.82.08,3.71.17,5.66.28m-33.87.19a.34.34,0,0,0,0-.2l0,.2m-.35.18a.3.3,0,0,0,.21,0l-.53-.11a.62.62,0,0,0,.22.15H20m31.87-4.14-.13-1.3.61.24-.46,1.06Z"/><path class="cls-6" d="M39.77,5A6.56,6.56,0,0,1,45,10.75l.27,2.78a16.19,16.19,0,0,1,9.08-.48,24.65,24.65,0,0,1,3.49,1l.52-1.21a.81.81,0,0,1,.91-.47.44.44,0,0,1,.15,0,.8.8,0,0,1,.42,1.06l-.51,1.18c10.16,4.43,11.05,11.41,11.05,11.41L65.09,24v0l-2.48-1-3.1-1.22-2.83-1.1-2.75,6.35c3.46.22,7.09.5,10.78.87a6.6,6.6,0,0,1,.88.13,4.34,4.34,0,0,1,.73.21,18.12,18.12,0,0,1,8.35,5.54,36.66,36.66,0,0,1,3.58,4.53c.25.38.5.76.73,1.14s.35.57.51.87l.06.11c.15.26.29.53.43.79l0,0c.31.59.6,1.19.87,1.81h0c7.87,17.73.52,43.68-18.05,52.25a16.45,16.45,0,0,1-10.19,1.42c-.36-.08-.72-.17-1.07-.28-2.4-.71-4.61-2.08-7-2.58a8.13,8.13,0,0,0-1.3-.18C40,93.56,37,95.29,33.81,96a15.32,15.32,0,0,1-6.43,0c-9-1.88-15.94-11.45-19.31-18.93C3.49,66.92,2,55.55,6,45.05c.16-.42.33-.85.5-1.28h0l.29-.66,0-.06c.06-.12.11-.25.17-.37a5.31,5.31,0,0,1,2.37-6.51,3.17,3.17,0,0,1,1.57-.38l.25-.33h0l.35-.45c-1.21-.5-2.4-1-2.53-1.09a5.48,5.48,0,0,1-.88-7.66,6.14,6.14,0,0,1,2.53-2.07,4.13,4.13,0,0,1-.41-2.86l1-4.83,4.83,1a4.21,4.21,0,0,1,3.31,3.76,5.85,5.85,0,0,1,5.18-1.34l.06,0a5.48,5.48,0,0,1,4.51,6.27c0,.07,0,.16-.06.24,2.88,0,7.37,0,12.84.1L40.41,11.2a2,2,0,0,0-1.57-1.76l-.26,0L24.07,8.26l-.29,0A2.26,2.26,0,0,1,22,5.8h0a2.28,2.28,0,0,1,2.45-2.1L38.94,4.85a5.72,5.72,0,0,1,.83.12m6.77,21.75c1.81.07,3.71.16,5.66.27l3-6.84-9.65-3.78,1,10.35m-28.22.46a.33.33,0,0,0,.05-.2l-.05.2m-.41.18a.44.44,0,0,0,.28,0l-.53-.12a.51.51,0,0,0,.22.15h0m22.62-26h0a9.6,9.6,0,0,0-1.31-.18L24.73,0A6,6,0,0,0,18.3,5.51,6,6,0,0,0,23,11.83a6.42,6.42,0,0,0,.75.1l13.09,1,1,9.82c-2,0-3.72,0-5.27,0a9.57,9.57,0,0,0-7.13-6.41l-.1,0a9.88,9.88,0,0,0-4.23,0,7.94,7.94,0,0,0-4.25-2.45l-4.83-1h0a3.69,3.69,0,0,0-4.37,2.84l-1,4.83a7.59,7.59,0,0,0-.16,2A9.55,9.55,0,0,0,5.1,24.11a9.39,9.39,0,0,0-.13,11,9.17,9.17,0,0,0-1.86,7.28l0,0h0c-.2.49-.38.94-.54,1.37A40.43,40.43,0,0,0,.15,61.49,51.73,51.73,0,0,0,4.7,78.58c4,8.78,11.8,18.91,21.93,21a19,19,0,0,0,8,0,33.26,33.26,0,0,0,3.72-1.1,13.14,13.14,0,0,1,4.7-1,5.7,5.7,0,0,1,.77.11,18.6,18.6,0,0,1,3.28,1.19,30.22,30.22,0,0,0,3.45,1.32c.45.14.91.25,1.37.35a20,20,0,0,0,12.5-1.68A36.36,36.36,0,0,0,77.45,88.43a45.12,45.12,0,0,0,7.82-14.59c3.56-11,3.19-22.71-1-32.2-.3-.69-.63-1.36-1-2l0-.06c-.15-.28-.31-.57-.49-.88a.54.54,0,0,0-.07-.13c-.19-.34-.38-.67-.57-1s-.53-.84-.81-1.25a39,39,0,0,0-3.94-5,28.68,28.68,0,0,0-3.8-3.46A3.7,3.7,0,0,0,74,25.62,14.24,14.24,0,0,0,71.72,20a22.86,22.86,0,0,0-8.19-7.38,4.49,4.49,0,0,0-2.68-3.61A5.19,5.19,0,0,0,60,8.77a4.49,4.49,0,0,0-3.77.94c-.39-.1-.76-.19-1.14-.27a21.79,21.79,0,0,0-6.66-.39,10.22,10.22,0,0,0-7.88-7.7Zm9.35,21.71L49.78,22l.48.19-.38.87Z"/><path class="cls-1" d="M79,39.51a36.13,36.13,0,0,0-4.31-5.67c-3.08-3.33-7-6.15-11.9-5.91-6.09.31-11.66,3.26-18,2.8a49,49,0,0,1-12.58-2.61c-2.65-.93-5.12-1.88-8-1.41C15,28.23,9,37.21,6,45.05c-4,10.5-2.51,21.87,2.07,32C12.21,86.24,21.73,98.57,33.81,96c3.17-.68,6.17-2.41,9.42-2.2,2.94.18,5.51,1.92,8.33,2.76a16,16,0,0,0,11.26-1.14C82.7,86.22,89.73,57.11,79,39.51Z"/><path class="cls-7" d="M27.26,96.39C18.5,94.56,11.48,85.62,7.69,77.23,4.14,69.37.9,57.38,5.61,44.9c1.89-5,7.47-16.77,18.56-18.59,2.82-.47,5.23.38,7.78,1.28l.41.15a48.45,48.45,0,0,0,12.47,2.58c3.49.25,6.84-.58,10.07-1.38a41.53,41.53,0,0,1,7.84-1.42c4.21-.21,8.32,1.82,12.22,6a35.54,35.54,0,0,1,4.36,5.73c5.45,8.92,6.61,21.14,3.09,32.7C79.09,82.94,72,91.6,63,95.76a16.48,16.48,0,0,1-11.56,1.17,29.45,29.45,0,0,1-3.09-1.19,15.44,15.44,0,0,0-5.15-1.56,15.42,15.42,0,0,0-6,1.2,33.42,33.42,0,0,1-3.36,1A15.77,15.77,0,0,1,27.26,96.39ZM28,27.24a9.75,9.75,0,0,0-3.7-.12C13.63,28.87,8.22,40.34,6.38,45.19,1.77,57.4,5,69.17,8.44,76.89,13,87,22.39,98,33.72,95.57a31.4,31.4,0,0,0,3.27-1,16.37,16.37,0,0,1,6.26-1.24A16.48,16.48,0,0,1,48.68,95a27.16,27.16,0,0,0,3,1.16,15.65,15.65,0,0,0,11-1.12c8.81-4.06,15.72-12.55,19-23.27,3.44-11.34,2.32-23.31-3-32h0a36.07,36.07,0,0,0-4.26-5.61c-3.79-4.08-7.57-6-11.57-5.77a40.38,40.38,0,0,0-7.69,1.39c-3.3.82-6.71,1.67-10.33,1.4a48.82,48.82,0,0,1-12.68-2.62l-.42-.15A30.76,30.76,0,0,0,28,27.24Z"/><g class="cls-8"><g class="cls-9"><path class="cls-7" d="M81.29,45.05c2.59,16.44-5,35.78-20.54,42.93a16,16,0,0,1-11.19,1.13c-2.8-.84-5.35-2.56-8.27-2.75-3.23-.2-6.21,1.51-9.36,2.19-12,2.59-21.45-9.67-25.57-18.78C5.64,68.16,5,66.52,4.43,64.85a49.5,49.5,0,0,0,3.7,11.81C12.24,85.77,21.7,98,33.7,95.44c3.15-.68,6.13-2.39,9.35-2.19,2.93.18,5.48,1.91,8.28,2.75a15.94,15.94,0,0,0,11.19-1.14C80.25,86.68,87.68,62.55,81.29,45.05Z"/><path class="cls-7" d="M27.19,95.86c-8.7-1.82-15.67-10.7-19.43-19A50.16,50.16,0,0,1,4,64.92l.8-.2A50.36,50.36,0,0,0,6.74,69.6c4.54,10.07,13.85,21,25.11,18.55a28.61,28.61,0,0,0,3.24-1A16.39,16.39,0,0,1,41.31,86a16.19,16.19,0,0,1,5.39,1.62,26.94,26.94,0,0,0,3,1.15,15.59,15.59,0,0,0,10.9-1.11c16.35-7.55,22.66-27.53,20.3-42.5l.79-.2c3.17,8.67,3,19.13-.34,28.68-3.56,10-10.18,17.74-18.64,21.65a16.36,16.36,0,0,1-11.48,1.15,29.05,29.05,0,0,1-3.07-1.18A15.43,15.43,0,0,0,43,93.66a15.4,15.4,0,0,0-5.91,1.19,33,33,0,0,1-3.34,1A15.74,15.74,0,0,1,27.19,95.86Zm-21-25.5A53.29,53.29,0,0,0,8.5,76.49c4.55,10.07,13.85,21,25.11,18.55a31.05,31.05,0,0,0,3.25-1,16.31,16.31,0,0,1,6.22-1.23,16.48,16.48,0,0,1,5.39,1.61,29.15,29.15,0,0,0,3,1.16,15.54,15.54,0,0,0,10.9-1.12c16.93-7.82,23.49-29,19.78-45.13.68,14.57-6,32-21.2,39a16.39,16.39,0,0,1-11.49,1.16,28.94,28.94,0,0,1-3.06-1.19,15.73,15.73,0,0,0-5.12-1.55A15.73,15.73,0,0,0,35.36,88,29.77,29.77,0,0,1,32,89C20.44,91.45,10.92,80.59,6.18,70.36Z"/></g></g><path class="cls-7" d="M25.55,26.54A329.17,329.17,0,0,1,64.7,28C79.43,29.43,19.49,52.16,25.55,26.54Z"/><path class="cls-7" d="M32.67,38.59a12.74,12.74,0,0,1-4.48-1.77c-3.14-2.12-4.16-5.6-3-10.37l.08-.31h.31a333.65,333.65,0,0,1,39.2,1.42c1.61.16,2.48.58,2.67,1.3S67,30.39,65.7,31.34c-3.33,2.38-10.81,5.14-17.79,6.59C44,38.73,37.73,39.64,32.67,38.59ZM25.88,26.94c-.93,4.25,0,7.34,2.76,9.19a11.82,11.82,0,0,0,4.23,1.67c10,2.08,27.1-3.38,32.36-7.13,1.13-.8,1.46-1.36,1.39-1.61s-.62-.56-2-.7A334.5,334.5,0,0,0,25.88,26.94Z"/><path class="cls-10" d="M45.36,38A2.28,2.28,0,0,1,42.86,36L40.41,11.2a2,2,0,0,0-1.83-1.8L24.07,8.26A2.29,2.29,0,0,1,22,5.8h0a2.28,2.28,0,0,1,2.45-2.1L38.94,4.85a6.56,6.56,0,0,1,6,5.9l2.45,24.77a2.29,2.29,0,0,1-2,2.5Z"/><path class="cls-7" d="M44.58,38.39A2.71,2.71,0,0,1,42.45,36L40,11.24a1.58,1.58,0,0,0-1.45-1.43L24,8.66a2.69,2.69,0,0,1,.43-5.37L39,4.44a7,7,0,0,1,6.39,6.27l2.45,24.77a2.69,2.69,0,0,1-2.41,3h0A2.79,2.79,0,0,1,44.58,38.39ZM38.93,9a2.4,2.4,0,0,1,1.89,2.12l2.45,24.77a1.88,1.88,0,0,0,2,1.69h0A1.89,1.89,0,0,0,47,35.56L44.55,10.79A6.16,6.16,0,0,0,38.9,5.25L24.4,4.11a1.88,1.88,0,1,0-.29,3.74L38.61,9Z"/><path class="cls-11" d="M48.36,38.64a.73.73,0,0,1-.29-.07.8.8,0,0,1-.42-1.06L58.32,12.86a.81.81,0,1,1,1.48.64L49.13,38.15A.81.81,0,0,1,48.36,38.64Z"/><path class="cls-7" d="M48.14,39A1.09,1.09,0,0,1,47.9,39a1.22,1.22,0,0,1-.63-1.6L58,12.69a1.17,1.17,0,0,1,.66-.65,1.22,1.22,0,0,1,1.57,1.62L49.51,38.32a1.21,1.21,0,0,1-1.16.73Zm11-26.23a.34.34,0,0,0-.22,0,.38.38,0,0,0-.22.21L48,37.67a.42.42,0,0,0,.21.53.35.35,0,0,0,.14,0h0a.4.4,0,0,0,.38-.24L59.43,13.34a.4.4,0,0,0-.21-.53Z"/><path class="cls-12" d="M70.34,26.09,59.5,21.84,42.33,15.12S48,10,58.72,14.43,70.34,26.09,70.34,26.09Z"/><path class="cls-7" d="M70.25,26.49l-.06,0-28-11a.43.43,0,0,1-.26-.31.41.41,0,0,1,.13-.38c.24-.22,6-5.23,16.82-.77S70.7,25.73,70.74,26a.41.41,0,0,1-.15.37A.42.42,0,0,1,70.25,26.49ZM43.18,15,69.76,25.42c-.56-1.9-2.82-7.15-11.2-10.61S44.84,13.93,43.18,15Z"/><path class="cls-10" d="M58.76,14.42s2.38,2.72.59,7.34l5.73,2.29S65.51,18.42,58.76,14.42Z"/><path class="cls-7" d="M65,24.45l-.07,0L59.2,22.14a.41.41,0,0,1-.23-.53c1.67-4.34-.49-6.89-.52-6.92a.41.41,0,0,1,0-.53.4.4,0,0,1,.52-.09c6.89,4.08,6.54,9.77,6.52,10a.42.42,0,0,1-.19.32A.36.36,0,0,1,65,24.45Zm-5.12-2.92,4.79,1.91c-.09-1.35-.72-4.8-4.73-7.75A8.34,8.34,0,0,1,59.88,21.53Z"/><path class="cls-10" d="M58.35,14.23s-3.62.42-5.5,5L47.14,17S50.66,12.61,58.35,14.23Z"/><path class="cls-7" d="M52.77,19.63l-.07,0L47,17.39a.41.41,0,0,1-.17-.64c.15-.19,3.76-4.57,11.6-2.93a.43.43,0,0,1,.34.43.42.42,0,0,1-.36.39c-.14,0-3.41.47-5.17,4.75A.41.41,0,0,1,52.77,19.63Zm-4.91-2.78,4.77,1.86a8.46,8.46,0,0,1,4-4.34C51.7,13.84,48.85,15.93,47.86,16.85Z"/><path class="cls-13" d="M19.38,44.06c2.76-.48,5.43-1.27,8.18-1.78,10.24-1.89,19.44,5,29.83,3.64,6-.77,11.38-3.33,17.52-3.21,1.93,0,3.94.24,6,.43A31.25,31.25,0,0,0,79,39.51a36.13,36.13,0,0,0-4.31-5.67c-3.08-3.33-7-6.15-11.9-5.91-6.09.31-11.66,3.26-18,2.8a49,49,0,0,1-12.58-2.61c-2.65-.93-5.12-1.88-8-1.41C15.46,28.15,9.62,36.27,6.5,43.77A34.65,34.65,0,0,0,19.38,44.06Z"/><path class="cls-7" d="M6.75,44.25l-.33-.07A.44.44,0,0,1,6.14,44a.37.37,0,0,1,0-.34C8,39,13.64,28,24.17,26.31c2.82-.47,5.23.38,7.78,1.28l.41.15a48.54,48.54,0,0,0,12.47,2.58c3.49.25,6.84-.58,10.07-1.38a41.53,41.53,0,0,1,7.84-1.42c4.21-.21,8.32,1.82,12.22,6a35.54,35.54,0,0,1,4.36,5.73A31.93,31.93,0,0,1,81.24,43a.41.41,0,0,1-.41.58l-.66-.06c-1.83-.17-3.56-.34-5.26-.37A38.47,38.47,0,0,0,64.52,44.8a55.54,55.54,0,0,1-7.08,1.52c-5.12.66-10-.65-14.7-1.92-5.11-1.37-9.93-2.67-15.11-1.72-1.29.24-2.59.55-3.84.85-1.42.33-2.88.68-4.34.93h0A35,35,0,0,1,6.75,44.25ZM28,27.24a9.75,9.75,0,0,0-3.7-.12C14.51,28.72,9.11,38.75,7.08,43.48a34.41,34.41,0,0,0,12.23.17h0c1.44-.24,2.89-.59,4.29-.92s2.57-.61,3.88-.85c5.37-1,10.5.39,15.47,1.73,4.63,1.25,9.42,2.54,14.38,1.9a56.49,56.49,0,0,0,7-1.5A39,39,0,0,1,74.92,42.3c1.72,0,3.53.2,5.28.36a30.49,30.49,0,0,0-1.58-2.94,36.07,36.07,0,0,0-4.26-5.61c-3.79-4.08-7.57-6-11.57-5.77a40.38,40.38,0,0,0-7.69,1.39c-3.3.82-6.71,1.67-10.33,1.4a48.82,48.82,0,0,1-12.68-2.62l-.42-.15A30.76,30.76,0,0,0,28,27.24Z"/><g class="cls-9"><path class="cls-7" d="M78.24,38.37c-1.08-.09-2.14-.16-3.18-.18-6.15-.12-11.55,2.44-17.53,3.21-10.39,1.34-19.59-5.53-29.83-3.64-2.75.51-5.42,1.31-8.18,1.78a35,35,0,0,1-11,.06,44.08,44.08,0,0,0-2,4.17,34.65,34.65,0,0,0,12.88.29c2.76-.48,5.43-1.27,8.18-1.78,10.24-1.89,19.44,5,29.83,3.64,6-.77,11.38-3.33,17.52-3.21,1.93,0,3.94.24,6,.43A31.25,31.25,0,0,0,79,39.51C78.74,39.13,78.49,38.75,78.24,38.37Z"/><path class="cls-7" d="M6.75,44.25l-.33-.07-.48-.11.19-.45a41.85,41.85,0,0,1,2-4.21l.14-.26.28.05a34.81,34.81,0,0,0,10.88-.06c1.44-.25,2.89-.59,4.29-.93s2.58-.61,3.89-.85c5.36-1,10.5.39,15.46,1.73,4.64,1.25,9.42,2.54,14.39,1.9a55.09,55.09,0,0,0,7-1.5,39.3,39.3,0,0,1,10.6-1.71c.92,0,1.91.08,3.21.18l.2,0,.11.17c.25.38.5.76.74,1.14A31.93,31.93,0,0,1,81.24,43l.29.64-1.36-.12c-1.83-.17-3.56-.34-5.26-.37A38.47,38.47,0,0,0,64.52,44.8a55.54,55.54,0,0,1-7.08,1.52c-5.12.66-10-.65-14.7-1.92-5.11-1.37-9.93-2.67-15.11-1.72-1.29.24-2.59.55-3.84.85-1.42.33-2.88.68-4.34.93A35,35,0,0,1,6.75,44.25Zm2-4.2c-.6,1.1-1.15,2.25-1.66,3.43a34.47,34.47,0,0,0,12.24.17c1.44-.24,2.89-.59,4.29-.92s2.57-.61,3.88-.85c5.37-1,10.5.39,15.47,1.73,4.63,1.25,9.42,2.54,14.38,1.9a56.1,56.1,0,0,0,7-1.5A39,39,0,0,1,74.92,42.3c1.72,0,3.53.2,5.28.36a30.49,30.49,0,0,0-1.58-2.94c-.2-.32-.4-.64-.61-.95-1.19-.1-2.11-.15-3-.17a38.09,38.09,0,0,0-10.39,1.69,58.79,58.79,0,0,1-7.08,1.52c-5.12.66-10-.66-14.7-1.92-5.11-1.38-9.93-2.68-15.11-1.72-1.29.23-2.59.54-3.84.84-1.42.34-2.88.68-4.34.94A35.29,35.29,0,0,1,8.73,40.05Z"/></g><path class="cls-7" d="M53.9,52.39a.53.53,0,0,1-.17-.08.41.41,0,0,1-.07-.58,3.76,3.76,0,0,1,5.84-.11.4.4,0,0,1,0,.57.41.41,0,0,1-.58,0,2.94,2.94,0,0,0-2.26-1,2.91,2.91,0,0,0-2.3,1.14A.41.41,0,0,1,53.9,52.39Z"/><path class="cls-7" d="M29.22,50.59a.39.39,0,0,1-.19-.1.4.4,0,0,1,0-.57,3.76,3.76,0,0,1,5.83.27.41.41,0,0,1-.08.58.42.42,0,0,1-.58-.09,2.93,2.93,0,0,0-4.56-.22A.39.39,0,0,1,29.22,50.59Z"/><path class="cls-7" d="M42.88,72.08A3.16,3.16,0,0,1,40.37,69a.41.41,0,0,1,.41-.41.41.41,0,0,1,.41.41,2.33,2.33,0,1,0,4.66,0,.42.42,0,0,1,.41-.41.41.41,0,0,1,.41.41,3.14,3.14,0,0,1-3.15,3.15A2.67,2.67,0,0,1,42.88,72.08Z"/><path class="cls-7" d="M38.82,70.41a.44.44,0,0,1-.33-.36.41.41,0,0,1,.36-.45h0c.08,0,1.79-.24,1.68-1.69a.41.41,0,1,1,.82-.06A2.5,2.5,0,0,1,39,70.41.56.56,0,0,1,38.82,70.41Z"/><path class="cls-7" d="M47.85,70.43a2.42,2.42,0,0,1-2.14-2.52.4.4,0,0,1,.44-.38.41.41,0,0,1,.37.44c-.11,1.45,1.6,1.68,1.68,1.69a.41.41,0,0,1-.1.81Z"/><path class="cls-10" d="M45.56,64.27a2,2,0,0,1-4,0,2,2,0,1,1,4,0Z"/><path class="cls-7" d="M43.08,66.63a2.4,2.4,0,1,1,.51.05A1.7,1.7,0,0,1,43.08,66.63Zm.82-3.89a1.86,1.86,0,0,0-.34,0,1.58,1.58,0,0,0,0,3.16,1.57,1.57,0,0,0,1.57-1.59h0A1.57,1.57,0,0,0,43.9,62.74Z"/><path class="cls-10" d="M18.33,75c-.14,2.08,2.77,4,6.49,4.21s6.86-1.23,7-3.31-2.77-4-6.5-4.21S18.46,72.88,18.33,75Z"/><path class="cls-7" d="M23.06,79.34c-3.11-.65-5.28-2.43-5.14-4.41h0a3.63,3.63,0,0,1,2.38-2.88,10.55,10.55,0,0,1,5.05-.82c4,.27,7,2.31,6.88,4.65s-3.42,4-7.44,3.69A13.37,13.37,0,0,1,23.06,79.34Zm3.8-7.08a12.92,12.92,0,0,0-1.57-.21,9.49,9.49,0,0,0-4.64.75A2.83,2.83,0,0,0,18.74,75h0c-.13,1.82,2.67,3.55,6.11,3.77s6.44-1.11,6.56-2.93C31.51,74.29,29.54,72.82,26.86,72.26Z"/><path class="cls-13" d="M44.7,63.7A.73.73,0,1,1,44,63,.73.73,0,0,1,44.7,63.7Z"/><path class="cls-13" d="M20.79,73.87c0,.6.79,1.14,1.86,1.21s2-.36,2-1-.79-1.13-1.85-1.2S20.83,73.28,20.79,73.87Z"/><path class="cls-10" d="M54.36,77.1c-.14,2.08,2.77,4,6.5,4.21s6.86-1.23,7-3.31-2.77-4-6.49-4.21S54.5,75,54.36,77.1Z"/><path class="cls-7" d="M59.12,81.49a9.66,9.66,0,0,1-3.18-1.25,3.18,3.18,0,0,1,.4-6,11.34,11.34,0,0,1,9.94.66,3.19,3.19,0,0,1-.4,6,10.55,10.55,0,0,1-5,.82A13.54,13.54,0,0,1,59.12,81.49Zm3.81-7.08a11.65,11.65,0,0,0-1.6-.21,9.61,9.61,0,0,0-4.64.74,2.89,2.89,0,0,0-1.92,2.19h0a2.89,2.89,0,0,0,1.62,2.42,10.54,10.54,0,0,0,9.14.61,2.39,2.39,0,0,0,.3-4.61A8.71,8.71,0,0,0,62.93,74.41Z"/><path class="cls-13" d="M61.28,76c-.08.58.71,1.18,1.76,1.32s2-.21,2.06-.8-.71-1.18-1.76-1.33S61.36,75.41,61.28,76Z"/><path class="cls-13" d="M38.35,61.15c.2,5.07-2.79,9.31-6.69,9.46s-7.21-3.83-7.41-8.9,2.79-9.32,6.68-9.47S38.14,56.07,38.35,61.15Z"/><path class="cls-7" d="M30.24,70.9c-3.46-.72-6.22-4.51-6.4-9.18-.21-5.29,3-9.73,7.08-9.89s7.63,4,7.84,9.3h0c.21,5.29-3,9.73-7.08,9.89A5.76,5.76,0,0,1,30.24,70.9Zm2-18.15a5.24,5.24,0,0,0-1.25-.1c-3.66.14-6.48,4.2-6.29,9s3.33,8.66,7,8.52,6.48-4.21,6.29-9h0C37.77,56.88,35.3,53.4,32.2,52.75Z"/><path class="cls-7" d="M33.14,54c-2.22.08-4,2.7-4.25,6.09l4.54,1.22L29,62.84c.53,3.37,2.49,5.86,4.73,5.77,2.52-.1,4.44-3.46,4.28-7.5S35.67,53.88,33.14,54Z"/><path class="cls-7" d="M32.94,69c-2.07-.43-3.84-2.82-4.35-6a.42.42,0,0,1,.27-.46L32,61.34l-3.26-.87a.41.41,0,0,1-.3-.43c.3-3.66,2.25-6.38,4.65-6.47h0a4.31,4.31,0,0,1,3.67,2.19,10.33,10.33,0,0,1,1.62,5.34c.17,4.26-1.93,7.81-4.68,7.92A3.06,3.06,0,0,1,32.94,69Zm-3.48-5.84c.58,3,2.34,5.17,4.25,5.09,2.29-.09,4-3.26,3.89-7.07a9.52,9.52,0,0,0-1.48-4.91,3.53,3.53,0,0,0-3-1.83h0c-1.91.07-3.48,2.31-3.83,5.38l4.21,1.13a.41.41,0,0,1,0,.78ZM33.14,54h0Z"/><path class="cls-14" d="M36.35,58.6a3.13,3.13,0,0,0-2,2.68h0a3,3,0,0,0-1.83-2.76s1.29-.07,2-2.26c0,0,0,0,0,0v0C35.06,58.47,36.35,58.6,36.35,58.6Z"/><path class="cls-13" d="M63,63.45c-.21,5.08-3.53,9.06-7.42,8.9s-6.88-4.41-6.67-9.48,3.53-9.06,7.42-8.9S63.24,58.38,63,63.45Z"/><path class="cls-7" d="M54.63,72.64c-3.63-.76-6.3-4.91-6.1-9.79A11.06,11.06,0,0,1,51,56.2a6.37,6.37,0,0,1,10.62.43,11.1,11.1,0,0,1,1.87,6.84h0c-.21,5.29-3.74,9.46-7.85,9.29A7.41,7.41,0,0,1,54.63,72.64Zm2.55-18.15a5.71,5.71,0,0,0-.83-.11,5.92,5.92,0,0,0-4.77,2.34,10.26,10.26,0,0,0-2.23,6.17c-.2,4.84,2.61,8.89,6.27,9s6.8-3.67,7-8.51h0a10.23,10.23,0,0,0-1.72-6.32A6.11,6.11,0,0,0,57.18,54.49Z"/><path class="cls-7" d="M52.38,64.05a.41.41,0,0,1-.32-.44,4,4,0,0,1,8.07.22.41.41,0,0,1-.39.43.41.41,0,0,1-.43-.39,3.23,3.23,0,0,0-6.43-.18.42.42,0,0,1-.46.37Z"/><path class="cls-1" d="M11.26,16.49l4.83,1a4.2,4.2,0,0,1,3.23,5l-1,4.83-4.83-1a4.2,4.2,0,0,1-3.23-5Z"/><path class="cls-7" d="M18.21,27.74h0l-4.82-1a4.62,4.62,0,0,1-3.55-5.48l1-4.83a.4.4,0,0,1,.48-.31h0l4.82,1a4.62,4.62,0,0,1,3.55,5.48l-1,4.82a.42.42,0,0,1-.48.32ZM11.58,17l-.95,4.42a3.81,3.81,0,0,0,2.92,4.51l4.42.94,1-4.43A3.8,3.8,0,0,0,16,17.92Z"/><path class="cls-12" d="M31.68,28.83a13.84,13.84,0,0,0-3.62,1.23.41.41,0,0,1-.52-.58,13.73,13.73,0,0,0,1.61-3.25A5.48,5.48,0,0,0,24.64,20,5.43,5.43,0,0,0,18,23.77a10.67,10.67,0,0,0,.4,3.16.36.36,0,0,1-.48.42c-.34-.1-.6-.76-.78-1-1.1-1.61-2.48-2.71-4.5-2.62a5.91,5.91,0,0,0-4.49,2.54A5.48,5.48,0,0,0,9,33.91c.15.1,1.61.71,2.95,1.26a.36.36,0,0,1,.13.58c-.18.21-.49.09-.72.06a3.33,3.33,0,0,0-2,.36C6.47,37.65,6,41.36,7.56,44s5,3.71,7.38,2.23a10.09,10.09,0,0,0,2.66-2.58.36.36,0,0,1,.65.26,10.08,10.08,0,0,0,.06,3.74,5.46,5.46,0,0,0,6.81,3.62,5.43,5.43,0,0,0,4.29-6.38,14.34,14.34,0,0,0-3.16-5.21.37.37,0,0,1,.41-.58,16.25,16.25,0,0,0,6,1.18c2.83-.24,4.9-3,4.63-6.14A5.49,5.49,0,0,0,31.68,28.83Z"/><path class="cls-7" d="M22.27,51.71a5.56,5.56,0,0,1-4.36-4A10.16,10.16,0,0,1,17.82,44a10.11,10.11,0,0,1-2.67,2.54c-2.62,1.59-6.18.53-7.94-2.37a6.57,6.57,0,0,1-.73-5.07A5.33,5.33,0,0,1,9.16,35.8a3.78,3.78,0,0,1,2.24-.39l.13,0a28.15,28.15,0,0,1-2.78-1.19,5.89,5.89,0,0,1-1-8.23,6.29,6.29,0,0,1,4.8-2.71c1.92-.08,3.51.83,4.86,2.79,0,.08.12.2.18.32a3.49,3.49,0,0,0,.32.5,10,10,0,0,1-.38-3.23,5.24,5.24,0,0,1,2.34-3.31,6.37,6.37,0,0,1,4.83-.81,5.91,5.91,0,0,1,4.83,6.75,13,13,0,0,1-1.67,3.38,14.26,14.26,0,0,1,3.76-1.27h0c3.05-.26,5.78,2.28,6.08,5.65a6.46,6.46,0,0,1-1.43,4.7,5.27,5.27,0,0,1-3.58,1.89,16.11,16.11,0,0,1-6-1.15,15,15,0,0,1,3.13,5.24,5.33,5.33,0,0,1-.63,4,6.44,6.44,0,0,1-4,2.86A6.7,6.7,0,0,1,22.27,51.71ZM18,43.08l.14,0a.77.77,0,0,1,.47.82,9.74,9.74,0,0,0,.05,3.58A5.1,5.1,0,0,0,25,50.85a5.63,5.63,0,0,0,3.45-2.5A4.39,4.39,0,0,0,29,45a13.61,13.61,0,0,0-3.07-5,.78.78,0,0,1,.86-1.24,15.91,15.91,0,0,0,5.85,1.16,4.42,4.42,0,0,0,3-1.6,5.64,5.64,0,0,0,1.24-4.1c-.26-2.92-2.59-5.12-5.19-4.9h0a12.54,12.54,0,0,0-3.49,1.2.82.82,0,0,1-1-1.18,12.53,12.53,0,0,0,1.56-3.12c.56-2.56-1.33-5.15-4.19-5.78a5.6,5.6,0,0,0-4.22.7,4.44,4.44,0,0,0-2,2.79,11.53,11.53,0,0,0,.4,3,.74.74,0,0,1-.22.72.79.79,0,0,1-.78.18c-.41-.12-.66-.57-.86-.94l-.14-.24c-1.19-1.74-2.51-2.51-4.14-2.44a5.53,5.53,0,0,0-4.18,2.36,5.09,5.09,0,0,0,.79,7.1c.2.11,2.14.91,2.87,1.21a.78.78,0,0,1,.46.55.79.79,0,0,1-.18.69,1,1,0,0,1-1,.21l-.12,0a2.9,2.9,0,0,0-1.76.31,4.43,4.43,0,0,0-2.27,2.8,5.69,5.69,0,0,0,.64,4.42c1.52,2.52,4.58,3.46,6.81,2.1a9.34,9.34,0,0,0,2.55-2.48A.77.77,0,0,1,18,43.08ZM31.68,28.83h0Z"/><path class="cls-11" d="M24.69,32.36a3.28,3.28,0,0,0-.81.23.42.42,0,0,1-.52-.6,3.61,3.61,0,0,0,.29-.7,2.27,2.27,0,0,0-1.86-2.59A2.25,2.25,0,0,0,19,30.27a3.19,3.19,0,0,0,.09.94.23.23,0,0,1-.41.17,4.13,4.13,0,0,0-.64-.77,2.38,2.38,0,0,0-2.74,3.85s.36.17.75.33a.22.22,0,0,1-.11.43h0a.18.18,0,0,0-.1,0,2.78,2.78,0,0,0-.55.25,2.38,2.38,0,0,0,2.46,4,3.16,3.16,0,0,0,.48-.36.5.5,0,0,1,.84.35,2.89,2.89,0,0,0,.08.6A2.25,2.25,0,0,0,22,41.62,2.24,2.24,0,0,0,23.75,39a4.6,4.6,0,0,0-.78-1.5.41.41,0,0,1,.44-.63,5.44,5.44,0,0,0,1.7.23,2.38,2.38,0,0,0-.42-4.72Z"/><path class="cls-7" d="M20.76,42.05a2.54,2.54,0,0,1-2-1.82,3.6,3.6,0,0,1-.09-.69s0-.06-.06-.08a.1.1,0,0,0-.1,0,2.8,2.8,0,0,1-.53.41,2.66,2.66,0,0,1-3.61-1.06,2.93,2.93,0,0,1-.4-2,2.42,2.42,0,0,1,1.12-1.64,2.55,2.55,0,0,1,.33-.17l-.35-.17a2.68,2.68,0,0,1-.46-3.74,2.91,2.91,0,0,1,1.86-1.19,2.43,2.43,0,0,1,1.82.41,1.4,1.4,0,0,1,.3.3,1.53,1.53,0,0,1,0-.39,2.39,2.39,0,0,1,1.08-1.52,2.82,2.82,0,0,1,2.17-.37,2.68,2.68,0,0,1,2.18,3.07,3.51,3.51,0,0,1-.33.81,4.46,4.46,0,0,1,.94-.23h0a2.69,2.69,0,0,1,2.77,2.56,2.88,2.88,0,0,1-.65,2.11,2.37,2.37,0,0,1-1.64.87,5.54,5.54,0,0,1-1.84-.25,5.06,5.06,0,0,1,.85,1.64,2.38,2.38,0,0,1-.29,1.85A2.92,2.92,0,0,1,22.08,42,3,3,0,0,1,20.76,42.05Zm-2-3.4.17.05a.92.92,0,0,1,.56.81,2.66,2.66,0,0,0,.06.52,1.87,1.87,0,0,0,2.32,1.2,2.14,2.14,0,0,0,1.28-.92,1.63,1.63,0,0,0,.2-1.23,4.64,4.64,0,0,0-.72-1.36.8.8,0,0,1,0-.94.82.82,0,0,1,.89-.33,4.71,4.71,0,0,0,1.55.22,1.58,1.58,0,0,0,1.09-.58,2.05,2.05,0,0,0,.45-1.51,1.86,1.86,0,0,0-1.88-1.81h0A2.79,2.79,0,0,0,24,33a.84.84,0,0,1-1-1.18,2.58,2.58,0,0,0,.26-.59,1.86,1.86,0,0,0-1.55-2.1,2,2,0,0,0-1.56.26,1.54,1.54,0,0,0-.71,1,2.26,2.26,0,0,0,.08.77.63.63,0,0,1-1.14.49,2.68,2.68,0,0,0-.55-.67,1.6,1.6,0,0,0-1.21-.27,2.1,2.1,0,0,0-1.32.85,1.85,1.85,0,0,0,.27,2.6l.66.28A.63.63,0,0,1,16,35.63a3,3,0,0,0-.44.21,1.6,1.6,0,0,0-.73,1.1,2.06,2.06,0,0,0,.29,1.46,1.84,1.84,0,0,0,2.48.79,3.4,3.4,0,0,0,.41-.31A.89.89,0,0,1,18.77,38.65ZM16,34.82Z"/><path class="cls-10" d="M22.91,32.78a3.61,3.61,0,1,1-5.1-.35A3.62,3.62,0,0,1,22.91,32.78Z"/><path class="cls-7" d="M19.36,39.09a4,4,0,0,1-2.2-1.29,4,4,0,1,1,2.2,1.29ZM20.85,32A3.47,3.47,0,0,0,20.4,32a3.17,3.17,0,0,0-2.32.78A3.22,3.22,0,0,0,17,34.94a3.17,3.17,0,0,0,.78,2.32A3.22,3.22,0,0,0,20,38.35a3.17,3.17,0,0,0,2.32-.78,3.21,3.21,0,0,0,.31-4.52h0A3.22,3.22,0,0,0,20.85,32Z"/></g></g></svg>