<svg xmlns="http://www.w3.org/2000/svg" xmlns:xlink="http://www.w3.org/1999/xlink" viewBox="0 0 107.11 77.92"><defs><style>.cls-1{fill:none;}.cls-2{fill:#4f22f2;}.cls-3{fill:url(#Unnamed_Pattern_8);}.cls-4{fill:#fefefe;}.cls-5{fill:#54d7cf;}.cls-6{fill:#3e09b2;}.cls-7{fill:#fff;}.cls-8{fill:#f77275;}.cls-9{fill:#f85c09;}.cls-10{fill:#ffe2c3;}.cls-11{fill:#f6b707;}.cls-12{fill:#fefcff;}</style><pattern id="Unnamed_Pattern_8" data-name="Unnamed Pattern 8" width="54.16" height="92.59" patternTransform="matrix(-0.12, 0, 0, 0.12, -82.38, 77.38)" patternUnits="userSpaceOnUse" viewBox="0 0 54.16 92.59"><rect class="cls-1" width="54.16" height="92.59"/><polygon class="cls-2" points="33.38 76.69 36.59 73.47 46.11 82.99 42.9 86.2 33.38 76.69"/><polygon class="cls-2" points="12.7 76.69 15.91 79.91 6.4 89.42 3.19 86.21 12.7 76.69"/><polygon class="cls-2" points="26.42 90.11 29.64 93.32 20.12 102.83 16.91 99.62 26.42 90.11"/><polygon class="cls-2" points="23.43 57.21 26.64 54 36.15 63.52 32.94 66.73 23.43 57.21"/><polygon class="cls-2" points="6.3 30.39 9.51 27.18 19.03 36.69 15.81 39.9 6.3 30.39"/><polygon class="cls-2" points="39.78 30.39 42.99 33.61 33.48 43.12 30.27 39.91 39.78 30.39"/><polygon class="cls-2" points="53.5 43.81 56.72 47.02 47.2 56.53 43.99 53.32 53.5 43.81"/><polygon class="cls-2" points="10.22 56.01 13.44 59.22 3.92 68.74 0.71 65.53 10.22 56.01"/><polygon class="cls-2" points="-0.66 43.81 2.56 47.02 -6.96 56.53 -10.17 53.32 -0.66 43.81"/><polygon class="cls-2" points="50.51 10.92 53.72 7.7 63.23 17.22 60.02 20.43 50.51 10.92"/><polygon class="cls-2" points="37.3 9.71 40.52 12.93 31 22.44 27.79 19.23 37.3 9.71"/><polygon class="cls-2" points="-3.65 10.92 -0.44 7.7 9.07 17.22 5.86 20.43 -3.65 10.92"/><polygon class="cls-2" points="26.42 -2.49 29.64 0.72 20.12 10.24 16.91 7.03 26.42 -2.49"/></pattern></defs><g id="Layer_2" data-name="Layer 2"><g id="OBJECTS"><path class="cls-3" d="M10.29,7.38a3.12,3.12,0,0,1,.85.12l7,1.88h0L60.42,20.63l-.12.24a4,4,0,0,0-.42,1.58,2.67,2.67,0,0,0,0,.4,3.59,3.59,0,0,0,.14.87,3.68,3.68,0,0,0,.34.85,4,4,0,0,0,.46.69l.12.15a4,4,0,0,0,2,1.19,3.94,3.94,0,0,0,1,.13,4.08,4.08,0,0,0,1-.13l.16-.05a4,4,0,0,0,.85-.37,4,4,0,0,0,.43-.29,3.17,3.17,0,0,0,.39-.34h0a3.7,3.7,0,0,0,0,.47,5.55,5.55,0,0,0,10,2.87,4.08,4.08,0,0,0,2.56,2,4.08,4.08,0,0,0,4.66-2.1,2.4,2.4,0,0,0,.12-.38,3.71,3.71,0,0,0,.12-.93l.16,0v0a3.57,3.57,0,0,0,0-.46h0l8.8,2.34h0l6.91,2A3.24,3.24,0,0,1,102.61,35a64.61,64.61,0,0,1-1.74,8.86C94.42,64.4,75.12,77.47,54.1,77.47A51.34,51.34,0,0,1,38.7,75.1C12.37,66.83-2.47,39.44,5.55,13.92c.39-1.27,1.13-3.08,1.76-4.56a3.25,3.25,0,0,1,3-2"/><path class="cls-4" d="M10.85,3.91a3,3,0,0,1,.84.12l7,1.88h0L61,17.16a1.79,1.79,0,0,0-.12.24A3.58,3.58,0,0,0,60.44,19c0,.13,0,.27,0,.4a4.94,4.94,0,0,0,.14.87,4.53,4.53,0,0,0,.34.86,5.08,5.08,0,0,0,.46.68l.13.15a4.17,4.17,0,0,0,3,1.33,4.07,4.07,0,0,0,1-.14l.16-.05a3.59,3.59,0,0,0,.85-.37,3.23,3.23,0,0,0,.43-.29,4.23,4.23,0,0,0,.4-.34,3.69,3.69,0,0,0,0,.47,5.56,5.56,0,0,0,4.14,5,5.66,5.66,0,0,0,1.4.18,5.56,5.56,0,0,0,4.49-2.29,4.08,4.08,0,0,0,7.22-.09c0-.12.09-.25.13-.38a4.23,4.23,0,0,0,.12-.93l.15,0v0a3.55,3.55,0,0,0,0-.46h0l8.8,2.34h0l6.91,2a3.23,3.23,0,0,1,2.38,3.58,65.84,65.84,0,0,1-1.74,8.86C95,60.93,75.67,74,54.65,74a51.39,51.39,0,0,1-15.4-2.37C12.93,63.36-1.91,36,6.1,10.45c.4-1.27,1.13-3.08,1.77-4.56a3.24,3.24,0,0,1,3-2m0-3.91h0A7.16,7.16,0,0,0,4.26,4.35c-.89,2.1-1.53,3.76-1.89,4.92a51.26,51.26,0,0,0,4,40.1,54.29,54.29,0,0,0,31.72,26,55.15,55.15,0,0,0,16.57,2.56,53.57,53.57,0,0,0,31.11-9.83,50.92,50.92,0,0,0,19.4-26.54A66.54,66.54,0,0,0,107,32.07a7.15,7.15,0,0,0-5.18-7.9l-6.61-1.92-.36-.11-8.8-2.35a4.3,4.3,0,0,0-1-.13,4,4,0,0,0-3.68,2.58A4,4,0,0,0,81,23.65h0s-.06,0-.1-.08a3.93,3.93,0,0,0-3.18-2h-.27a3.93,3.93,0,0,0-3.16,1.61,1.64,1.64,0,0,1-1.33.68,1.4,1.4,0,0,1-.41-.05,1.66,1.66,0,0,1-1.23-1.47v-.14a3.92,3.92,0,0,0-6.67-2.83l0,0h-.13l-.07,0v0l0,0,0,0a.06.06,0,0,0,0,0h0l0,0,.07-.14A3.92,3.92,0,0,0,62,13.37L19.71,2.12l-.22-.05L12.71.25A6.89,6.89,0,0,0,10.85,0Z"/><path class="cls-4" d="M77.28,7.71A4.36,4.36,0,0,1,79,8.14c4.65,2-.18,6.15-2.65,7.93a1,1,0,0,1-.56.19,1,1,0,0,1-1-.84c-.34-2.62-.61-7.71,2.42-7.71m0-3.91a5.94,5.94,0,0,0-4.53,2C70.94,7.88,70.36,11.18,71,15.92a4.87,4.87,0,0,0,7.68,3.33c4.5-3.24,6.52-6.32,6.2-9.43-.14-1.33-.88-3.77-4.25-5.26a8.22,8.22,0,0,0-3.33-.76Z"/><path class="cls-4" d="M82.21,14.93c.7,0,1.31.44,1.7,1.61.73,2.17-.81,2.72-2.57,2.72a14.42,14.42,0,0,1-2.82-.34.68.68,0,0,1-.38-1.1c.94-1.1,2.67-2.89,4.07-2.89m0-3.91c-2.3,0-4.61,1.39-7,4.27a4.59,4.59,0,0,0,2.55,7.46,17.9,17.9,0,0,0,3.63.43c3.22,0,4.86-1.34,5.67-2.46a5.82,5.82,0,0,0,.62-5.42A5.72,5.72,0,0,0,82.21,11Z"/><path class="cls-4" d="M70.33,10.16c2,0,2,3.53,1.87,5.36a.68.68,0,0,1-.68.63.61.61,0,0,1-.36-.11c-1.82-1.16-5.4-3.89-2-5.54a2.83,2.83,0,0,1,1.21-.34m0-3.91A6.75,6.75,0,0,0,67.39,7a5.77,5.77,0,0,0-3.56,4.91c-.15,2.67,1.56,5.11,5.22,7.45a4.54,4.54,0,0,0,2.47.73,4.62,4.62,0,0,0,4.59-4.26c.27-3.65-.34-6.22-1.85-7.85a5.33,5.33,0,0,0-3.93-1.71Z"/><path class="cls-5" d="M103.17,31.52a3.23,3.23,0,0,0-2.38-3.58l-6.91-2h0l-8.8-2.34a3.71,3.71,0,0,1-.12.93,4.08,4.08,0,0,1-7.54.91,5.55,5.55,0,0,1-10-3.34,4.08,4.08,0,0,1-6.82-3.92,4.23,4.23,0,0,1,.42-1L18.71,5.9h0L11.69,4A3.23,3.23,0,0,0,7.87,5.89C7.23,7.37,6.5,9.18,6.1,10.45c-8,25.52,6.83,52.91,33.15,61.18s54.16-5.73,62.18-31.25A65.84,65.84,0,0,0,103.17,31.52Z"/><path class="cls-6" d="M54.7,74.38A52.15,52.15,0,0,1,39.14,72,50.82,50.82,0,0,1,9.48,47.68,47.72,47.72,0,0,1,5.75,10.34c.33-1.06.93-2.6,1.78-4.6a3.64,3.64,0,0,1,4.26-2.07l6.94,1.86.07,0L61.07,16.8a.39.39,0,0,1,.25.22.36.36,0,0,1,0,.32,4,4,0,0,0-.37.91,3.71,3.71,0,0,0,6.2,3.57.39.39,0,0,1,.4-.08.36.36,0,0,1,.22.35,5.19,5.19,0,0,0,9.39,3.11.36.36,0,0,1,.32-.15.37.37,0,0,1,.3.19,3.7,3.7,0,0,0,6.85-.82,3.87,3.87,0,0,0,.12-.85.37.37,0,0,1,.14-.29.4.4,0,0,1,.32-.06L94,25.57a.19.19,0,0,1,.08,0l6.84,2a3.6,3.6,0,0,1,2.63,4h0a66,66,0,0,1-1.75,8.91A47.79,47.79,0,0,1,77.37,69,50.43,50.43,0,0,1,54.7,74.38ZM10.86,4.28A2.9,2.9,0,0,0,8.2,6C7.38,8,6.77,9.54,6.45,10.56a47,47,0,0,0,3.67,36.77A50.7,50.7,0,0,0,77,68.35a47,47,0,0,0,24-28.08,63.51,63.51,0,0,0,1.72-8.8h0a2.88,2.88,0,0,0-2.1-3.18l-6.92-2a.13.13,0,0,1-.08,0l-8.28-2.2a4.86,4.86,0,0,1-.11.55,4.43,4.43,0,0,1-7.92,1.45,5.92,5.92,0,0,1-10.34-3.22,4.44,4.44,0,0,1-6.84-4.76,5.3,5.3,0,0,1,.23-.67L18.68,6.27h-.07l-7-1.88A2.74,2.74,0,0,0,10.86,4.28Z"/><path class="cls-7" d="M13.79,7.67c-.57,1.35-1.24,3-1.59,4.15a44.24,44.24,0,0,0,29,55.32A44,44,0,0,0,96.43,38.4a62.65,62.65,0,0,0,1.6-8,2.89,2.89,0,0,0-1.88-3.16l-1.58-.43v0l-4-1.07c0-.08,0-.12,0-.13L84.89,24a4.23,4.23,0,0,1-.12.93,4.08,4.08,0,0,1-5,2.88,4.16,4.16,0,0,1-1.75-1,4.54,4.54,0,0,1-.51-.09,3.47,3.47,0,0,1-.84-.35,5.61,5.61,0,0,1-5.39,1.47,5.7,5.7,0,0,1-2.73-1.65A5,5,0,0,1,66.47,23a4.14,4.14,0,0,1-3.28.53,4.06,4.06,0,0,1-2.94-4.94,3.83,3.83,0,0,1,.41-1L18.17,6.26h0l-1.47-.4A2.92,2.92,0,0,0,13.79,7.67Z"/><path class="cls-8" d="M18.7,5.93c-.12.24-1.75,3.91-2.38,5.92-6.66,21.21,4.9,43.73,25.82,50.3s43.27-5.3,49.94-26.52a74.25,74.25,0,0,0,1.8-9.7h0l-8.8-2.34a3.71,3.71,0,0,1-.12.93,4.08,4.08,0,0,1-7.54.91,5.55,5.55,0,0,1-10-3.34,4.08,4.08,0,0,1-6.82-3.92,4.23,4.23,0,0,1,.42-1L18.71,5.9h0Z"/><path class="cls-9" d="M18.7,5.93c-.12.24-1.75,3.91-2.38,5.92-6.66,21.21,4.9,43.73,25.82,50.3s43.27-5.3,49.94-26.52a74.25,74.25,0,0,0,1.8-9.7h0l-8.8-2.34a3.71,3.71,0,0,1-.12.93,4.08,4.08,0,0,1-7.54.91,5.55,5.55,0,0,1-10-3.34,4.08,4.08,0,0,1-6.82-3.92,4.23,4.23,0,0,1,.42-1L18.71,5.9h0Z"/><path class="cls-6" d="M53.86,64.32a39.67,39.67,0,0,1-35.3-21.66A40.65,40.65,0,0,1,16,11.74c.62-2,2.21-5.56,2.39-6h0l0,0a.35.35,0,0,1,.42-.19L61.07,16.8a.39.39,0,0,1,.25.22.36.36,0,0,1,0,.32,4,4,0,0,0-.37.91,3.71,3.71,0,0,0,6.2,3.57.39.39,0,0,1,.4-.08.36.36,0,0,1,.22.35,5.19,5.19,0,0,0,9.39,3.11.36.36,0,0,1,.32-.15.37.37,0,0,1,.3.19,3.7,3.7,0,0,0,6.85-.82,3.87,3.87,0,0,0,.12-.85.37.37,0,0,1,.14-.29.4.4,0,0,1,.32-.06L94,25.57a.35.35,0,0,1,.26.4,72.85,72.85,0,0,1-1.81,9.77A40.64,40.64,0,0,1,53.86,64.32Zm-34.95-58c-.41.94-1.71,3.91-2.24,5.62a39.92,39.92,0,0,0,2.54,30.36A39,39,0,0,0,53.86,63.59,39.91,39.91,0,0,0,91.73,35.52a71.47,71.47,0,0,0,1.75-9.33l-8.06-2.14a4.86,4.86,0,0,1-.11.55,4.43,4.43,0,0,1-7.92,1.45,5.92,5.92,0,0,1-10.34-3.22,4.48,4.48,0,0,1-3.66.66,4.45,4.45,0,0,1-3.18-5.42,5.3,5.3,0,0,1,.23-.67Zm-.21-.42Z"/><path class="cls-9" d="M76.38,16.07a1,1,0,0,1-1.52-.65C74.46,12.37,74.17,6,79,8.14,83.68,10.19,78.85,14.29,76.38,16.07Z"/><path class="cls-6" d="M75.81,16.62a1.29,1.29,0,0,1-.53-.11,1.33,1.33,0,0,1-.79-1.05c-.35-2.77-.42-6.35,1.31-7.65.83-.62,2-.62,3.38,0a3.08,3.08,0,0,1,2.15,2.38c.22,2.13-2.45,4.54-4.74,6.18h0A1.3,1.3,0,0,1,75.81,16.62Zm.57-.55Zm.91-8a1.72,1.72,0,0,0-1.05.32c-1.11.83-1.48,3.37-1,7a.59.59,0,0,0,.36.47.58.58,0,0,0,.58-.06h0c3-2.14,4.58-4.15,4.44-5.51C80.52,9.55,80,9,78.88,8.48A4,4,0,0,0,77.29,8.08Z"/><path class="cls-9" d="M78.52,18.92a.68.68,0,0,1-.38-1.1c1.4-1.65,4.58-4.83,5.77-1.28S80.63,19.37,78.52,18.92Z"/><path class="cls-6" d="M81.34,19.63a14.46,14.46,0,0,1-2.89-.35h0a1,1,0,0,1-.58-1.7c1.29-1.52,3.16-3.28,4.7-3,.76.14,1.33.76,1.69,1.83A2.27,2.27,0,0,1,84,18.79,3.59,3.59,0,0,1,81.34,19.63ZM78.6,18.56c2.48.53,4.25.43,4.87-.26a1.64,1.64,0,0,0,.1-1.64c-.27-.8-.65-1.25-1.14-1.34-.92-.18-2.38.82-4,2.74a.28.28,0,0,0-.06.3.28.28,0,0,0,.23.2Z"/><path class="cls-9" d="M72.2,15.52a.67.67,0,0,1-1,.52c-1.82-1.16-5.4-3.89-2-5.54C72.33,8.92,72.36,13.38,72.2,15.52Z"/><path class="cls-6" d="M71.52,16.52a1,1,0,0,1-.56-.17c-1.69-1.08-3.68-2.69-3.59-4.26A2.39,2.39,0,0,1,69,10.17a2.28,2.28,0,0,1,2.37-.08c1.29.88,1.39,3.45,1.24,5.46h0a1.06,1.06,0,0,1-.58.86A1.12,1.12,0,0,1,71.52,16.52Zm-1.19-6a2.34,2.34,0,0,0-1,.3c-.76.37-1.16.81-1.19,1.3,0,.93,1.14,2.25,3.26,3.6a.27.27,0,0,0,.3,0,.3.3,0,0,0,.18-.25c.18-2.53-.15-4.28-.92-4.8A1.07,1.07,0,0,0,70.33,10.53Zm1.87,5h0Z"/><path class="cls-10" d="M22,24.11a.54.54,0,0,0-.28-.88c-1.68-.39-5.23-.91-4.3,1.93S20.89,25.4,22,24.11Z"/><path class="cls-10" d="M25.9,33.07a.42.42,0,0,0-.39-.61c-1.35,0-4.14.32-2.89,2.29S25.28,34.27,25.9,33.07Z"/><path class="cls-10" d="M55,22.38a.57.57,0,0,0-.93-.32C52.63,23.25,49.94,25.94,53,27S55.34,24.16,55,22.38Z"/><path class="cls-10" d="M39.7,17a.42.42,0,0,0-.38-.61c-1.34,0-4.11.3-2.87,2.26S39.09,18.13,39.7,17Z"/><path class="cls-10" d="M26.11,12.09a.44.44,0,0,0-.26-.72c-1.4-.29-4.35-.63-3.52,1.7S25.2,13.19,26.11,12.09Z"/><path class="cls-10" d="M80.82,36.24a.74.74,0,0,1,1.09-.65c2.06,1.1,6.14,3.75,2.65,5.81C81.23,43.37,80.83,38.56,80.82,36.24Z"/><path class="cls-10" d="M74.18,46.8a.45.45,0,0,1,.68-.37c1.24.72,3.67,2.44,1.49,3.62S74.13,48.22,74.18,46.8Z"/><path class="cls-10" d="M59.31,56.53a.44.44,0,0,1,.76-.09c.88,1.13,2.5,3.63,0,3.91S58.73,57.84,59.31,56.53Z"/><path class="cls-10" d="M31.18,48.41a.45.45,0,0,1,.56.54c-.34,1.39-1.26,4.22-3,2.48S29.81,48.78,31.18,48.41Z"/><path class="cls-10" d="M85.38,28.25a.43.43,0,0,1,.55-.49c1.29.42,3.91,1.5,2.13,3S85.63,29.58,85.38,28.25Z"/><path class="cls-10" d="M46.86,52.87a.67.67,0,0,0-1.1-.35c-1.6,1.41-4.67,4.6-1.15,5.71S47.33,54.93,46.86,52.87Z"/><path class="cls-6" d="M47.28,20.32a.38.38,0,0,1-.35-.23,3.06,3.06,0,0,0-4.54-1.49.36.36,0,0,1-.5-.11A.37.37,0,0,1,42,18a3.79,3.79,0,0,1,5.62,1.85.37.37,0,0,1-.21.47A.32.32,0,0,1,47.28,20.32Z"/><path class="cls-6" d="M71,29.16a.37.37,0,0,1-.35-.26,3.07,3.07,0,0,0-4.45-1.73.37.37,0,0,1-.36-.64,3.8,3.8,0,0,1,5.51,2.15.36.36,0,0,1-.24.46Z"/><path class="cls-6" d="M50.36,44.75a4.56,4.56,0,0,1-1.81-.38,4.49,4.49,0,0,1-2.29-5.91.48.48,0,0,1,.64-.25.49.49,0,0,1,.25.65,3.5,3.5,0,0,0,6.41,2.82.5.5,0,0,1,.64-.25.49.49,0,0,1,.25.65,4.47,4.47,0,0,1-4.09,2.67Z"/><path class="cls-6" d="M55.92,44.82a.52.52,0,0,1-.25-.07c-1.09-.65-2.84-2.46-1.64-4.68a.49.49,0,1,1,.86.46c-1,1.95,1.18,3.32,1.28,3.38a.5.5,0,0,1,.17.67A.52.52,0,0,1,55.92,44.82Z"/><path class="cls-6" d="M44.78,39.63a4.75,4.75,0,0,1-1.35-.2.49.49,0,0,1-.33-.61.5.5,0,0,1,.61-.33h0c.11,0,2.62.77,3.36-1.32a.49.49,0,0,1,.92.32A3.17,3.17,0,0,1,44.78,39.63Z"/><path class="cls-11" d="M52.05,43.7l0-.2a2.24,2.24,0,0,0-2-2.41h0A2.23,2.23,0,0,0,47.65,43a3.43,3.43,0,0,0,1.25,1A3.28,3.28,0,0,0,52.05,43.7Z"/><path class="cls-6" d="M50.23,44.74a3.89,3.89,0,0,1-1.53-.32,3.79,3.79,0,0,1-1.43-1.11.5.5,0,0,1-.1-.37,2.71,2.71,0,0,1,5.38.6v.2a.53.53,0,0,1-.22.37A3.77,3.77,0,0,1,50.23,44.74Zm-2-1.87a3,3,0,0,0,.92.65,2.78,2.78,0,0,0,2.48-.11,1.69,1.69,0,0,0-.4-1.22A1.71,1.71,0,0,0,50,41.58,1.73,1.73,0,0,0,48.18,42.87Zm3.87.83Z"/><path class="cls-11" d="M50.35,35.09a2,2,0,1,0,2.7-1A2,2,0,0,0,50.35,35.09Z"/><path class="cls-6" d="M52.21,38.35A2.41,2.41,0,0,1,50,34.94a2.45,2.45,0,0,1,1.35-1.26,2.38,2.38,0,0,1,1.85.06,2.42,2.42,0,0,1-.15,4.46A2.5,2.5,0,0,1,52.21,38.35Zm0-4.09a1.68,1.68,0,1,0,.69.15A1.68,1.68,0,0,0,52.21,34.26Z"/><path class="cls-11" d="M71.33,55.65c-.74,2-4.26,2.56-7.86,1.23s-5.92-4-5.18-6,4.26-2.56,7.86-1.24S72.07,53.64,71.33,55.65Z"/><path class="cls-6" d="M67.3,58a11.54,11.54,0,0,1-3.95-.75C59.5,55.81,57.13,53,58,50.72a3.66,3.66,0,0,1,3.14-2.1,10.71,10.71,0,0,1,5.19.65c3.85,1.42,6.22,4.27,5.4,6.51h0C71.15,57.21,69.46,58,67.3,58Zm-4.95-8.72a8.27,8.27,0,0,0-1.14.08A3,3,0,0,0,58.64,51c-.66,1.78,1.61,4.33,5,5.56s6.73.77,7.39-1h0c.65-1.78-1.62-4.33-5-5.56A10.81,10.81,0,0,0,62.35,49.26Zm9,6.39h0Z"/><path class="cls-7" d="M51.4,34.92a.75.75,0,1,0,1.36.62.73.73,0,0,0-.37-1A.74.74,0,0,0,51.4,34.92Z"/><path class="cls-7" d="M69.69,53.89c-.27.55-1.28.61-2.27.13s-1.57-1.31-1.3-1.86,1.28-.61,2.26-.13S70,53.34,69.69,53.89Z"/><path class="cls-11" d="M35.2,42.82c-.89,2-4.44,2.24-7.93.64s-5.6-4.46-4.71-6.4,4.44-2.24,7.93-.64S36.09,40.88,35.2,42.82Z"/><path class="cls-6" d="M31.63,44.86a11.17,11.17,0,0,1-4.51-1.06A10.74,10.74,0,0,1,23,40.61a3.67,3.67,0,0,1-.75-3.7A3.68,3.68,0,0,1,25.52,35a10.76,10.76,0,0,1,5.12,1,10.66,10.66,0,0,1,4.14,3.19,3.7,3.7,0,0,1,.76,3.7,3.71,3.71,0,0,1-3.3,1.87Zm-5.49-9.11a5.12,5.12,0,0,0-.56,0,3,3,0,0,0-2.69,1.43,3,3,0,0,0,.68,3,9.87,9.87,0,0,0,3.86,3,9.88,9.88,0,0,0,4.75,1,3,3,0,0,0,2.69-1.43,3,3,0,0,0-.68-3,9.83,9.83,0,0,0-3.85-3A10.41,10.41,0,0,0,26.14,35.75Z"/><path class="cls-7" d="M29.49,38.45c-.22.57-1.22.73-2.25.34s-1.68-1.16-1.47-1.73S27,36.34,28,36.72,29.7,37.88,29.49,38.45Z"/><path class="cls-7" d="M57.91,35.29C55.6,40,56.64,45.2,60.23,47s8.37-.58,10.68-5.25S72.19,31.81,68.6,30,60.22,30.62,57.91,35.29Z"/><path class="cls-6" d="M62.8,47.94a6.06,6.06,0,0,1-2.74-.64C56.3,45.44,55.19,40,57.58,35.13h0a11.36,11.36,0,0,1,5-5.21,6.83,6.83,0,0,1,6.15-.21c3.76,1.86,4.88,7.32,2.48,12.17a11.31,11.31,0,0,1-5,5.21A7.77,7.77,0,0,1,62.8,47.94ZM58.24,35.46h0C56,39.94,57,45,60.39,46.65a6.13,6.13,0,0,0,5.49-.21,10.63,10.63,0,0,0,4.7-4.89c2.22-4.49,1.26-9.51-2.15-11.19a6.13,6.13,0,0,0-5.49.21A10.63,10.63,0,0,0,58.24,35.46Z"/><path class="cls-6" d="M68.76,30.09c2,1,2.6,4.21,1.44,7.51l-4.78-.76,3.52,3.31c-1.91,2.94-4.79,4.46-6.85,3.44-2.33-1.15-2.72-5.11-.88-8.83S66.43,28.94,68.76,30.09Z"/><path class="cls-6" d="M63.47,44.27a3.54,3.54,0,0,1-1.54-.35,4.41,4.41,0,0,1-2.21-3.74,10.56,10.56,0,0,1,1.16-5.58,10.4,10.4,0,0,1,3.73-4.31,4.39,4.39,0,0,1,4.31-.52h0c2.18,1.07,2.87,4.42,1.63,8a.39.39,0,0,1-.41.24l-3.6-.57,2.65,2.49a.37.37,0,0,1,.06.47C67.65,42.81,65.41,44.27,63.47,44.27Zm3.89-14.13a4.56,4.56,0,0,0-2.37.77,9.74,9.74,0,0,0-3.45,4,9.8,9.8,0,0,0-1.09,5.18,3.7,3.7,0,0,0,1.8,3.16c1.8.89,4.38-.39,6.21-3.06l-3.29-3.09a.36.36,0,0,1-.08-.43.39.39,0,0,1,.39-.2l4.47.7c1-3.06.43-5.87-1.36-6.76h0A2.81,2.81,0,0,0,67.36,30.14Z"/><path class="cls-12" d="M63.17,33.43a4,4,0,0,1,1,4.14h0a3.82,3.82,0,0,1,3.54-2.24s-1.45-.75-1.11-3.63c0,0,0-.06,0-.05s0,0,0,0C64.72,34,63.17,33.43,63.17,33.43Z"/><path class="cls-7" d="M33.45,27.17c-2.08,4.78-.79,10,2.89,11.55s8.33-1,10.41-5.78.79-10-2.88-11.55S35.53,22.38,33.45,27.17Z"/><path class="cls-6" d="M38.64,39.56a6.24,6.24,0,0,1-2.45-.5,6.86,6.86,0,0,1-3.81-4.83A11.38,11.38,0,0,1,33.12,27h0c2.15-5,7-7.64,10.89-6s5.23,7.08,3.08,12a11.36,11.36,0,0,1-4.77,5.46A7.65,7.65,0,0,1,38.64,39.56ZM33.79,27.31a10.69,10.69,0,0,0-.7,6.74A5.77,5.77,0,0,0,42,37.9a10.56,10.56,0,0,0,4.45-5.1c2-4.6.79-9.56-2.69-11.07s-7.94,1-9.93,5.58Z"/><path class="cls-6" d="M44.9,22.54c2.06,1,2.6,4.21,1.45,7.5l-4.78-.75,3.52,3.31c-1.92,2.94-4.79,4.46-6.85,3.44-2.33-1.15-2.73-5.11-.89-8.83S42.58,21.39,44.9,22.54Z"/><path class="cls-6" d="M39.62,36.72a3.56,3.56,0,0,1-1.55-.35c-2.5-1.24-3-5.42-1-9.33a10.6,10.6,0,0,1,3.73-4.31,4.42,4.42,0,0,1,4.32-.51c2.18,1.07,2.86,4.42,1.62,8a.38.38,0,0,1-.4.24l-3.6-.57,2.65,2.49a.38.38,0,0,1,.06.47C43.79,35.26,41.56,36.72,39.62,36.72Zm3.89-14.13a4.56,4.56,0,0,0-2.37.77,9.76,9.76,0,0,0-3.46,4c-1.75,3.54-1.43,7.28.72,8.34,1.8.89,4.37-.4,6.21-3.06l-3.29-3.09a.37.37,0,0,1,.31-.63l4.47.7c1-3.06.43-5.87-1.36-6.76h0A2.84,2.84,0,0,0,43.51,22.59Z"/><path class="cls-12" d="M40.12,25.26a4.1,4.1,0,0,1,1,4.26h0a3.91,3.91,0,0,1,3.64-2.3s-1.49-.78-1.14-3.75c0,0,0-.06,0,0s0,0,0,0C41.72,25.79,40.12,25.26,40.12,25.26Z"/></g></g></svg>